SplineFontDB: 3.2
FontName: D-DIN-PRO-Exp-Heavy
FullName: D-DIN-PRO-Exp-Heavy
FamilyName: D-DIN-PRO-Exp
Weight: Heavy
Copyright: Copyright (c) CyberFei. All rights reserved
Version: 1.1.0
ItalicAngle: 0
UnderlinePosition: -150
UnderlineWidth: 50
Ascent: 831
Descent: 169
InvalidEm: 0
sfntRevision: 0x00010000
LayerCount: 2
Layer: 0 0 "Back" 1
Layer: 1 0 "Fore" 0
XUID: [1021 868 -1451673819 14455]
StyleMap: 0x0020
FSType: 4
OS2Version: 4
OS2_WeightWidthSlopeOnly: 1
OS2_UseTypoMetrics: 0
CreationTime: 1462909513
ModificationTime: 1778060079
PfmFamily: 17
TTFWeight: 900
TTFWidth: 7
LineGap: 0
VLineGap: 0
Panose: 2 11 8 4 2 2 2 3 2 4
OS2TypoAscent: 831
OS2TypoAOffset: 0
OS2TypoDescent: -169
OS2TypoDOffset: 0
OS2TypoLinegap: 86
OS2WinAscent: 902
OS2WinAOffset: 0
OS2WinDescent: 184
OS2WinDOffset: 0
HheadAscent: 902
HheadAOffset: 0
HheadDescent: -184
HheadDOffset: 0
OS2SubXSize: 650
OS2SubYSize: 600
OS2SubXOff: 0
OS2SubYOff: 75
OS2SupXSize: 650
OS2SupYSize: 600
OS2SupXOff: 0
OS2SupYOff: 350
OS2StrikeYSize: 50
OS2StrikeYPos: 312
OS2CapHeight: 690
OS2XHeight: 520
OS2Vendor: 'MONO'
OS2CodePages: 00000001.00000000
OS2UnicodeRanges: 8000006f.4000000a.00000000.00000000
Lookup: 1 0 0 "'rtla' Right to Left Alternates lookup 0" { "'rtla' Right to Left Alternates lookup 0 subtable"  } ['rtla' ('DFLT' <'dflt' > ) ]
Lookup: 1 0 0 "'sups' Superscript lookup 1" { "'sups' Superscript lookup 1 subtable" ("superior") } ['sups' ('DFLT' <'dflt' > ) ]
Lookup: 4 0 0 "'frac' Diagonal Fractions lookup 2" { "'frac' Diagonal Fractions lookup 2 subtable"  } ['frac' ('DFLT' <'dflt' > ) ]
Lookup: 258 0 0 "'kern' Horizontal Kerning in Latin lookup 0" { "'kern' Horizontal Kerning in Latin lookup 0 subtable"  } ['kern' ('DFLT' <'dflt' > 'latn' <'dflt' > ) ]
Lookup: 258 0 0 "Pairwise Positioning (kerning) lookup 1" { "Pairwise Positioning (kerning) lookup 1 subtable"  } []
Lookup: 258 0 0 "Pairwise Positioning (kerning) lookup 2" { "Pairwise Positioning (kerning) lookup 2 subtable"  } []

StartChar: .notdef
Encoding: 65536 -1 0
Width: 604
GlyphClass: 1
Flags: MW
HStem: 0.0742188 61.4395<166.222 453.262 166.222 514.702> 629.834 61.4404<166.222 453.262 166.222 166.222>
VStem: 104.782 61.4395<61.5137 61.5137 61.5137 629.834> 453.262 61.4404<61.5137 629.834 629.834 629.834>
LayerCount: 2
Fore
SplineSet
104.782226562 691.274414062 m 1
 514.702148438 691.274414062 l 1
 514.702148438 0.07421875 l 1
 104.782226562 0.07421875 l 1
 104.782226562 691.274414062 l 1
166.221679688 61.513671875 m 1
 453.26171875 61.513671875 l 1
 453.26171875 629.833984375 l 1
 166.221679688 629.833984375 l 1
 166.221679688 61.513671875 l 1
EndSplineSet
EndChar

StartChar: exclam
Encoding: 33 33 4
Width: 264
GlyphClass: 2
Flags: MW
HStem: 0.0742188 153.6<64.4619 219.021 64.4619 219.021> 671.274 20G<58.8906 224.593 224.593 224.593>
VStem: 64.4619 154.56<0.0742188 153.674 0.0742188 153.674> 83.4336 116.617<220.874 220.874>
LayerCount: 2
Fore
SplineSet
224.592773438 691.274414062 m 1xd0
 200.05078125 220.874023438 l 1
 83.43359375 220.874023438 l 1
 58.890625 691.274414062 l 1
 224.592773438 691.274414062 l 1xd0
64.4619140625 153.673828125 m 1xe0
 219.021484375 153.673828125 l 1
 219.021484375 0.07421875 l 1
 64.4619140625 0.07421875 l 1
 64.4619140625 153.673828125 l 1xe0
EndSplineSet
EndChar

StartChar: quotedbl
Encoding: 34 34 5
Width: 406
GlyphClass: 2
Flags: MW
HStem: 376.394 314.881<44.3018 185.422 44.3018 185.422 44.3018 240.142 240.142 380.302>
VStem: 44.3018 141.12<376.394 691.274 376.394 691.274> 240.142 140.16<376.394 691.274 376.394 691.274>
LayerCount: 2
Fore
SplineSet
44.3017578125 691.274414062 m 1
 185.421875 691.274414062 l 1
 185.421875 376.393554688 l 1
 44.3017578125 376.393554688 l 1
 44.3017578125 691.274414062 l 1
240.141601562 691.274414062 m 1
 380.301757812 691.274414062 l 1
 380.301757812 376.393554688 l 1
 240.141601562 376.393554688 l 1
 240.141601562 691.274414062 l 1
EndSplineSet
EndChar

StartChar: numbersign
Encoding: 35 35 6
Width: 606
GlyphClass: 2
Flags: MW
HStem: 0.0742188 21G<97.9492 225.883 97.9492 97.9492 304.349 433.243 304.349 304.349> 195.914 117.12<25.1016 123.869 25.1016 139.251 267.2 330.269 25.1016 251.803 474.412 570.382> 389.834 117.12<51.9814 149.724 51.9814 165.094 51.9814 277.673 293.02 356.123 499.42 597.262> 671.274 20G<189.094 317.02 317.02 317.02 395.494 523.42 523.42 523.42>
LayerCount: 2
Fore
SplineSet
597.26171875 506.954101562 m 1
 597.26171875 389.833984375 l 1
 484.186523438 389.833984375 l 1
 474.412109375 313.034179688 l 1
 570.381835938 313.034179688 l 1
 570.381835938 195.9140625 l 1
 459.163085938 195.9140625 l 1
 433.243164062 0.07421875 l 1
 304.348632812 0.07421875 l 1
 330.268554688 195.9140625 l 1
 251.802734375 195.9140625 l 1
 225.8828125 0.07421875 l 1
 97.94921875 0.07421875 l 1
 123.869140625 195.9140625 l 1
 25.1015625 195.9140625 l 1
 25.1015625 313.034179688 l 1
 139.250976562 313.034179688 l 1
 149.723632812 389.833984375 l 1
 51.9814453125 389.833984375 l 1
 51.9814453125 506.954101562 l 1
 165.09375 506.954101562 l 1
 189.09375 691.274414062 l 1
 317.01953125 691.274414062 l 1
 293.01953125 506.954101562 l 1
 371.494140625 506.954101562 l 1
 395.494140625 691.274414062 l 1
 523.419921875 691.274414062 l 1
 499.419921875 506.954101562 l 1
 597.26171875 506.954101562 l 1
345.650390625 313.034179688 m 1
 356.123046875 389.833984375 l 1
 277.672851562 389.833984375 l 1
 267.200195312 313.034179688 l 1
 345.650390625 313.034179688 l 1
EndSplineSet
EndChar

StartChar: dollar
Encoding: 36 36 7
Width: 540
GlyphClass: 2
Flags: MW
HStem: -57.5254 216.96<231.704 297.255 231.704 334.221 219.98 297.255> 538.633 200.641<256.27 293.367>
VStem: 50.0625 144.959<469.15 498.522> 219.98 114.24<-57.5254 31.4658 31.4658 31.4658> 373.583 145.919<210.254 237.976>
LayerCount: 2
Fore
SplineSet
344.901367188 411.770507812 m 2
 401.255859375 403.767578125 519.501953125 375.787109375 519.501953125 229.513671875 c 0
 519.501953125 173.375 501.930664062 126.692382812 466.16796875 91.9814453125 c 0
 433.216796875 60 388.780273438 40.46484375 334.220703125 32.515625 c 1
 334.220703125 -57.525390625 l 1
 219.98046875 -57.525390625 l 1
 219.98046875 31.4658203125 l 1
 166.586914062 38.9560546875 122.994140625 58.619140625 90.7109375 91.2255859375 c 0
 38.814453125 143.641601562 35.83203125 207.755859375 34.0166015625 246.794921875 c 1
 172.247070312 246.794921875 l 1
 177.776367188 201.642578125 182.944335938 159.434570312 280.462890625 159.434570312 c 0
 314.047851562 159.434570312 337.72265625 165.754882812 352.365234375 176.030273438 c 0
 366.5390625 185.977539062 373.583007812 199.6328125 373.583007812 220.875 c 0
 373.583007812 255.076171875 359.387695312 275.538085938 308.544921875 281.450195312 c 2
 236.315429688 291.080078125 l 2
 179.821289062 298.571289062 50.0625 324.919921875 50.0625 472.39453125 c 0
 50.0625 524.649414062 66.1259765625 568.852539062 98.708984375 602.8359375 c 0
 128.771484375 634.19140625 169.681640625 653.803710938 219.982421875 662.387695312 c 1
 219.982421875 739.2734375 l 1
 334.22265625 739.2734375 l 1
 334.22265625 663.6171875 l 1
 367.919921875 658.576171875 497.97265625 635.896484375 509.862304688 475.389648438 c 2
 511.008789062 459.913085938 l 1
 370.086914062 459.913085938 l 1
 367.626953125 485.744140625 365.61328125 506.884765625 344.86328125 522.254882812 c 0
 331.198242188 532.375976562 309.151367188 538.6328125 277.58203125 538.6328125 c 0
 234.958007812 538.6328125 195.021484375 526.500976562 195.021484375 481.033203125 c 0
 195.021484375 457.266601562 203.62890625 432.013671875 270.006835938 422.33203125 c 0
 270.07421875 422.323242188 344.901367188 411.770507812 344.901367188 411.770507812 c 2
EndSplineSet
EndChar

StartChar: percent
Encoding: 37 37 8
Width: 975
GlyphClass: 2
Flags: MW
HStem: -5.68457 114.24<770.263 785.254 770.263 841.288> 253.514 114.241<204.823 219.813 204.823 275.848> 324.555 113.281<770.331 784.741> 583.755 113.279<204.891 219.301>
VStem: 51.9814 127.681<425.354 430.155 430.155 520.395 416.567 532.875 416.567 565.521> 243.021 127.681<430.156 520.396 520.396 532.874 383.702 533.991> 617.422 127.68<166.156 170.956 170.956 261.196 157.368 273.676 157.368 306.322> 808.462 127.68<170.955 261.195 261.195 273.676 124.504 274.791>
LayerCount: 2
Fore
SplineSet
211.341796875 253.513671875 m 0xdf
 134.087890625 253.513671875 51.9814453125 286.23828125 51.9814453125 425.354492188 c 2
 51.9814453125 532.875 l 2
 51.9814453125 598.166015625 74.8359375 697.034179688 213.26171875 697.034179688 c 0
 295.896484375 697.034179688 370.702148438 660.375 370.702148438 532.874023438 c 2
 370.702148438 425.354492188 l 2
 370.702148438 342.049804688 340.354492188 253.513671875 211.341796875 253.513671875 c 0xdf
782.908203125 696.075195312 m 1
 338.26953125 0.0751953125 l 1
 207.166992188 0.0751953125 l 1
 650.8046875 696.075195312 l 1
 782.908203125 696.075195312 l 1
243.021484375 430.15625 m 2
 243.021484375 520.395507812 l 2
 243.021484375 547.5859375 239.422851562 565.649414062 235.145507812 573.5625 c 0
 231.791015625 579.767578125 226.299804688 583.754882812 212.301757812 583.754882812 c 0
 197.48046875 583.754882812 191.416015625 579.541992188 187.874023438 573.302734375 c 0
 183.424804688 565.4609375 179.662109375 547.55078125 179.662109375 520.39453125 c 2
 179.662109375 430.155273438 l 2
 179.662109375 402.978515625 183.475585938 385.270507812 187.7890625 377.875 c 0
 191.237304688 371.96484375 197.34375 367.754882812 212.301757812 367.754882812 c 0
 227.325195312 367.754882812 232.704101562 371.93359375 235.557617188 377.340820312 c 0
 239.543945312 384.895507812 243.021484375 402.91796875 243.021484375 430.15625 c 2
776.782226562 -5.6845703125 m 0
 699.52734375 -5.6845703125 617.421875 27.0400390625 617.421875 166.15625 c 2
 617.421875 273.67578125 l 2
 617.421875 338.967773438 640.275390625 437.8359375 778.702148438 437.8359375 c 0xbf
 861.336914062 437.8359375 936.141601562 401.177734375 936.141601562 273.67578125 c 2
 936.141601562 166.15625 l 2
 936.141601562 82.8515625 905.793945312 -5.6845703125 776.782226562 -5.6845703125 c 0
808.461914062 170.955078125 m 2
 808.461914062 261.1953125 l 2
 808.461914062 288.38671875 804.862304688 306.44921875 800.584960938 314.362304688 c 0
 797.23046875 320.567382812 791.739257812 324.5546875 777.7421875 324.5546875 c 0
 762.919921875 324.5546875 756.85546875 320.341796875 753.314453125 314.102539062 c 0
 748.866210938 306.265625 745.1015625 288.353515625 745.1015625 261.196289062 c 2
 745.1015625 170.956054688 l 2
 745.1015625 143.779296875 748.915039062 126.071289062 753.229492188 118.67578125 c 0
 756.676757812 112.765625 762.784179688 108.555664062 777.7421875 108.555664062 c 0
 792.765625 108.555664062 798.143554688 112.734375 800.998046875 118.142578125 c 0
 804.984375 125.696289062 808.461914062 143.717773438 808.461914062 170.955078125 c 2
EndSplineSet
EndChar

StartChar: ampersand
Encoding: 38 38 9
Width: 668
GlyphClass: 2
Flags: MW
HStem: -13.3672 131.521<261.28 293.578 261.28 312.865> 0.0732422 131.52<537.476 630.862 595.343 630.862 595.343 630.862> 583.753 120.961<298.871 312.711>
VStem: 51.9824 142.079<181.378 210.782 181.378 233.381> 110.542 140.161<522.833 556.684> 358.223 138.239<517.938 541.813>
LayerCount: 2
Fore
SplineSet
496.461914062 530.954101562 m 0xac
 496.461914062 459.291992188 456.510742188 410.612304688 374.05078125 355.122070312 c 1
 458.2578125 257.135742188 l 1
 543.38671875 352.668945312 l 1
 638.619140625 266.09375 l 1
 542.71484375 158.565429688 l 1
 559.90234375 139.65625 570.197265625 131.592773438 595.342773438 131.592773438 c 2
 630.862304688 131.592773438 l 1
 630.862304688 0.0732421875 l 1
 564.623046875 0.0732421875 l 2x6c
 510.329101562 0.0732421875 480.387695312 20.298828125 448.439453125 56.3896484375 c 1
 410.611328125 22.80078125 356.788085938 -13.3671875 268.942382812 -13.3671875 c 0
 202.958007812 -13.3671875 149.203125 4.9814453125 110.102539062 43.0341796875 c 0
 71.30078125 80.796875 51.982421875 130.306640625 51.982421875 189.193359375 c 0xb4
 51.982421875 277.569335938 99.515625 335.455078125 173.004882812 384.696289062 c 1
 129.599609375 441.061523438 110.541992188 480.020507812 110.541992188 530.954101562 c 0
 110.541992188 582.4140625 128.684570312 625.47265625 164.854492188 657.427734375 c 0
 200.829101562 689.211914062 247.365234375 704.713867188 302.541992188 704.713867188 c 0
 358.353515625 704.713867188 405.374023438 689.055664062 441.67578125 656.942382812 c 0
 478.080078125 624.73828125 496.461914062 581.875976562 496.461914062 530.954101562 c 0xac
303.502929688 583.752929688 m 0
 294.23828125 583.752929688 250.703125 583.506835938 250.703125 535.75390625 c 0
 250.703125 509.913085938 264.649414062 485.950195312 292.173828125 451.923828125 c 1
 333.768554688 478.611328125 358.22265625 502.043945312 358.22265625 533.833007812 c 0
 358.22265625 549.79296875 353.422851562 561.00390625 343.99609375 569.946289062 c 0
 334.665039062 578.798828125 321.918945312 583.752929688 303.502929688 583.752929688 c 0
256.67578125 284.284179688 m 1
 210.821289062 252.38671875 194.061523438 227.569335938 194.061523438 193.994140625 c 0
 194.061523438 168.762695312 201.350585938 151.084960938 214.979492188 138.228515625 c 0
 228.70703125 125.278320312 247.856445312 118.154296875 274.703125 118.154296875 c 0xb4
 312.453125 118.154296875 339.479492188 134.129882812 365.078125 156.021484375 c 1
 256.67578125 284.284179688 l 1
EndSplineSet
EndChar

StartChar: quotesingle
Encoding: 39 39 10
Width: 209
GlyphClass: 2
Flags: MW
HStem: 376.394 314.881<44.3018 185.422 44.3018 185.422>
VStem: 44.3018 141.12<376.394 691.274 376.394 691.274>
LayerCount: 2
Fore
SplineSet
44.3017578125 691.274414062 m 1
 185.421875 691.274414062 l 1
 185.421875 376.393554688 l 1
 44.3017578125 376.393554688 l 1
 44.3017578125 691.274414062 l 1
EndSplineSet
EndChar

StartChar: parenleft
Encoding: 40 40 11
Width: 335
GlyphClass: 2
Flags: MW
VStem: 51.9814 146.881<296.029 364.593 296.029 446.07>
LayerCount: 2
Fore
SplineSet
51.9814453125 330.315429688 m 0
 51.9814453125 561.825195312 159.090820312 695.28125 194.899414062 739.274414062 c 1
 314.536132812 739.274414062 l 1
 285.786132812 691.358398438 250.674804688 632.83984375 224.793945312 534.020507812 c 0
 207.510742188 468.026367188 198.862304688 399.83203125 198.862304688 329.354492188 c 0
 198.862304688 262.704101562 206.051757812 101.612304688 300.559570312 -58.8740234375 c 2
 313.333007812 -80.56640625 l 1
 193.727539062 -80.56640625 l 1
 156.611328125 -32.6923828125 51.9814453125 105.717773438 51.9814453125 330.315429688 c 0
EndSplineSet
Substitution2: "'rtla' Right to Left Alternates lookup 0 subtable" parenright
EndChar

StartChar: parenright
Encoding: 41 41 12
Width: 335
GlyphClass: 2
Flags: MW
VStem: 156.622 146.88<294.126 379.959>
LayerCount: 2
Fore
SplineSet
156.622070312 329.354492188 m 0
 156.622070312 430.564453125 138.251953125 577.1015625 54.0244140625 717.48046875 c 2
 40.94921875 739.274414062 l 1
 160.697265625 739.274414062 l 1
 200.142578125 689.538085938 303.501953125 553.586914062 303.501953125 330.315429688 c 0
 303.501953125 105.860351562 199.0234375 -32.4970703125 161.755859375 -80.56640625 c 1
 41.1904296875 -80.56640625 l 1
 69.33203125 -32.77734375 103.849609375 25.8369140625 130.2265625 124.749023438 c 0
 147.8203125 190.725585938 156.622070312 258.897460938 156.622070312 329.354492188 c 0
EndSplineSet
Substitution2: "'rtla' Right to Left Alternates lookup 0 subtable" parenleft
EndChar

StartChar: asterisk
Encoding: 42 42 13
Width: 423
GlyphClass: 2
Flags: MW
HStem: 373.514 317.761<173.901 268.941 173.901 268.941>
VStem: 173.901 95.04<373.514 461.466 373.514 462.32 373.514 462.32 606.095 691.274>
LayerCount: 2
Fore
SplineSet
268.94140625 373.513671875 m 1
 173.901367188 373.513671875 l 1
 173.901367188 462.3203125 l 1
 88.2060546875 418.59765625 l 1
 46.7412109375 495.80859375 l 1
 121.138671875 533.833984375 l 1
 46.7412109375 571.859375 l 1
 88.15234375 648.969726562 l 1
 173.901367188 606.094726562 l 1
 173.901367188 691.274414062 l 1
 268.94140625 691.274414062 l 1
 268.94140625 605.34765625 l 1
 354.8203125 649.1640625 l 1
 394.954101562 571.763671875 l 1
 320.883789062 533.905273438 l 1
 396.322265625 495.771484375 l 1
 353.526367188 418.737304688 l 1
 268.94140625 461.465820312 l 1
 268.94140625 373.513671875 l 1
EndSplineSet
EndChar

StartChar: plus
Encoding: 43 43 14
Width: 535
GlyphClass: 2
Flags: MW
HStem: 210.314 138.239<53.9014 207.502 53.9014 207.502 345.742 498.382>
VStem: 207.502 138.24<56.7139 210.314 56.7139 210.314 348.554 502.154>
LayerCount: 2
Fore
SplineSet
345.7421875 210.314453125 m 1
 345.7421875 56.7138671875 l 1
 207.501953125 56.7138671875 l 1
 207.501953125 210.314453125 l 1
 53.9013671875 210.314453125 l 1
 53.9013671875 348.553710938 l 1
 207.501953125 348.553710938 l 1
 207.501953125 502.154296875 l 1
 345.7421875 502.154296875 l 1
 345.7421875 348.553710938 l 1
 498.381835938 348.553710938 l 1
 498.381835938 210.314453125 l 1
 345.7421875 210.314453125 l 1
EndSplineSet
EndChar

StartChar: comma
Encoding: 44 44 15
Width: 209
GlyphClass: 2
Flags: MW
HStem: -172.091 332.484<44.3018 185.422>
VStem: 44.3018 141.12<-52.6816 160.394 -52.6816 160.394 -52.6816 160.394>
LayerCount: 2
Fore
SplineSet
44.3017578125 160.393554688 m 1
 185.421875 160.393554688 l 1
 185.421875 -52.681640625 l 1
 44.3017578125 -172.090820312 l 1
 44.3017578125 160.393554688 l 1
EndSplineSet
EndChar

StartChar: hyphen
Encoding: 45 45 16
Width: 410
GlyphClass: 2
Flags: MW
HStem: 276.554 139.2<51.9814 377.422 51.9814 377.422>
VStem: 51.9814 325.44<276.554 415.754 276.554 415.754>
LayerCount: 2
Fore
SplineSet
51.9814453125 415.75390625 m 1
 377.421875 415.75390625 l 1
 377.421875 276.553710938 l 1
 51.9814453125 276.553710938 l 1
 51.9814453125 415.75390625 l 1
EndSplineSet
EndChar

StartChar: period
Encoding: 46 46 17
Width: 230
GlyphClass: 2
Flags: MW
HStem: 0.0742188 165.12<44.3018 206.542 44.3018 206.542>
VStem: 44.3018 162.24<0.0742188 165.194 0.0742188 165.194>
LayerCount: 2
Fore
SplineSet
44.3017578125 165.194335938 m 1
 206.541992188 165.194335938 l 1
 206.541992188 0.07421875 l 1
 44.3017578125 0.07421875 l 1
 44.3017578125 165.194335938 l 1
EndSplineSet
EndChar

StartChar: slash
Encoding: 47 47 18
Width: 453
GlyphClass: 2
Flags: MW
HStem: -9.52637 21G<46.0215 176.396 46.0215 46.0215> 676.074 20G<295.233 426.609 426.609 426.609>
LayerCount: 2
Fore
SplineSet
426.609375 696.07421875 m 1
 176.396484375 -9.5263671875 l 1
 46.021484375 -9.5263671875 l 1
 295.233398438 696.07421875 l 1
 426.609375 696.07421875 l 1
EndSplineSet
EndChar

StartChar: zero
Encoding: 48 48 19
Width: 569
GlyphClass: 2
Flags: MW
HStem: -10.4863 138.24<282.034 313.818 282.034 405.34> 562.635 139.199<282.001 313.477>
VStem: 60.6221 155.52<246.794 257.354 257.354 433.995> 380.302 154.561<257.354 433.995 433.995 452.234>
LayerCount: 2
Fore
SplineSet
297.7421875 -10.486328125 m 0
 174.13671875 -10.486328125 60.6220703125 44.564453125 60.6220703125 246.793945312 c 2
 60.6220703125 452.234375 l 2
 60.6220703125 507.443359375 65.947265625 701.833984375 297.7421875 701.833984375 c 0
 373.23828125 701.833984375 534.862304688 683.541992188 534.862304688 452.234375 c 2
 534.862304688 246.793945312 l 2
 534.862304688 157.12890625 512.938476562 -10.486328125 297.7421875 -10.486328125 c 0
380.301757812 257.354492188 m 2
 380.301757812 433.995117188 l 2
 380.301757812 483.327148438 372.501953125 517.067382812 360.178710938 535.421875 c 0
 348.38671875 552.983398438 329.211914062 562.634765625 297.7421875 562.634765625 c 0
 266.259765625 562.634765625 247.331054688 552.990234375 235.864257812 535.541992188 c 0
 223.790039062 517.166015625 216.141601562 483.34765625 216.141601562 433.995117188 c 2
 216.141601562 257.354492188 l 2
 216.141601562 208.012695312 223.767578125 174.000976562 235.916015625 155.249023438 c 0
 247.424804688 137.484375 266.325195312 127.75390625 297.7421875 127.75390625 c 0
 329.893554688 127.75390625 349.077148438 137.57421875 360.52734375 155.249023438 c 0
 372.676757812 174.000976562 380.301757812 208.012695312 380.301757812 257.354492188 c 2
EndSplineSet
EndChar

StartChar: one
Encoding: 49 49 20
Width: 390
GlyphClass: 2
Flags: MW
HStem: 0.0742188 21G<183.502 338.062 183.502 183.502> 671.274 20G<193.96 338.062 338.062 338.062>
VStem: 183.502 154.56<0.0742188 520.394 520.394 520.394>
LayerCount: 2
Fore
SplineSet
42.3818359375 438.79296875 m 1
 42.3818359375 601.564453125 l 1
 193.959960938 691.274414062 l 1
 338.061523438 691.274414062 l 1
 338.061523438 0.07421875 l 1
 183.501953125 0.07421875 l 1
 183.501953125 520.393554688 l 1
 42.3818359375 438.79296875 l 1
EndSplineSet
Substitution2: "'sups' Superscript lookup 1 subtable" uni00B9
EndChar

StartChar: two
Encoding: 50 50 21
Width: 549
GlyphClass: 2
Flags: MW
HStem: 0.0742188 139.2<277.495 520.462 277.495 520.462> 566.473 135.361<274.51 305.097>
VStem: 55.8213 148.8<471.433 501.193 471.433 508.873 471.433 537.862> 363.98 155.521<487.753 488.714 488.714 498.313 498.313 501.194 458.228 523.055>
LayerCount: 2
Fore
SplineSet
285.260742188 701.833984375 m 0
 432.3203125 701.833984375 519.501953125 617.56640625 519.501953125 501.194335938 c 2
 519.501953125 488.713867188 l 2
 519.501953125 427.7421875 498.62890625 372.295898438 432.857421875 302.989257812 c 2
 277.495117188 139.274414062 l 1
 520.461914062 139.274414062 l 1
 520.461914062 0.07421875 l 1
 59.662109375 0.07421875 l 1
 59.662109375 119.9921875 l 1
 143.685546875 209.861328125 226.344726562 301.069335938 311.719726562 389.610351562 c 0
 350.2578125 429.577148438 363.98046875 454.506835938 363.98046875 487.752929688 c 2
 363.98046875 498.313476562 l 2
 363.98046875 547.796875 326.853515625 566.47265625 283.340820312 566.47265625 c 0
 265.678710938 566.47265625 204.62109375 563.674804688 204.62109375 501.193359375 c 2
 204.62109375 471.432617188 l 1
 55.8212890625 471.432617188 l 1
 55.8212890625 508.873046875 l 2
 55.8212890625 566.850585938 76.8154296875 614.84375 118.556640625 649.974609375 c 0
 160.250976562 685.068359375 216.420898438 701.833984375 285.260742188 701.833984375 c 0
EndSplineSet
Substitution2: "'sups' Superscript lookup 1 subtable" uni00B2
EndChar

StartChar: three
Encoding: 51 51 22
Width: 561
GlyphClass: 2
Flags: MW
HStem: -10.4863 135.36<256.979 302.347 256.979 325.204> 288.073 135.359<225.741 276.621 276.621 277.581 225.741 276.621> 566.473 135.36<262.441 316.285>
VStem: 55.8213 145.92<184.394 187.274 187.274 209.354 168.333 209.354> 362.061 152.641<490.749 502.153 490.749 502.153 502.153 514.633 490.749 517.046> 373.581 152.641<199.753 214.153 214.153 214.154 167.056 231.51>
LayerCount: 2
Fore
SplineSet
441.23828125 368.201171875 m 1xf8
 476.61328125 349.373046875 526.221679688 306.504882812 526.221679688 214.154296875 c 2
 526.221679688 198.793945312 l 2
 526.221679688 135.317382812 504.666992188 83.2119140625 461.278320312 45.3779296875 c 0
 418.064453125 7.6953125 360.345703125 -10.486328125 290.061523438 -10.486328125 c 0
 217.043945312 -10.486328125 159.0390625 5.3857421875 117.7265625 39.345703125 c 0
 76.1884765625 73.4912109375 55.8212890625 122.967773438 55.8212890625 184.393554688 c 2
 55.8212890625 209.354492188 l 1
 201.741210938 209.354492188 l 1
 201.741210938 187.274414062 l 2
 201.741210938 149.390625 225.81640625 124.874023438 288.140625 124.874023438 c 0
 316.553710938 124.874023438 373.581054688 131.497070312 373.581054688 199.752929688 c 2
 373.581054688 214.153320312 l 2xf4
 373.581054688 248.866210938 362.595703125 288.073242188 277.581054688 288.073242188 c 2
 225.741210938 288.073242188 l 1
 225.741210938 423.432617188 l 1
 276.62109375 423.432617188 l 2
 329.994140625 423.432617188 362.060546875 443.178710938 362.060546875 490.6328125 c 2
 362.060546875 502.153320312 l 2
 362.060546875 531.938476562 348.268554688 566.47265625 284.30078125 566.47265625 c 0
 240.58203125 566.47265625 205.581054688 551.396484375 205.581054688 503.11328125 c 2
 205.581054688 480.073242188 l 1
 61.5810546875 480.073242188 l 1
 61.5810546875 503.11328125 l 2
 61.5810546875 565.596679688 81.08203125 615.891601562 121.266601562 650.788085938 c 0
 161.247070312 685.508789062 217.202148438 701.833007812 287.180664062 701.833007812 c 0
 355.88671875 701.833007812 411.625976562 685.9765625 452.739257812 652.528320312 c 0
 494.020507812 618.942382812 514.701171875 571.942382812 514.701171875 514.6328125 c 2
 514.701171875 502.153320312 l 2
 514.701171875 479.344726562 511.5234375 412.943359375 441.23828125 368.201171875 c 1xf8
EndSplineSet
Substitution2: "'sups' Superscript lookup 1 subtable" uni00B3
EndChar

StartChar: four
Encoding: 52 52 23
Width: 582
GlyphClass: 2
Flags: MW
HStem: 0.0742188 21G<345.742 500.302 345.742 345.742> 105.674 139.2<210.175 345.742 210.175 345.742 500.302 560.782> 671.274 20G<262.721 423.295 423.295 423.295>
VStem: 345.742 154.56<0.0742188 105.674 0.0742188 105.674 244.874 400.394>
LayerCount: 2
Fore
SplineSet
500.301757812 244.874023438 m 1
 560.782226562 244.874023438 l 1
 560.782226562 105.673828125 l 1
 500.301757812 105.673828125 l 1
 500.301757812 0.07421875 l 1
 345.7421875 0.07421875 l 1
 345.7421875 105.673828125 l 1
 45.26171875 105.673828125 l 1
 45.26171875 233.725585938 l 1
 262.720703125 691.274414062 l 1
 423.294921875 691.274414062 l 1
 210.174804688 244.874023438 l 1
 345.7421875 244.874023438 l 1
 345.7421875 400.393554688 l 1
 500.301757812 400.393554688 l 1
 500.301757812 244.874023438 l 1
EndSplineSet
EndChar

StartChar: five
Encoding: 53 53 24
Width: 552
GlyphClass: 2
Flags: MW
HStem: -10.4863 135.36<272.565 296.138 272.565 320.409> 333.194 131.52<292.963 315.195> 554.954 136.32<209.422 498.382 209.422 209.422>
VStem: 72.1416 137.28<440.888 554.954 440.888 691.274 440.888 691.274> 365.901 152.641<213.194 242.954 242.954 247.754 177.215 269.179>
LayerCount: 2
Fore
SplineSet
365.901367188 242.954101562 m 2
 365.901367188 295.403320312 345.12890625 333.194335938 285.26171875 333.194335938 c 0
 268.494140625 333.194335938 228.619140625 329.174804688 209.717773438 292.947265625 c 2
 205.671875 285.194335938 l 1
 72.1416015625 285.194335938 l 1
 72.1416015625 691.274414062 l 1
 498.381835938 691.274414062 l 1
 498.381835938 554.954101562 l 1
 209.421875 554.954101562 l 1
 209.421875 440.887695312 l 1
 239.333007812 456.854492188 273.78515625 464.713867188 312.141601562 464.713867188 c 0
 375.75 464.713867188 427.368164062 445.865234375 464.203125 406.92578125 c 0
 500.96875 368.05859375 518.541992188 314.225585938 518.541992188 247.75390625 c 2
 518.541992188 211.274414062 l 2
 518.541992188 143.15625 498.23046875 87.8798828125 456.456054688 48.1943359375 c 0
 414.686523438 8.513671875 356.516601562 -10.486328125 284.301757812 -10.486328125 c 0
 218.08984375 -10.486328125 163.696289062 5.107421875 122.700195312 37.765625 c 0
 81.36328125 70.6943359375 60.62109375 117.112304688 60.62109375 173.833984375 c 2
 60.62109375 195.9140625 l 1
 209.420898438 195.9140625 l 1
 209.420898438 177.673828125 l 2
 209.420898438 162.150390625 215.098632812 150.685546875 228.236328125 140.639648438 c 0
 241.334960938 130.623046875 259.870117188 124.874023438 285.260742188 124.874023438 c 0
 307.014648438 124.874023438 365.901367188 127.532226562 365.901367188 213.194335938 c 2
 365.901367188 242.954101562 l 2
EndSplineSet
EndChar

StartChar: six
Encoding: 54 54 25
Width: 574
GlyphClass: 2
Flags: MW
HStem: -10.4863 135.359<262.357 314.78 260.624 336.096> 299.593 133.441<286.226 368.316> 671.274 20G<280.805 450.409 450.409 450.409>
VStem: 55.8213 154.56<205.513 222.793 190.023 224.713 190.023 250.652> 389.901 154.56<204.552 209.354 209.354 221.832 221.832 229.514 175.745 235.012>
LayerCount: 2
Fore
SplineSet
55.8212890625 205.512695312 m 2
 55.8212890625 224.712890625 l 2
 55.8212890625 276.591796875 72.8974609375 331.533203125 105.75390625 389.361328125 c 2
 280.8046875 691.274414062 l 1
 450.409179688 691.274414062 l 1
 298.963867188 429.938476562 l 1
 310.969726562 432.0390625 324.0078125 433.034179688 338.060546875 433.034179688 c 0
 398.571289062 433.034179688 449.076171875 414.774414062 487.298828125 377.594726562 c 0
 525.627929688 340.311523438 544.4609375 290.112304688 544.4609375 229.513671875 c 2
 544.4609375 209.354492188 l 2
 544.4609375 142.134765625 522.188476562 87.3017578125 477.1484375 47.8046875 c 0
 432.34375 8.5146484375 372.529296875 -10.486328125 299.662109375 -10.486328125 c 0
 225.052734375 -10.486328125 164.890625 7.8876953125 121.189453125 46.38671875 c 0
 77.3759765625 84.9833984375 55.8212890625 139.0234375 55.8212890625 205.512695312 c 2
210.380859375 204.552734375 m 2
 210.380859375 175.493164062 221.5859375 124.873046875 299.661132812 124.873046875 c 0
 329.899414062 124.873046875 351.60546875 132.485351562 366.854492188 146.157226562 c 0
 381.9765625 159.71484375 389.901367188 178.208007812 389.901367188 204.551757812 c 2
 389.901367188 221.83203125 l 2
 389.901367188 248.19140625 381.986328125 266.219726562 367.06640625 279.083007812 c 0
 351.836914062 292.212890625 330.004882812 299.592773438 299.661132812 299.592773438 c 0
 272.790039062 299.592773438 210.380859375 293.572265625 210.380859375 222.79296875 c 2
 210.380859375 204.552734375 l 2
EndSplineSet
EndChar

StartChar: seven
Encoding: 55 55 26
Width: 513
GlyphClass: 2
Flags: MW
HStem: 0.0742188 21G<100.286 259.298 100.286 100.286> 553.034 138.24<39.502 335.486 39.502 497.422>
LayerCount: 2
Fore
SplineSet
497.421875 691.274414062 m 1
 497.421875 564.515625 l 1
 259.297851562 0.07421875 l 1
 100.286132812 0.07421875 l 1
 335.486328125 553.034179688 l 1
 39.501953125 553.034179688 l 1
 39.501953125 691.274414062 l 1
 497.421875 691.274414062 l 1
EndSplineSet
EndChar

StartChar: eight
Encoding: 56 56 27
Width: 583
GlyphClass: 2
Flags: MW
HStem: -10.4863 135.361<268.37 323.324 266.404 340.554> 293.835 132.479<298.225 312.741 267.5 330.655> 566.474 135.36<292.75 318.706>
VStem: 60.6211 152.64<201.674 203.595 203.595 215.114 215.114 217.995 187.063 229.886> 75.0205 151.68<493.514 503.114 484.51 504.074 484.51 560.147> 383.18 152.642<492.555 493.514 493.514 503.115 503.115 504.074 477.882 513.601> 396.622 151.68<203.595 216.074 170.218 217.995 170.218 245.519>
LayerCount: 2
Fore
SplineSet
305.420898438 701.833984375 m 0xe8
 453.456054688 701.833984375 535.821289062 616.205078125 535.821289062 504.07421875 c 2
 535.821289062 493.513671875 l 2xec
 535.821289062 462.25 527.904296875 433.389648438 512.087890625 407.732421875 c 0
 500.899414062 389.58203125 486.772460938 374.337890625 469.970703125 362.256835938 c 1
 491.399414062 347.958007812 508.9375 330.009765625 522.1640625 308.583007812 c 0
 539.525390625 280.458984375 548.301757812 249.369140625 548.301757812 216.07421875 c 2
 548.301757812 202.633789062 l 2
 548.301757812 137.802734375 525.869140625 84.68359375 480.844726562 46.2392578125 c 0
 436.055664062 7.9970703125 376.645507812 -10.486328125 304.461914062 -10.486328125 c 0
 232.278320312 -10.486328125 172.8671875 7.9970703125 128.079101562 46.2392578125 c 0
 83.0927734375 84.6513671875 60.62109375 137.435546875 60.62109375 201.673828125 c 2
 60.62109375 215.114257812 l 2xf2
 60.62109375 244.657226562 68.5263671875 316.203125 139.590820312 362.4765625 c 1
 124.477539062 373.393554688 75.0205078125 413.09375 75.0205078125 493.513671875 c 2
 75.0205078125 504.07421875 l 2
 75.0205078125 616.219726562 157.40234375 701.833984375 305.420898438 701.833984375 c 0xe8
305.419921875 426.314453125 m 0
 320.0625 426.314453125 383.1796875 427.038085938 383.1796875 492.5546875 c 2
 383.1796875 503.115234375 l 2
 383.1796875 524.0859375 376.625976562 538.4296875 363.826171875 549.220703125 c 0
 350.85546875 560.157226562 331.991210938 566.473632812 305.419921875 566.473632812 c 0
 280.080078125 566.473632812 226.700195312 560.62109375 226.700195312 503.114257812 c 2
 226.700195312 492.553710938 l 2
 226.700195312 476.466796875 229.581054688 426.314453125 305.419921875 426.314453125 c 0
305.419921875 124.875 m 0
 341.227539062 124.875 396.622070312 135.826171875 396.622070312 203.594726562 c 2
 396.622070312 217.995117188 l 2
 396.622070312 273.04296875 355.888671875 293.834960938 305.421875 293.834960938 c 0
 291.028320312 293.834960938 213.260742188 293.495117188 213.260742188 217.995117188 c 2
 213.260742188 203.594726562 l 2xf2
 213.260742188 170.532226562 227.387695312 124.875 305.419921875 124.875 c 0
EndSplineSet
EndChar

StartChar: nine
Encoding: 57 57 28
Width: 574
GlyphClass: 2
Flags: MW
HStem: 0.0742188 21G<149.95 318.519 149.95 149.95> 258.314 133.439<261.227 268.953> 566.474 135.36<292.042 336.969 262.939 338.097>
VStem: 55.8223 154.56<462.794 470.474 470.474 482.954 482.954 486.794 455.03 516.531> 388.941 155.521<469.514 486.794 440.36 487.754 440.36 503.198>
LayerCount: 2
Fore
SplineSet
262.221679688 258.314453125 m 0
 201.678710938 258.314453125 151.1484375 276.762695312 112.936523438 314.280273438 c 0
 74.6533203125 351.866210938 55.822265625 402.192382812 55.822265625 462.793945312 c 2
 55.822265625 482.954101562 l 2
 55.822265625 550.108398438 77.71484375 604.775390625 122.138671875 643.991210938 c 0
 166.375 683.043945312 226.216796875 701.833984375 299.662109375 701.833984375 c 0
 374.276367188 701.833984375 434.571289062 683.456054688 478.571289062 644.999023438 c 0
 522.6796875 606.447265625 544.461914062 552.71875 544.461914062 486.793945312 c 2
 544.461914062 466.633789062 l 2
 544.461914062 414.0859375 527.124023438 359.228515625 493.568359375 301.986328125 c 0
 493.534179688 301.926757812 322.688476562 7.2666015625 322.688476562 7.2666015625 c 1
 318.518554688 0.07421875 l 1
 149.950195312 0.07421875 l 1
 300.6328125 261.690429688 l 1
 288.5 259.423828125 275.684570312 258.314453125 262.221679688 258.314453125 c 0
299.662109375 391.75390625 m 0
 315.075195312 391.75390625 388.94140625 392.369140625 388.94140625 469.513671875 c 2
 388.94140625 487.75390625 l 2
 388.94140625 518.641601562 376.532226562 566.473632812 299.662109375 566.473632812 c 0
 284.421875 566.473632812 210.381835938 565.985351562 210.381835938 486.793945312 c 2
 210.381835938 470.473632812 l 2
 210.381835938 439.586914062 222.791015625 391.75390625 299.662109375 391.75390625 c 0
EndSplineSet
EndChar

StartChar: colon
Encoding: 58 58 29
Width: 230
GlyphClass: 2
Flags: MW
HStem: 0.0742188 165.12<44.3018 206.542 44.3018 206.542> 324.554 165.12<44.3018 206.542 44.3018 206.542>
VStem: 44.3018 162.24<0.0742188 165.194 0.0742188 165.194 324.554 489.674>
LayerCount: 2
Fore
SplineSet
44.3017578125 489.673828125 m 1
 206.541992188 489.673828125 l 1
 206.541992188 324.553710938 l 1
 44.3017578125 324.553710938 l 1
 44.3017578125 489.673828125 l 1
44.3017578125 165.194335938 m 1
 206.541992188 165.194335938 l 1
 206.541992188 0.07421875 l 1
 44.3017578125 0.07421875 l 1
 44.3017578125 165.194335938 l 1
EndSplineSet
EndChar

StartChar: semicolon
Encoding: 59 59 30
Width: 230
GlyphClass: 2
Flags: MW
HStem: 324.554 165.12<44.3018 206.542 44.3018 206.542>
VStem: 44.3018 162.24<324.554 489.674 324.554 489.674> 63.502 141.12<-52.6816 160.394 -52.6816 160.394 -52.6816 160.394>
LayerCount: 2
Fore
SplineSet
44.3017578125 489.673828125 m 1xc0
 206.541992188 489.673828125 l 1
 206.541992188 324.553710938 l 1
 44.3017578125 324.553710938 l 1
 44.3017578125 489.673828125 l 1xc0
63.501953125 160.393554688 m 1xa0
 204.622070312 160.393554688 l 1
 204.622070312 -52.681640625 l 1
 63.501953125 -172.090820312 l 1
 63.501953125 160.393554688 l 1xa0
EndSplineSet
EndChar

StartChar: less
Encoding: 60 60 31
Width: 535
GlyphClass: 2
Flags: W
LayerCount: 2
Fore
SplineSet
53.9013671875 218.743164062 m 1
 53.9013671875 337.265625 l 1
 497.421875 510.772460938 l 1
 497.421875 369.350585938 l 1
 256.734375 277.578125 l 1
 497.421875 186.670898438 l 1
 497.421875 44.2099609375 l 1
 53.9013671875 218.743164062 l 1
EndSplineSet
Substitution2: "'rtla' Right to Left Alternates lookup 0 subtable" greater
EndChar

StartChar: equal
Encoding: 61 61 32
Width: 535
GlyphClass: 2
Flags: MW
HStem: 110.474 137.28<54.8623 497.422 54.8623 497.422> 311.114 137.279<54.8623 497.422 54.8623 497.422>
LayerCount: 2
Fore
SplineSet
54.8623046875 448.393554688 m 1
 497.421875 448.393554688 l 1
 497.421875 311.114257812 l 1
 54.8623046875 311.114257812 l 1
 54.8623046875 448.393554688 l 1
54.8623046875 247.75390625 m 1
 497.421875 247.75390625 l 1
 497.421875 110.473632812 l 1
 54.8623046875 110.473632812 l 1
 54.8623046875 247.75390625 l 1
EndSplineSet
EndChar

StartChar: greater
Encoding: 62 62 33
Width: 535
GlyphClass: 2
Flags: W
LayerCount: 2
Fore
SplineSet
53.9013671875 369.350585938 m 1
 53.9013671875 510.772460938 l 1
 497.421875 337.265625 l 1
 497.421875 218.743164062 l 1
 53.9013671875 44.2099609375 l 1
 53.9013671875 186.670898438 l 1
 294.588867188 277.578125 l 1
 53.9013671875 369.350585938 l 1
EndSplineSet
Substitution2: "'rtla' Right to Left Alternates lookup 0 subtable" less
EndChar

StartChar: question
Encoding: 63 63 34
Width: 507
GlyphClass: 2
Flags: MW
HStem: 0.0751953 149.76<176.783 331.343 176.783 331.343> 563.594 137.28<225.399 291.35>
VStem: 176.783 154.56<0.0751953 149.835 0.0751953 149.835> 332.302 151.68<498.317 518.082>
LayerCount: 2
Fore
SplineSet
332.301757812 508.875 m 0
 332.301757812 527.288085938 328.157226562 563.59375 254.541992188 563.59375 c 0
 196.255859375 563.59375 179.663085938 540.418945312 178.697265625 501.788085938 c 2
 178.346679688 487.75390625 l 1
 33.2841796875 487.75390625 l 1
 35.1611328125 547.795898438 39.9443359375 700.874023438 257.421875 700.874023438 c 0
 326.096679688 700.874023438 381.668945312 685.202148438 422.489257812 652.057617188 c 0
 463.493164062 618.763671875 483.981445312 571.903320312 483.981445312 514.633789062 c 0
 483.981445312 457.62890625 460.431640625 408.384765625 417.383789062 366.224609375 c 0
 398.223632812 347.458984375 381.369140625 326.399414062 362.412109375 307.428710938 c 0
 335.938476562 280.935546875 328.461914062 264.606445312 328.461914062 229.513671875 c 2
 328.461914062 185.354492188 l 1
 180.622070312 185.354492188 l 1
 180.622070312 243.9140625 l 2
 180.622070312 312.44140625 195.866210938 343.1875 239.684570312 384.787109375 c 0
 256.833984375 401.067382812 271.860351562 419.520507812 288.908203125 435.908203125 c 0
 325.11328125 470.709960938 332.301757812 487.759765625 332.301757812 508.875 c 0
176.783203125 149.834960938 m 1
 331.342773438 149.834960938 l 1
 331.342773438 0.0751953125 l 1
 176.783203125 0.0751953125 l 1
 176.783203125 149.834960938 l 1
EndSplineSet
EndChar

StartChar: at
Encoding: 64 64 35
Width: 870
GlyphClass: 2
Flags: MW
HStem: -130.486 124.802<415.835 489.663 415.835 508.689> 51.9141 119.039<429.918 439.359> 394.633 119.041<339.368 447.833> 574.157 124.796<404.886 469.598>
VStem: 51.9834 136.318<250.633 251.597 251.597 317.833 317.833 319.757 233.284 355.062> 252.621 136.322<240.074 245.833 245.833 324.553 232.232 324.554 232.232 361.205> 488.784 135.357<242.953 323.593 323.593 358.166> 696.142 136.32<254.475 255.434 255.434 321.675 321.675 322.634 223.564 339.75>
LayerCount: 2
Fore
SplineSet
656.782226562 169.03515625 m 0
 668.33984375 169.03515625 696.141601562 169.03515625 696.141601562 254.474609375 c 2
 696.141601562 321.674804688 l 2
 696.141601562 357.826171875 692.986328125 481.443359375 579.35546875 543.258789062 c 0
 541.8515625 563.661132812 496.493164062 574.157226562 442.702148438 574.157226562 c 0
 361.616210938 574.157226562 300.109375 551.181640625 255.63671875 506.411132812 c 0
 211.112304688 461.588867188 188.301757812 400.193359375 188.301757812 319.756835938 c 2
 188.301757812 251.596679688 l 2
 188.301757812 214.971679688 191.979492188 89.279296875 305.6796875 26.11328125 c 0
 343.50390625 5.099609375 388.96875 -5.6845703125 442.702148438 -5.6845703125 c 0
 536.623046875 -5.6845703125 590.5234375 19.091796875 647.631835938 48.205078125 c 1
 702.731445312 -58.23828125 l 1
 647.982421875 -90.33203125 574.676757812 -130.486328125 442.702148438 -130.486328125 c 0
 367.065429688 -130.486328125 299.3125 -114.65625 240.041015625 -82.689453125 c 0
 180.852539062 -50.7666015625 134.376953125 -5.6572265625 101.396484375 51.9765625 c 0
 68.3505859375 109.723632812 51.9833984375 176.174804688 51.9833984375 250.6328125 c 2
 51.9833984375 317.833007812 l 2
 51.9833984375 392.291015625 68.3505859375 458.7421875 101.396484375 516.490234375 c 0
 134.376953125 574.123046875 180.853515625 619.233398438 240.04296875 651.15625 c 0
 299.314453125 683.123046875 367.067382812 698.953125 442.704101562 698.953125 c 0
 671.920898438 698.953125 832.461914062 543.938476562 832.461914062 322.633789062 c 2
 832.461914062 255.43359375 l 2
 832.461914062 191.6953125 816.477539062 140.709960938 782.418945312 104.876953125 c 0
 748.995117188 69.712890625 706.041992188 51.9140625 655.822265625 51.9140625 c 0
 616.994140625 51.9140625 568.58203125 61.6611328125 535.379882812 102.272460938 c 1
 509.3515625 68.232421875 466.737304688 51.9140625 411.98046875 51.9140625 c 0
 333.681640625 51.9140625 252.62109375 88.5126953125 252.62109375 240.07421875 c 2
 252.62109375 324.553710938 l 2
 252.62109375 397.856445312 273.473632812 513.673828125 405.26171875 513.673828125 c 0
 431.424804688 513.673828125 463.1875 508.1484375 490.702148438 487.5703125 c 1
 490.702148438 503.115234375 l 1
 624.141601562 503.115234375 l 1
 624.141601562 215.115234375 l 2
 624.141601562 185.630859375 634.1796875 169.03515625 656.782226562 169.03515625 c 0
439.823242188 170.953125 m 0
 455.43359375 170.953125 488.784179688 172.559570312 488.784179688 242.953125 c 2
 488.784179688 323.592773438 l 2
 488.784179688 392.73828125 455.842773438 394.6328125 439.823242188 394.6328125 c 0
 420.712890625 394.6328125 409.6171875 388.80859375 402.176757812 378.211914062 c 0
 393.931640625 366.469726562 388.943359375 348.934570312 388.943359375 324.552734375 c 2
 388.943359375 245.833007812 l 2
 388.943359375 218.631835938 393.97265625 199.447265625 401.893554688 187.56640625 c 0
 408.97265625 176.947265625 420.013671875 170.953125 439.823242188 170.953125 c 0
EndSplineSet
EndChar

StartChar: A
Encoding: 65 65 36
Width: 682
GlyphClass: 2
Flags: MW
HStem: 0.0742188 21G<4.58887 4.58887 4.58887 170.461 527.742 527.742 527.742 693.614> 128.714 133.44<268.578 429.557 268.578 479.742 218.461 429.557> 671.274 20G<288.081 410.122 410.122 410.122>
LayerCount: 2
Fore
SplineSet
4.5888671875 0.07421875 m 1
 288.081054688 691.274414062 l 1
 410.122070312 691.274414062 l 1
 693.614257812 0.07421875 l 1
 527.7421875 0.07421875 l 1
 479.7421875 128.713867188 l 1
 218.4609375 128.713867188 l 1
 170.4609375 0.07421875 l 1
 4.5888671875 0.07421875 l 1
268.578125 262.154296875 m 1
 429.556640625 262.154296875 l 1
 348.685546875 476.538085938 l 1
 268.578125 262.154296875 l 1
EndSplineSet
EndChar

StartChar: B
Encoding: 66 66 37
Width: 656
GlyphClass: 2
Flags: MW
HStem: 0.0742188 138.239<219.022 378.383> 282.313 138.239<219.022 366.862 366.862 375.503 219.022 366.862> 553.033 138.241<219.022 365.902 365.902 371.663 219.022 219.022>
VStem: 64.4629 154.56<138.313 282.313 420.553 553.033> 457.103 154.561<477.326 499.64> 467.663 153.6<194.907 226.768>
LayerCount: 2
Fore
SplineSet
535.145507812 356.038085938 m 1xf8
 588.158203125 326.282226562 621.262695312 275.84375 621.262695312 204.552734375 c 0xf4
 621.262695312 140.567382812 600.109375 88.9189453125 557.059570312 52.869140625 c 0
 514.168945312 16.9541015625 454.01953125 0.07421875 378.3828125 0.07421875 c 2
 64.462890625 0.07421875 l 1
 64.462890625 691.274414062 l 1
 365.90234375 691.274414062 l 2
 442.689453125 691.274414062 503.47265625 675.138671875 546.716796875 640.612304688 c 0
 590.215820312 605.883789062 611.663085938 555.375976562 611.663085938 492.553710938 c 0
 611.663085938 462.09765625 602.741210938 398.7578125 535.145507812 356.038085938 c 1xf8
457.102539062 484.873046875 m 0xf8
 457.102539062 514.40625 448.448242188 553.033203125 371.663085938 553.033203125 c 2
 219.022460938 553.033203125 l 1
 219.022460938 420.552734375 l 1
 366.862304688 420.552734375 l 2
 452.209960938 420.552734375 457.102539062 461.74609375 457.102539062 484.873046875 c 0xf8
380.302734375 138.313476562 m 2
 455.221679688 138.313476562 467.663085938 176.620117188 467.663085938 213.193359375 c 0xf4
 467.663085938 240.341796875 460.647460938 282.313476562 375.502929688 282.313476562 c 2
 219.022460938 282.313476562 l 1
 219.022460938 138.313476562 l 1
 380.302734375 138.313476562 l 2
EndSplineSet
EndChar

StartChar: C
Encoding: 67 67 38
Width: 675
GlyphClass: 2
Flags: MW
HStem: -10.4863 142.08<314.127 380.171 314.127 399.384> 564.554 139.2<317.39 379.169>
VStem: 60.623 155.52<294.793 296.714 296.714 391.754 236.295 398.473 236.295 447.972> 484.942 153.601<234.314 253.514 196.205 253.514>
LayerCount: 2
Fore
SplineSet
216.142578125 296.713867188 m 2
 216.142578125 175.876953125 269.072265625 131.59375 359.182617188 131.59375 c 0
 401.159179688 131.59375 431.858398438 141.467773438 453.102539062 159.401367188 c 0
 474.251953125 177.255859375 484.942382812 201.211914062 484.942382812 234.314453125 c 2
 484.942382812 253.513671875 l 1
 638.54296875 253.513671875 l 1
 638.54296875 234.314453125 l 2
 638.54296875 158.095703125 613.009765625 96.71875 561.396484375 53.3642578125 c 0
 510.1484375 10.3154296875 441.505859375 -10.486328125 357.262695312 -10.486328125 c 0
 265.70703125 -10.486328125 192.241210938 14.71875 139.341796875 66.59375 c 0
 86.0908203125 118.814453125 60.623046875 195.813476562 60.623046875 294.79296875 c 2
 60.623046875 398.47265625 l 2
 60.623046875 497.470703125 86.26953125 574.494140625 139.856445312 626.70703125 c 0
 193.061523438 678.547851562 266.663085938 703.75390625 358.22265625 703.75390625 c 0
 441.833984375 703.75390625 510.268554688 683.106445312 561.795898438 640.451171875 c 0
 613.67578125 597.502929688 639.502929688 537.239257812 639.502929688 462.793945312 c 2
 639.502929688 440.713867188 l 1
 484.942382812 440.713867188 l 1
 484.942382812 458.954101562 l 2
 484.942382812 492.711914062 474.06640625 517.366210938 452.52734375 535.8671875 c 0
 430.91796875 554.4296875 400.115234375 564.553710938 358.22265625 564.553710938 c 0
 276.557617188 564.553710938 216.142578125 527.133789062 216.142578125 391.75390625 c 2
 216.142578125 296.713867188 l 2
EndSplineSet
EndChar

StartChar: D
Encoding: 68 68 39
Width: 664
GlyphClass: 2
Flags: MW
HStem: 0.0742188 138.241<219.021 332.302> 553.035 138.239<219.021 336.141 219.021 219.021>
VStem: 64.4619 154.559<138.315 553.035 138.315 691.274 138.315 691.274> 474.381 154.56<305.354 380.235 380.235 386.955 254.958 412.081>
LayerCount: 2
Fore
SplineSet
628.940429688 386.955078125 m 2
 628.940429688 305.354492188 l 2
 628.940429688 204.561523438 603.7265625 127.018554688 550.630859375 75.6455078125 c 0
 497.99609375 24.7197265625 424.407226562 0.07421875 332.301757812 0.07421875 c 2
 64.4619140625 0.07421875 l 1
 64.4619140625 691.274414062 l 1
 337.100585938 691.274414062 l 2
 427.946289062 691.274414062 500.459960938 666.76953125 552.137695312 616.118164062 c 0
 604.262695312 565.028320312 628.940429688 487.689453125 628.940429688 386.955078125 c 2
336.140625 138.315429688 m 2
 385.391601562 138.315429688 418.959960938 151.94140625 440.404296875 176.959960938 c 0
 461.958984375 202.107421875 474.380859375 244.311523438 474.380859375 305.354492188 c 2
 474.380859375 380.235351562 l 2
 474.380859375 443.926757812 461.87890625 487.826171875 440.303710938 513.549804688 c 0
 418.817382812 539.168945312 385.315429688 553.03515625 336.140625 553.03515625 c 2
 219.020507812 553.03515625 l 1
 219.020507812 138.315429688 l 1
 336.140625 138.315429688 l 2
EndSplineSet
EndChar

StartChar: E
Encoding: 69 69 40
Width: 591
GlyphClass: 2
Flags: MW
HStem: 0.0742188 138.24<219.021 566.542 219.021 566.542> 279.434 138.24<219.021 517.582 219.021 517.582> 553.034 138.24<219.021 566.542 219.021 219.021>
VStem: 64.4619 154.56<138.314 138.314 138.314 279.434 417.674 553.034>
LayerCount: 2
Fore
SplineSet
219.021484375 138.314453125 m 1
 566.541992188 138.314453125 l 1
 566.541992188 0.07421875 l 1
 64.4619140625 0.07421875 l 1
 64.4619140625 691.274414062 l 1
 566.541992188 691.274414062 l 1
 566.541992188 553.034179688 l 1
 219.021484375 553.034179688 l 1
 219.021484375 417.673828125 l 1
 517.58203125 417.673828125 l 1
 517.58203125 279.43359375 l 1
 219.021484375 279.43359375 l 1
 219.021484375 138.314453125 l 1
EndSplineSet
EndChar

StartChar: F
Encoding: 70 70 41
Width: 586
GlyphClass: 2
Flags: MW
HStem: 0.0742188 21G<64.4619 219.021 64.4619 64.4619> 273.674 138.24<219.021 519.502 219.021 519.502> 553.034 138.24<219.021 566.542 219.021 219.021>
VStem: 64.4619 154.56<0.0742188 273.674 0.0742188 411.914 411.914 553.034>
LayerCount: 2
Fore
SplineSet
219.021484375 273.673828125 m 1
 219.021484375 0.07421875 l 1
 64.4619140625 0.07421875 l 1
 64.4619140625 691.274414062 l 1
 566.541992188 691.274414062 l 1
 566.541992188 553.034179688 l 1
 219.021484375 553.034179688 l 1
 219.021484375 411.9140625 l 1
 519.501953125 411.9140625 l 1
 519.501953125 273.673828125 l 1
 219.021484375 273.673828125 l 1
EndSplineSet
EndChar

StartChar: G
Encoding: 71 71 42
Width: 675
GlyphClass: 2
Flags: MW
HStem: -10.4863 142.079<312.124 400.069> 251.593 132.48<340.941 485.901 340.941 639.502> 564.553 139.2<315.331 377.535 312.442 379.168>
VStem: 60.6221 155.52<294.792 297.673 297.673 392.713 237.597 398.472 237.597 447.971> 485.901 153.601<241.993 251.593 251.593 251.593>
LayerCount: 2
Fore
SplineSet
359.181640625 131.592773438 m 0
 452.03515625 131.592773438 485.901367188 171.513671875 485.901367188 241.993164062 c 2
 485.901367188 251.592773438 l 1
 340.94140625 251.592773438 l 1
 340.94140625 384.073242188 l 1
 639.501953125 384.073242188 l 1
 639.501953125 260.233398438 l 2
 639.501953125 171.897460938 614.754882812 103.05859375 563.165039062 57.0087890625 c 0
 512.1953125 11.513671875 442.876953125 -10.486328125 357.26171875 -10.486328125 c 0
 266.31640625 -10.486328125 193.038085938 14.7421875 139.85546875 66.5615234375 c 0
 86.2685546875 118.774414062 60.6220703125 195.793945312 60.6220703125 294.791992188 c 2
 60.6220703125 398.471679688 l 2
 60.6220703125 497.470703125 86.2685546875 574.493164062 139.85546875 626.706054688 c 0
 193.060546875 678.546875 266.662109375 703.752929688 358.221679688 703.752929688 c 0
 396.84765625 703.752929688 534.387695312 700.541015625 604.05859375 593.513671875 c 0
 627.810546875 557.026367188 639.501953125 514.09375 639.501953125 465.672851562 c 2
 639.501953125 443.592773438 l 1
 484.94140625 443.592773438 l 1
 484.94140625 461.833007812 l 2
 484.94140625 493.43359375 474.2578125 517.200195312 452.526367188 535.866210938 c 0
 430.916992188 554.428710938 400.114257812 564.552734375 358.221679688 564.552734375 c 0
 272.440429688 564.552734375 216.141601562 523.583984375 216.141601562 392.712890625 c 2
 216.141601562 297.672851562 l 2
 216.141601562 177.521484375 265.06640625 131.592773438 359.181640625 131.592773438 c 0
EndSplineSet
EndChar

StartChar: H
Encoding: 72 72 43
Width: 673
GlyphClass: 2
Flags: MW
HStem: 0.0742188 21G<64.4619 219.021 64.4619 64.4619 469.582 624.142 469.582 469.582> 280.394 138.24<219.021 469.582 219.021 469.582> 671.274 20G<64.4619 219.021 219.021 219.021 469.582 624.142 624.142 624.142>
VStem: 64.4619 154.56<0.0742188 280.394 0.0742188 418.634 418.634 691.274> 469.582 154.56<0.0742188 280.394 280.394 280.394 418.634 691.274 0.0742188 691.274>
LayerCount: 2
Fore
SplineSet
624.141601562 691.274414062 m 1
 624.141601562 0.07421875 l 1
 469.58203125 0.07421875 l 1
 469.58203125 280.393554688 l 1
 219.021484375 280.393554688 l 1
 219.021484375 0.07421875 l 1
 64.4619140625 0.07421875 l 1
 64.4619140625 691.274414062 l 1
 219.021484375 691.274414062 l 1
 219.021484375 418.633789062 l 1
 469.58203125 418.633789062 l 1
 469.58203125 691.274414062 l 1
 624.141601562 691.274414062 l 1
EndSplineSet
EndChar

StartChar: I
Encoding: 73 73 44
Width: 275
GlyphClass: 2
Flags: MW
HStem: 0.0742188 21G<70.2217 224.782 70.2217 70.2217> 671.274 20G<70.2217 224.782 224.782 224.782>
VStem: 70.2217 154.561<0.0742188 691.274 0.0742188 691.274>
LayerCount: 2
Fore
SplineSet
70.2216796875 691.274414062 m 1
 224.782226562 691.274414062 l 1
 224.782226562 0.07421875 l 1
 70.2216796875 0.07421875 l 1
 70.2216796875 691.274414062 l 1
EndSplineSet
EndChar

StartChar: J
Encoding: 74 74 45
Width: 373
GlyphClass: 2
Flags: MW
HStem: 0.0742188 139.2<30.8623 103.822 103.822 117.883 30.8623 136.462 30.8623 103.822> 671.274 20G<166.222 321.742 321.742 321.742>
VStem: 166.222 155.521<201.674 691.274>
LayerCount: 2
Fore
SplineSet
321.7421875 180.553710938 m 2
 321.7421875 100.044921875 290.69140625 0.07421875 136.461914062 0.07421875 c 2
 30.8623046875 0.07421875 l 1
 30.8623046875 139.274414062 l 1
 103.822265625 139.274414062 l 2
 131.943359375 139.274414062 147.681640625 145.227539062 153.973632812 151.704101562 c 0
 160.501953125 158.424804688 166.221679688 174.254882812 166.221679688 201.673828125 c 2
 166.221679688 691.274414062 l 1
 321.7421875 691.274414062 l 1
 321.7421875 180.553710938 l 2
EndSplineSet
EndChar

StartChar: K
Encoding: 75 75 46
Width: 680
GlyphClass: 2
Flags: MW
HStem: 0.0742188 21G<64.4619 219.021 64.4619 64.4619 506.873 694.374 506.873 506.873> 671.274 20G<64.4619 219.021 219.021 219.021 480.344 681.061 681.061 681.061>
VStem: 64.4619 154.56<0.0742188 193.144 393.509 691.274>
LayerCount: 2
Fore
SplineSet
506.873046875 0.07421875 m 1
 314.909179688 296.407226562 l 1
 219.021484375 193.143554688 l 1
 219.021484375 0.07421875 l 1
 64.4619140625 0.07421875 l 1
 64.4619140625 691.274414062 l 1
 219.021484375 691.274414062 l 1
 219.021484375 393.508789062 l 1
 480.34375 691.274414062 l 1
 681.060546875 691.274414062 l 1
 419.72265625 408.581054688 l 1
 694.374023438 0.07421875 l 1
 506.873046875 0.07421875 l 1
EndSplineSet
EndChar

StartChar: L
Encoding: 76 76 47
Width: 575
GlyphClass: 2
Flags: MW
HStem: 0.0742188 138.24<219.021 560.782 219.021 560.782> 671.274 20G<64.4619 219.021 219.021 219.021>
VStem: 64.4619 154.56<138.314 691.274 138.314 691.274 138.314 691.274>
LayerCount: 2
Fore
SplineSet
64.4619140625 691.274414062 m 1
 219.021484375 691.274414062 l 1
 219.021484375 138.314453125 l 1
 560.782226562 138.314453125 l 1
 560.782226562 0.07421875 l 1
 64.4619140625 0.07421875 l 1
 64.4619140625 691.274414062 l 1
EndSplineSet
EndChar

StartChar: M
Encoding: 77 77 48
Width: 806
GlyphClass: 2
Flags: MW
HStem: 0.0742188 21G<64.4619 219.021 64.4619 64.4619 602.062 756.622 602.062 602.062> 671.274 20G<64.4619 213.16 213.16 213.16 607.866 756.622 756.622 756.622>
VStem: 64.4619 154.56<0.0742188 381.709 0.0742188 691.274> 602.062 154.561<0.0742188 378.453 378.453 378.453>
LayerCount: 2
Fore
SplineSet
756.622070312 691.274414062 m 1
 756.622070312 0.07421875 l 1
 602.061523438 0.07421875 l 1
 602.061523438 378.453125 l 1
 462.692382812 127.75390625 l 1
 361.302734375 127.75390625 l 1
 219.021484375 381.708984375 l 1
 219.021484375 0.07421875 l 1
 64.4619140625 0.07421875 l 1
 64.4619140625 691.274414062 l 1
 213.16015625 691.274414062 l 1
 411.893554688 327.850585938 l 1
 607.866210938 691.274414062 l 1
 756.622070312 691.274414062 l 1
EndSplineSet
EndChar

StartChar: N
Encoding: 78 78 49
Width: 700
GlyphClass: 2
Flags: MW
HStem: 0.0742188 21G<64.4619 219.021 64.4619 64.4619 503.354 651.021 503.354 503.354> 671.274 20G<64.4619 212.14 212.14 212.14 496.462 651.021 651.021 651.021>
VStem: 64.4619 154.56<0.0742188 407.408 0.0742188 691.274> 496.462 154.56<283.062 691.274 0.0742188 691.274>
LayerCount: 2
Fore
SplineSet
651.021484375 691.274414062 m 1
 651.021484375 0.07421875 l 1
 503.353515625 0.07421875 l 1
 219.021484375 407.408203125 l 1
 219.021484375 0.07421875 l 1
 64.4619140625 0.07421875 l 1
 64.4619140625 691.274414062 l 1
 212.139648438 691.274414062 l 1
 496.461914062 283.061523438 l 1
 496.461914062 691.274414062 l 1
 651.021484375 691.274414062 l 1
EndSplineSet
EndChar

StartChar: O
Encoding: 79 79 50
Width: 675
GlyphClass: 2
Flags: MW
HStem: -10.4863 142.079<313.306 382.077 313.306 391.918> 564.553 139.202<315.22 380.479>
VStem: 60.6211 155.519<294.794 296.713 296.713 391.753 230.863 398.474 230.863 447.945> 484.94 154.562<296.713 391.753 391.753 398.474 245.61 467.885>
LayerCount: 2
Fore
SplineSet
60.62109375 294.793945312 m 2
 60.62109375 398.473632812 l 2
 60.62109375 497.416992188 85.734375 574.373046875 138.314453125 626.608398438 c 0
 190.5078125 678.461914062 262.404296875 703.754882812 351.500976562 703.754882812 c 0
 439.37109375 703.754882812 510.481445312 678.416015625 562.322265625 626.575195312 c 0
 614.565429688 574.33203125 639.501953125 497.3984375 639.501953125 398.473632812 c 2
 639.501953125 294.793945312 l 2
 639.501953125 196.42578125 614.0078125 119.61328125 560.815429688 67.107421875 c 0
 508.038085938 15.01171875 436.173828125 -10.486328125 347.662109375 -10.486328125 c 0
 259.1875 -10.486328125 188.0234375 14.828125 136.7734375 66.76171875 c 0
 85.2041015625 119.01953125 60.62109375 195.90625 60.62109375 294.793945312 c 2
351.500976562 131.592773438 m 0
 412.65234375 131.592773438 484.940429688 153.946289062 484.940429688 296.712890625 c 2
 484.940429688 391.752929688 l 2
 484.940429688 544.016601562 409.456054688 564.552734375 351.500976562 564.552734375 c 0
 278.939453125 564.552734375 216.139648438 533.36328125 216.139648438 391.752929688 c 2
 216.139648438 296.712890625 l 2
 216.139648438 165.012695312 275.111328125 131.592773438 351.500976562 131.592773438 c 0
EndSplineSet
EndChar

StartChar: P
Encoding: 80 80 51
Width: 631
GlyphClass: 2
Flags: MW
HStem: 0.0742188 21G<64.4619 219.021 64.4619 64.4619> 251.594 139.2<219.021 360.142 219.021 369.742> 553.034 138.24<219.021 364.941 364.941 369.742 219.021 219.021>
VStem: 64.4619 154.56<0.0742188 251.594 0.0742188 390.794 390.794 553.034> 461.901 154.561<450.74 482.804>
LayerCount: 2
Fore
SplineSet
616.461914062 469.513671875 m 0
 616.461914062 402.26953125 593.9921875 347.671875 548.53125 308.805664062 c 0
 503.125 269.985351562 439.703125 251.59375 360.141601562 251.59375 c 2
 219.021484375 251.59375 l 1
 219.021484375 0.07421875 l 1
 64.4619140625 0.07421875 l 1
 64.4619140625 691.274414062 l 1
 364.94140625 691.274414062 l 2
 441.434570312 691.274414062 503.255859375 672.770507812 548.53125 634.0625 c 0
 594.137695312 595.0703125 616.461914062 539.146484375 616.461914062 469.513671875 c 0
369.7421875 390.793945312 m 2
 448.12890625 390.793945312 461.901367188 431.006835938 461.901367188 470.473632812 c 0
 461.901367188 495.134765625 458.5390625 553.034179688 369.7421875 553.034179688 c 2
 219.021484375 553.034179688 l 1
 219.021484375 390.793945312 l 1
 369.7421875 390.793945312 l 2
EndSplineSet
EndChar

StartChar: Q
Encoding: 81 81 52
Width: 675
GlyphClass: 2
Flags: MW
HStem: -10.4873 142.08<313.307 360.801> 564.553 139.202<315.221 380.479>
VStem: 60.6211 155.52<294.794 296.713 296.713 391.753 230.863 398.474 230.863 447.945> 484.941 154.561<296.713 391.753 391.753 398.474 242.263 467.885>
LayerCount: 2
Fore
SplineSet
347.661132812 -10.4873046875 m 0
 259.186523438 -10.4873046875 188.022460938 14.8271484375 136.772460938 66.7607421875 c 0
 85.203125 119.018554688 60.62109375 195.90625 60.62109375 294.793945312 c 2
 60.62109375 398.473632812 l 2
 60.62109375 497.416992188 85.734375 574.373046875 138.314453125 626.608398438 c 0
 190.5078125 678.461914062 262.404296875 703.754882812 351.500976562 703.754882812 c 0
 439.37109375 703.754882812 510.481445312 678.416015625 562.322265625 626.575195312 c 0
 614.565429688 574.33203125 639.501953125 497.3984375 639.501953125 398.473632812 c 2
 639.501953125 294.793945312 l 2
 639.501953125 189.731445312 609.420898438 108.643554688 547.442382812 55.0703125 c 1
 624.448242188 -86.2724609375 l 1
 503.224609375 -152.946289062 l 1
 421.762695312 -3.7626953125 l 1
 398.646484375 -8.2666015625 373.94140625 -10.4873046875 347.661132812 -10.4873046875 c 0
216.140625 296.712890625 m 2
 216.140625 165.012695312 275.112304688 131.592773438 351.501953125 131.592773438 c 0
 412.653320312 131.592773438 484.94140625 153.946289062 484.94140625 296.712890625 c 2
 484.94140625 391.752929688 l 2
 484.94140625 544.016601562 409.45703125 564.552734375 351.501953125 564.552734375 c 0
 278.940429688 564.552734375 216.140625 533.36328125 216.140625 391.752929688 c 2
 216.140625 296.712890625 l 2
EndSplineSet
EndChar

StartChar: R
Encoding: 82 82 53
Width: 666
GlyphClass: 2
Flags: MW
HStem: 0.0742188 21G<472.641 656.204 472.641 472.641> 260.233 136.319<219.021 237.131> 553.033 138.24<219.021 366.862 366.862 370.702 219.021 219.021>
VStem: 64.4619 154.56<0.0732422 260.233 0.0732422 396.553 396.553 553.033> 461.901 153.601<455.826 489.195>
LayerCount: 2
Fore
SplineSet
615.501953125 475.2734375 m 0
 615.501953125 430.069335938 606.70703125 328.72265625 488.057617188 282.284179688 c 1
 656.204101562 0.07421875 l 1
 472.640625 0.07421875 l 1
 327.680664062 260.234375 l 1
 291.4609375 260.234375 255.241210938 260.233398438 219.021484375 260.233398438 c 1
 219.021484375 0.0732421875 l 1
 64.4619140625 0.0732421875 l 1
 64.4619140625 691.2734375 l 1
 366.862304688 691.2734375 l 2
 441.423828125 691.2734375 502.166992188 673.416992188 547.373046875 636.1484375 c 0
 593.094726562 598.455078125 615.501953125 543.697265625 615.501953125 475.2734375 c 0
370.702148438 396.552734375 m 2
 448.389648438 396.552734375 461.901367188 436.377929688 461.901367188 475.2734375 c 0
 461.901367188 503.116210938 453.83203125 521.259765625 439.290039062 533.294921875 c 0
 424.1328125 545.838867188 401.84765625 553.033203125 370.702148438 553.033203125 c 2
 219.021484375 553.033203125 l 1
 219.021484375 396.552734375 l 1
 370.702148438 396.552734375 l 2
EndSplineSet
EndChar

StartChar: S
Encoding: 83 83 54
Width: 611
GlyphClass: 2
Flags: MW
HStem: -5.68555 136.322<268.894 352.499> 566.474 134.401<284.104 354.471 276.19 367.086>
VStem: 51.0205 150.722<483.684 519.671> 437.901 152.641<194.285 216.935>
LayerCount: 2
Fore
SplineSet
313.1015625 566.473632812 m 0
 255.107421875 566.473632812 201.7421875 551.501953125 201.7421875 496.393554688 c 0
 201.7421875 470.973632812 209.7890625 438.260742188 306.368164062 426.188476562 c 2
 386.05078125 415.627929688 l 2
 454.766601562 406.512695312 590.541992188 373.619140625 590.541992188 215.114257812 c 0
 590.541992188 144.958007812 564.952148438 88.8837890625 513.729492188 50.466796875 c 0
 463.052734375 12.458984375 394.775390625 -5.685546875 310.221679688 -5.685546875 c 0
 227.565429688 -5.685546875 161.629882812 12.462890625 114.006835938 50.7685546875 c 0
 42.8955078125 107.966796875 36.87109375 187.03515625 33.5615234375 230.4765625 c 1
 181.78515625 230.4765625 l 1
 187.463867188 185.861328125 194.493164062 130.63671875 316.940429688 130.63671875 c 0
 434.654296875 130.63671875 437.901367188 183.053710938 437.901367188 205.516601562 c 0
 437.901367188 228.353515625 430.665039062 243.336914062 416.662109375 254.087890625 c 0
 402.264648438 265.142578125 375.227539062 273.665039062 335.520507812 278.560546875 c 2
 265.236328125 287.225585938 l 2
 198.598632812 295.475585938 51.0205078125 324.475585938 51.0205078125 486.794921875 c 0
 51.0205078125 552.547851562 75.3447265625 606.158203125 123.684570312 644.484375 c 0
 171.782226562 682.618164062 236.399414062 700.875 315.981445312 700.875 c 0
 392.959960938 700.875 455.055664062 683.456054688 500.66796875 646.828125 c 0
 568.881835938 592.05078125 574.905273438 516.76171875 578.30078125 474.315429688 c 1
 428.447265625 474.315429688 l 1
 425.025390625 517.078125 421.071289062 566.473632812 313.1015625 566.473632812 c 0
EndSplineSet
EndChar

StartChar: T
Encoding: 84 84 55
Width: 562
GlyphClass: 2
Flags: MW
HStem: 0.0742188 21G<212.302 366.862 212.302 212.302> 553.034 138.24<13.582 212.302 13.582 565.582 366.862 366.862 366.862 565.582>
VStem: 212.302 154.561<0.0742188 553.034 0.0742188 553.034>
LayerCount: 2
Fore
SplineSet
212.301757812 553.034179688 m 1
 13.58203125 553.034179688 l 1
 13.58203125 691.274414062 l 1
 565.58203125 691.274414062 l 1
 565.58203125 553.034179688 l 1
 366.862304688 553.034179688 l 1
 366.862304688 0.07421875 l 1
 212.301757812 0.07421875 l 1
 212.301757812 553.034179688 l 1
EndSplineSet
EndChar

StartChar: U
Encoding: 85 85 56
Width: 678
GlyphClass: 2
Flags: MW
HStem: -5.68555 138.237<287.048 374.791 287.048 431.244> 671.273 20G<64.4629 219.022 219.022 219.022 474.382 628.941 628.941 628.941>
VStem: 64.4629 154.56<252.553 256.394 256.394 691.273> 474.382 154.56<256.394 691.273>
LayerCount: 2
Fore
SplineSet
345.7421875 -5.685546875 m 0
 176.747070312 -5.685546875 64.462890625 94.984375 64.462890625 252.552734375 c 2
 64.462890625 691.2734375 l 1
 219.022460938 691.2734375 l 1
 219.022460938 256.393554688 l 2
 219.022460938 216.407226562 228.353515625 132.551757812 345.7421875 132.551757812 c 0
 403.83984375 132.551757812 474.381835938 153.698242188 474.381835938 256.393554688 c 2
 474.381835938 691.2734375 l 1
 628.94140625 691.2734375 l 1
 628.94140625 252.552734375 l 2
 628.94140625 94.8271484375 516.745117188 -5.685546875 345.7421875 -5.685546875 c 0
EndSplineSet
EndChar

StartChar: V
Encoding: 86 86 57
Width: 626
GlyphClass: 2
Flags: MW
HStem: 0.0742188 21G<259.855 380.721 259.855 259.855> 671.274 20G<5.41309 170.817 170.817 170.817 471.726 637.166 637.166 637.166>
LayerCount: 2
Fore
SplineSet
5.4130859375 691.274414062 m 1
 170.817382812 691.274414062 l 1
 320.822265625 244.8515625 l 1
 471.725585938 691.274414062 l 1
 637.166015625 691.274414062 l 1
 380.720703125 0.07421875 l 1
 259.85546875 0.07421875 l 1
 5.4130859375 691.274414062 l 1
EndSplineSet
EndChar

StartChar: W
Encoding: 87 87 58
Width: 929
GlyphClass: 2
Flags: MW
HStem: 0.0742188 21G<206.265 342.26 206.265 206.265 605.523 742.59 605.523 605.523> 671.274 20G<6.91895 165.846 165.846 165.846 385.262 563.243 563.243 563.243 781.676 935.925 935.925 935.925>
LayerCount: 2
Fore
SplineSet
605.5234375 0.07421875 m 1
 474.334960938 470.756835938 l 1
 342.259765625 0.07421875 l 1
 206.264648438 0.07421875 l 1
 6.9189453125 691.274414062 l 1
 165.845703125 691.274414062 l 1
 279.907226562 251.571289062 l 1
 385.26171875 691.274414062 l 1
 563.243164062 691.274414062 l 1
 678.986328125 251.797851562 l 1
 781.67578125 691.274414062 l 1
 935.924804688 691.274414062 l 1
 742.58984375 0.07421875 l 1
 605.5234375 0.07421875 l 1
EndSplineSet
EndChar

StartChar: X
Encoding: 88 88 59
Width: 668
GlyphClass: 2
Flags: MW
HStem: 0.0742188 21G<-1.49316 -1.49316 -1.49316 185.615 495.484 495.484 495.484 685.224> 671.274 20G<15.7812 205.579 205.579 205.579 474.096 661.314 661.314 661.314>
LayerCount: 2
Fore
SplineSet
-1.4931640625 0.07421875 m 1
 247.561523438 358.15234375 l 1
 15.78125 691.274414062 l 1
 205.579101562 691.274414062 l 1
 344.373046875 484.443359375 l 1
 474.095703125 691.274414062 l 1
 661.314453125 691.274414062 l 1
 433.350585938 363.890625 l 1
 685.223632812 0.07421875 l 1
 495.484375 0.07421875 l 1
 337.350585938 236.817382812 l 1
 185.615234375 0.07421875 l 1
 -1.4931640625 0.07421875 l 1
EndSplineSet
EndChar

StartChar: Y
Encoding: 89 89 60
Width: 611
GlyphClass: 2
Flags: MW
HStem: 0.0742188 21G<237.262 391.822 237.262 237.262> 671.274 20G<1.08789 176.84 176.84 176.84 451.284 627.013 627.013 627.013>
VStem: 237.262 154.561<0.0742188 283.247 283.247 283.247>
LayerCount: 2
Fore
SplineSet
451.284179688 691.274414062 m 1
 627.012695312 691.274414062 l 1
 391.822265625 284.212890625 l 1
 391.822265625 0.07421875 l 1
 237.26171875 0.07421875 l 1
 237.26171875 283.247070312 l 1
 1.087890625 691.274414062 l 1
 176.83984375 691.274414062 l 1
 314.061523438 430.37109375 l 1
 451.284179688 691.274414062 l 1
EndSplineSet
EndChar

StartChar: Z
Encoding: 90 90 61
Width: 566
GlyphClass: 2
Flags: MW
HStem: 0.0742188 139.2<224.643 549.262 224.643 549.262> 553.034 138.24<43.3418 352.552 43.3418 539.662>
LayerCount: 2
Fore
SplineSet
549.26171875 139.274414062 m 1
 549.26171875 0.07421875 l 1
 36.6220703125 0.07421875 l 1
 36.6220703125 129.651367188 l 1
 352.551757812 553.034179688 l 1
 43.341796875 553.034179688 l 1
 43.341796875 691.274414062 l 1
 539.662109375 691.274414062 l 1
 539.662109375 562.66796875 l 1
 224.642578125 139.274414062 l 1
 549.26171875 139.274414062 l 1
EndSplineSet
EndChar

StartChar: bracketleft
Encoding: 91 91 62
Width: 352
GlyphClass: 2
Flags: MW
HStem: -80.5664 139.2<212.302 320.782 212.302 320.782> 601.034 139.2<212.302 320.782 212.302 212.302>
VStem: 64.4619 147.84<58.6338 601.034 58.6338 740.234 58.6338 740.234> 64.4619 256.32<-80.5664 58.6338 601.034 740.234>
LayerCount: 2
Fore
SplineSet
64.4619140625 740.234375 m 1xd0
 320.782226562 740.234375 l 1
 320.782226562 601.034179688 l 1xd0
 212.301757812 601.034179688 l 1
 212.301757812 58.6337890625 l 1xe0
 320.782226562 58.6337890625 l 1
 320.782226562 -80.56640625 l 1
 64.4619140625 -80.56640625 l 1
 64.4619140625 740.234375 l 1xd0
EndSplineSet
Substitution2: "'rtla' Right to Left Alternates lookup 0 subtable" bracketright
EndChar

StartChar: backslash
Encoding: 92 92 63
Width: 453
GlyphClass: 2
Flags: MW
HStem: -9.52637 21G<296.207 426.609 296.207 296.207> 676.074 20G<45.9941 176.396 176.396 176.396>
LayerCount: 2
Fore
SplineSet
45.994140625 696.07421875 m 1
 176.396484375 696.07421875 l 1
 426.609375 -9.5263671875 l 1
 296.20703125 -9.5263671875 l 1
 45.994140625 696.07421875 l 1
EndSplineSet
EndChar

StartChar: bracketright
Encoding: 93 93 64
Width: 354
GlyphClass: 2
Flags: MW
HStem: -80.5664 139.2<51.9814 160.462 51.9814 308.302 51.9814 160.462> 600.074 138.24<51.9814 160.462 51.9814 308.302>
VStem: 51.9814 256.32<-80.5664 58.6338 58.6338 58.6338 600.074 738.314 -80.5664 738.314> 160.462 147.84<58.6338 600.074 600.074 600.074>
LayerCount: 2
Fore
SplineSet
160.461914062 600.07421875 m 1xd0
 51.9814453125 600.07421875 l 1
 51.9814453125 738.314453125 l 1
 308.301757812 738.314453125 l 1
 308.301757812 -80.56640625 l 1
 51.9814453125 -80.56640625 l 1
 51.9814453125 58.6337890625 l 1xe0
 160.461914062 58.6337890625 l 1
 160.461914062 600.07421875 l 1xd0
EndSplineSet
Substitution2: "'rtla' Right to Left Alternates lookup 0 subtable" bracketleft
EndChar

StartChar: asciicircum
Encoding: 94 94 65
Width: 535
GlyphClass: 2
Flags: MW
HStem: 676.074 20G<215.998 335.325 335.325 335.325>
LayerCount: 2
Fore
SplineSet
215.998046875 696.07421875 m 1
 335.325195312 696.07421875 l 1
 510.072265625 260.234375 l 1
 380.072265625 260.234375 l 1
 275.662109375 526.962890625 l 1
 171.251953125 260.234375 l 1
 41.2509765625 260.234375 l 1
 215.998046875 696.07421875 l 1
EndSplineSet
EndChar

StartChar: underscore
Encoding: 95 95 66
Width: 568
GlyphClass: 2
Flags: MW
HStem: -116.086 106.56<7.82227 577.102 7.82227 577.102>
LayerCount: 2
Fore
SplineSet
7.822265625 -9.5263671875 m 1
 577.1015625 -9.5263671875 l 1
 577.1015625 -116.0859375 l 1
 7.822265625 -116.0859375 l 1
 7.822265625 -9.5263671875 l 1
EndSplineSet
EndChar

StartChar: grave
Encoding: 96 96 67
Width: 507
GlyphClass: 2
Flags: MW
HStem: 564.554 156.48<24.4043 383.198 24.4043 231.476>
LayerCount: 2
Fore
SplineSet
24.404296875 721.034179688 m 1
 227.89453125 721.034179688 l 1
 383.198242188 564.553710938 l 1
 231.475585938 564.553710938 l 1
 24.404296875 721.034179688 l 1
EndSplineSet
EndChar

StartChar: a
Encoding: 97 97 68
Width: 559
GlyphClass: 2
Flags: MW
HStem: -5.68555 123.839<242.378 273.192> 213.193 110.4<249.742 271.821 271.821 368.781> 413.834 120<269.303 317.008 247.779 317.75>
VStem: 43.3418 143.999<149.076 173.893 149.076 191.897> 368.781 146.88<196.873 213.193 213.193 213.193>
LayerCount: 2
Fore
SplineSet
277.58203125 413.833984375 m 0
 261.024414062 413.833984375 200.782226562 413.421875 200.782226562 366.793945312 c 2
 200.782226562 349.513671875 l 1
 58.7021484375 349.513671875 l 1
 58.7021484375 366.793945312 l 2
 58.7021484375 418.27734375 79.806640625 460.501953125 120.810546875 490.291992188 c 0
 161.47265625 519.83203125 215.095703125 533.833984375 280.461914062 533.833984375 c 0
 353.553710938 533.833984375 411.794921875 517.421875 453.397460938 482.462890625 c 0
 495.235351562 447.305664062 515.661132812 396.44140625 515.661132812 333.193359375 c 2
 515.661132812 0.0732421875 l 1
 371.661132812 0.0732421875 l 1
 371.661132812 30.2529296875 l 1
 342.056640625 9.4248046875 305.283203125 -5.685546875 241.1015625 -5.685546875 c 0
 178.936523438 -5.685546875 129.553710938 8.1201171875 94.8828125 38.1455078125 c 0
 60.2236328125 68.1591796875 43.341796875 110.915039062 43.341796875 163.274414062 c 0
 43.341796875 220.520507812 68.505859375 323.59375 249.7421875 323.59375 c 2
 368.782226562 323.59375 l 1
 368.782226562 338.954101562 l 2
 368.782226562 373.048828125 357.916992188 413.833984375 277.58203125 413.833984375 c 0
267.020507812 118.153320312 m 0
 359.1640625 118.153320312 368.78125 164.131835938 368.78125 196.873046875 c 2
 368.78125 213.193359375 l 1
 271.821289062 213.193359375 l 2
 188.030273438 213.193359375 187.340820312 181.631835938 187.340820312 166.153320312 c 0
 187.340820312 131.999023438 217.735351562 118.153320312 267.020507812 118.153320312 c 0
EndSplineSet
EndChar

StartChar: b
Encoding: 98 98 69
Width: 576
GlyphClass: 2
Flags: MW
HStem: -8.56641 135.36<306.466 324.078 288.101 391.706> 0.0742188 21G<59.6621 204.622 59.6621 59.6621> 402.314 134.399<304.047 323.527> 671.274 20G<59.6621 207.502 207.502 207.502>
VStem: 59.6621 147.84<214.497 231.434 231.434 294.794 492.738 691.274> 393.742 147.841<241.034 292.874 292.874 298.634 158.551 339.942>
LayerCount: 2
Fore
SplineSet
207.501953125 492.73828125 m 1x7c
 235.387695312 516.39453125 275.791992188 536.713867188 332.302734375 536.713867188 c 0
 395.0234375 536.713867188 446.823242188 516.084960938 484.999023438 474.439453125 c 0
 523.416992188 432.528320312 541.583007812 373.1875 541.583007812 298.633789062 c 2
 541.583007812 236.234375 l 2
 541.583007812 80.8681640625 452.069335938 -8.56640625 331.341796875 -8.56640625 c 0xbc
 281.590820312 -8.56640625 238.872070312 4.84765625 204.622070312 31.80078125 c 1
 204.622070312 0.07421875 l 1
 59.662109375 0.07421875 l 1
 59.662109375 691.274414062 l 1
 207.501953125 691.274414062 l 1
 207.501953125 492.73828125 l 1x7c
303.501953125 126.793945312 m 0
 344.653320312 126.793945312 393.7421875 143.178710938 393.7421875 241.034179688 c 2
 393.7421875 292.874023438 l 2
 393.7421875 387.009765625 345.471679688 402.314453125 301.58203125 402.314453125 c 0
 237.026367188 402.314453125 207.501953125 358.681640625 207.501953125 294.793945312 c 2
 207.501953125 231.43359375 l 2
 207.501953125 197.560546875 216.540039062 172.583007812 233.431640625 154.329101562 c 0
 250.248046875 136.158203125 272.700195312 126.793945312 303.501953125 126.793945312 c 0
EndSplineSet
EndChar

StartChar: c
Encoding: 99 99 70
Width: 564
GlyphClass: 2
Flags: MW
HStem: -8.56641 135.36<281.615 313.981 281.615 329.561> 402.313 134.399<261.142 311.738>
VStem: 51.9814 146.881<235.273 236.233 236.233 292.873 215.398 294.793 215.398 333.181> 385.103 144.96<317.833 336.073 336.073 337.993 317.833 346.687>
LayerCount: 2
Fore
SplineSet
296.783203125 402.313476562 m 0
 225.500976562 402.313476562 198.862304688 364.530273438 198.862304688 292.873046875 c 2
 198.862304688 236.233398438 l 2
 198.862304688 194.5625 208.256835938 167.29296875 223.526367188 151.76953125 c 0
 239.12109375 135.915039062 263.568359375 126.793945312 299.662109375 126.793945312 c 0
 328.299804688 126.793945312 349.009765625 133.224609375 363.283203125 144.384765625 c 0
 377.39453125 155.416992188 384.141601562 169.327148438 384.141601562 189.194335938 c 2
 384.141601562 207.43359375 l 1
 529.1015625 207.43359375 l 1
 529.1015625 189.194335938 l 2
 529.1015625 128.79296875 507.892578125 79.2939453125 465.369140625 43.7421875 c 0
 422.967773438 8.2919921875 365.219726562 -8.56640625 293.901367188 -8.56640625 c 0
 220.240234375 -8.56640625 160.423828125 11.857421875 116.848632812 54.0498046875 c 0
 72.9638671875 96.541015625 51.9814453125 157.885742188 51.9814453125 235.2734375 c 2
 51.9814453125 294.79296875 l 2
 51.9814453125 371.568359375 72.9892578125 432.459960938 116.891601562 474.619140625 c 0
 160.474609375 516.47265625 220.265625 536.712890625 293.901367188 536.712890625 c 0
 365.83203125 536.712890625 423.900390625 519.87890625 466.330078125 484.405273438 c 0
 508.895507812 448.817382812 530.0625 398.984375 530.0625 337.993164062 c 2
 530.0625 317.833007812 l 1
 385.102539062 317.833007812 l 1
 385.102539062 336.073242188 l 2
 385.102539062 357.30078125 377.959960938 372.176757812 363.23046875 383.8046875 c 0
 348.33203125 395.567382812 326.693359375 402.313476562 296.783203125 402.313476562 c 0
EndSplineSet
EndChar

StartChar: d
Encoding: 100 100 71
Width: 576
GlyphClass: 2
Flags: MW
HStem: -8.56641 135.36<254.454 286.571> 0.0742188 21G<387.981 532.941 387.981 387.981> 402.314 134.399<259.412 284.092 239.321 337.299> 671.274 20G<386.062 532.941 532.941 532.941>
VStem: 51.9824 147.841<233.354 238.154 238.154 289.994 206.679 295.755 206.679 320.574> 386.062 146.88<494.281 691.274 0.0742188 691.274>
LayerCount: 2
Fore
SplineSet
51.982421875 233.354492188 m 2xbc
 51.982421875 295.754882812 l 2
 51.982421875 345.392578125 60.4033203125 388.543945312 77.87890625 424.865234375 c 0
 95.228515625 460.926757812 119.9140625 489.103515625 151.58984375 508.247070312 c 0
 183.1171875 527.302734375 219.299804688 536.713867188 259.341796875 536.713867188 c 0
 308.841796875 536.713867188 351.552734375 522.524414062 386.061523438 494.28125 c 1
 386.061523438 691.274414062 l 1
 532.94140625 691.274414062 l 1
 532.94140625 0.07421875 l 1
 387.981445312 0.07421875 l 1x7c
 387.981445312 32.8017578125 l 1
 354.677734375 5.1455078125 311.879882812 -8.56640625 261.26171875 -8.56640625 c 0
 199.068359375 -8.56640625 147.431640625 12.478515625 109.008789062 54.708984375 c 0
 70.2880859375 97.267578125 51.982421875 157.543945312 51.982421875 233.354492188 c 2xbc
199.823242188 238.154296875 m 2
 199.823242188 175.204101562 220.765625 126.793945312 288.142578125 126.793945312 c 0xbc
 319.7109375 126.793945312 342.723632812 136.1171875 359.806640625 154.012695312 c 0
 376.853515625 171.872070312 386.0625 196.899414062 386.0625 231.43359375 c 2
 386.0625 294.793945312 l 2
 386.0625 317.247070312 383.576171875 402.314453125 291.022460938 402.314453125 c 0
 227.801757812 402.314453125 199.823242188 363.482421875 199.823242188 289.994140625 c 2
 199.823242188 238.154296875 l 2
EndSplineSet
EndChar

StartChar: e
Encoding: 101 101 72
Width: 576
GlyphClass: 2
Flags: MW
HStem: -8.56641 132.48<267.773 315.487 267.773 335.924> 217.034 110.399<199.23 393.542 200.415 393.542 200.415 541.582> 406.154 130.56<268.871 312.555>
VStem: 51.9795 147.251<217.034 286.154 217.034 325.494>
LayerCount: 2
Fore
SplineSet
199.23046875 217.034179688 m 1
 202.538085938 163.0859375 228.205078125 123.9140625 307.340820312 123.9140625 c 0
 323.6328125 123.9140625 384.950195312 126.229492188 390.99609375 170.056640625 c 0
 391.08203125 171.083984375 391.08203125 171.083984375 395.838867188 185.354492188 c 1
 536.78125 185.354492188 l 1
 536.78125 164.70703125 l 2
 534.916015625 136.741210938 525.9609375 81.4833984375 467.092773438 37.9306640625 c 0
 424.594726562 6.4892578125 369.307617188 -8.56640625 302.541015625 -8.56640625 c 0
 226.327148438 -8.56640625 164.452148438 12.4892578125 119.28125 55.935546875 c 0
 73.7763671875 99.703125 51.9794921875 162.991210938 51.9794921875 242.954101562 c 2
 51.9794921875 286.154296875 l 2
 51.9794921875 364.833007812 73.28515625 427.52734375 117.6796875 471.57421875 c 0
 161.848632812 515.397460938 222.375976562 536.713867188 296.78125 536.713867188 c 0
 371.159179688 536.713867188 431.663085938 515.58203125 475.840820312 472.094726562 c 0
 520.223632812 428.405273438 541.58203125 366.491210938 541.58203125 289.034179688 c 2
 541.58203125 217.034179688 l 1
 199.23046875 217.034179688 l 1
296.78125 406.154296875 m 0
 240.9609375 406.154296875 208.594726562 382.690429688 200.415039062 327.43359375 c 1
 393.541992188 327.43359375 l 1
 392.1484375 353.606445312 383.47265625 371.612304688 368.638671875 384.090820312 c 0
 351.68359375 398.35546875 328.328125 406.154296875 296.78125 406.154296875 c 0
EndSplineSet
EndChar

StartChar: f
Encoding: 102 102 73
Width: 379
GlyphClass: 2
Flags: MW
HStem: 0.0742188 21G<109.582 256.462 109.582 109.582> 415.754 112.32<42.3818 109.582 42.3818 109.582 256.462 363.981> 581.834 109.44<294.661 305.422 305.422 363.981>
VStem: 109.582 146.88<0.0742188 415.754 0.0742188 415.754 528.074 533.834 533.834 538.634 0.0742188 552.961>
LayerCount: 2
Fore
SplineSet
109.58203125 533.833984375 m 2
 109.58203125 572.087890625 115.368164062 691.274414062 271.822265625 691.274414062 c 2
 363.981445312 691.274414062 l 1
 363.981445312 581.833984375 l 1
 305.421875 581.833984375 l 2
 283.899414062 581.833984375 271.600585938 577.229492188 266.284179688 572.267578125 c 0
 260.9375 567.276367188 256.461914062 557.14453125 256.461914062 538.633789062 c 2
 256.461914062 528.07421875 l 1
 363.981445312 528.07421875 l 1
 363.981445312 415.75390625 l 1
 256.461914062 415.75390625 l 1
 256.461914062 0.07421875 l 1
 109.58203125 0.07421875 l 1
 109.58203125 415.75390625 l 1
 42.3818359375 415.75390625 l 1
 42.3818359375 528.07421875 l 1
 109.58203125 528.07421875 l 1
 109.58203125 533.833984375 l 2
EndSplineSet
EndChar

StartChar: g
Encoding: 103 103 74
Width: 576
GlyphClass: 2
Flags: MW
HStem: -157.366 122.88<276.745 322.249> 27.9141 135.36<265.454 286.456> 402.314 134.399<251.698 284.042 228.872 305.547> 508.074 20G<387.021 532.941 532.941 532.941>
VStem: 51.9814 147.841<265.034 269.834 269.834 297.674 226.476 303.434 226.476 339.199> 387.021 145.92<52.874 60.5537 60.5537 68.9688 68.9688 68.9688 493.741 528.074>
LayerCount: 2
Fore
SplineSet
290.061523438 -34.486328125 m 0xdc
 369.704101562 -34.486328125 387.021484375 6.5634765625 387.021484375 52.8740234375 c 2
 387.021484375 68.96875 l 1
 354.141601562 41.509765625 311.649414062 27.9140625 261.26171875 27.9140625 c 0
 199.133789062 27.9140625 147.538085938 48.576171875 109.08984375 90.140625 c 0
 70.3544921875 132.016601562 51.9814453125 191.06640625 51.9814453125 265.034179688 c 2
 51.9814453125 303.43359375 l 2
 51.9814453125 374.963867188 70.4599609375 432.725585938 109.08984375 474.487304688 c 0
 147.469726562 515.978515625 198.401367188 536.713867188 259.341796875 536.713867188 c 0xec
 308.7421875 536.713867188 351.740234375 522.303710938 387.021484375 493.741210938 c 1
 387.021484375 528.07421875 l 1
 532.94140625 528.07421875 l 1
 532.94140625 60.5537109375 l 2
 532.94140625 -6.03515625 510.821289062 -60.388671875 466.103515625 -99.560546875 c 0
 421.458007812 -138.668945312 360.196289062 -157.366210938 284.301757812 -157.366210938 c 0
 219.737304688 -157.366210938 167.106445312 -144.596679688 127.384765625 -117.418945312 c 0
 87.0556640625 -89.8251953125 65.5830078125 -48.41796875 63.513671875 3.3291015625 c 2
 62.9140625 18.314453125 l 1
 203.180664062 18.314453125 l 1
 208.420898438 -1.1494140625 211.208007812 -11.5 230.444335938 -22.439453125 c 0
 243.670898438 -29.9599609375 263.428710938 -34.486328125 290.061523438 -34.486328125 c 0xdc
199.822265625 269.833984375 m 2
 199.822265625 183.1171875 242.765625 163.274414062 288.141601562 163.274414062 c 0
 319.819335938 163.274414062 342.91796875 172.379882812 359.9609375 189.693359375 c 0
 377.009765625 207.01171875 386.061523438 230.6796875 386.061523438 263.114257812 c 2
 386.061523438 302.473632812 l 2
 386.061523438 334.9609375 377.122070312 358.67578125 360.360351562 375.977539062 c 0
 343.608398438 393.26953125 321.032226562 402.314453125 290.061523438 402.314453125 c 0
 213.333984375 402.314453125 199.822265625 346.461914062 199.822265625 297.673828125 c 2
 199.822265625 269.833984375 l 2
EndSplineSet
EndChar

StartChar: h
Encoding: 104 104 75
Width: 577
GlyphClass: 2
Flags: MW
HStem: 0.0742188 21G<59.6621 207.502 59.6621 59.6621 386.062 386.062 386.062 533.901> 399.434 134.4<299.792 322.436> 671.274 20G<59.6621 207.502 207.502 207.502>
VStem: 59.6621 147.84<0.0742188 296.714 493.54 691.274> 386.062 147.84<0.0742188 301.514 301.514 325.514 0.0742188 343.128>
LayerCount: 2
Fore
SplineSet
301.58203125 399.43359375 m 0
 251.509765625 399.43359375 207.501953125 376.685546875 207.501953125 296.713867188 c 2
 207.501953125 0.07421875 l 1
 59.662109375 0.07421875 l 1
 59.662109375 691.274414062 l 1
 207.501953125 691.274414062 l 1
 207.501953125 493.540039062 l 1
 218.759765625 502.038085938 262.482421875 533.833984375 337.1015625 533.833984375 c 0
 397.540039062 533.833984375 446.762695312 515.7578125 481.9765625 478.431640625 c 0
 517.151367188 441.145507812 533.901367188 389.3984375 533.901367188 325.513671875 c 2
 533.901367188 0.07421875 l 1
 386.061523438 0.07421875 l 1
 386.061523438 301.513671875 l 2
 386.061523438 384.7421875 343.2890625 399.43359375 301.58203125 399.43359375 c 0
EndSplineSet
EndChar

StartChar: i
Encoding: 105 105 76
Width: 256
GlyphClass: 2
Flags: MW
HStem: 0.0742188 21G<64.4619 211.342 64.4619 64.4619> 508.074 20G<64.4619 211.342 211.342 211.342> 570.314 123.84<64.4619 211.342 64.4619 211.342>
VStem: 64.4619 146.88<0.0742188 528.074 0.0742188 528.074 570.314 694.154>
LayerCount: 2
Fore
SplineSet
64.4619140625 694.154296875 m 1
 211.341796875 694.154296875 l 1
 211.341796875 570.314453125 l 1
 64.4619140625 570.314453125 l 1
 64.4619140625 694.154296875 l 1
64.4619140625 528.07421875 m 1
 211.341796875 528.07421875 l 1
 211.341796875 0.07421875 l 1
 64.4619140625 0.07421875 l 1
 64.4619140625 528.07421875 l 1
EndSplineSet
EndChar

StartChar: j
Encoding: 106 106 77
Width: 256
GlyphClass: 2
Flags: MW
HStem: -149.686 131.52<-49.7783 9.74414 9.74414 22.2178 -49.7783 27.0215 -49.7783 9.74414> 508.073 20G<64.4629 211.343 211.343 211.343> 570.314 123.84<64.4619 211.342 64.4619 211.342>
VStem: 64.4629 146.88<33.6729 528.073>
LayerCount: 2
Fore
SplineSet
64.4619140625 694.154296875 m 1
 211.341796875 694.154296875 l 1
 211.341796875 570.314453125 l 1
 64.4619140625 570.314453125 l 1
 64.4619140625 694.154296875 l 1
211.342773438 25.9931640625 m 2
 211.342773438 -110.469726562 130.415039062 -149.685546875 27.021484375 -149.685546875 c 2
 -49.7783203125 -149.685546875 l 1
 -49.7783203125 -18.166015625 l 1
 9.744140625 -18.166015625 l 2
 34.69140625 -18.166015625 48.6298828125 -12.9892578125 53.9716796875 -7.8203125 c 0
 59.2939453125 -2.6689453125 64.462890625 10.1650390625 64.462890625 33.6728515625 c 2
 64.462890625 528.073242188 l 1
 211.342773438 528.073242188 l 1
 211.342773438 25.9931640625 l 2
EndSplineSet
EndChar

StartChar: k
Encoding: 107 107 78
Width: 582
GlyphClass: 2
Flags: MW
HStem: 0.0742188 21G<59.6621 207.502 59.6621 59.6621 404.239 590.508 404.239 404.239> 508.074 20G<389.524 583.791 583.791 583.791> 671.274 20G<59.6621 207.502 207.502 207.502>
VStem: 59.6621 147.84<0.0742188 162.957 338.288 691.274>
LayerCount: 2
Fore
SplineSet
404.239257812 0.07421875 m 1
 261.717773438 215.708007812 l 1
 207.501953125 162.95703125 l 1
 207.501953125 0.07421875 l 1
 59.662109375 0.07421875 l 1
 59.662109375 691.274414062 l 1
 207.501953125 691.274414062 l 1
 207.501953125 338.288085938 l 1
 389.524414062 528.07421875 l 1
 583.791015625 528.07421875 l 1
 366.52734375 317.046875 l 1
 590.5078125 0.07421875 l 1
 404.239257812 0.07421875 l 1
EndSplineSet
EndChar

StartChar: l
Encoding: 108 108 79
Width: 326
GlyphClass: 2
Flags: MW
HStem: 0.0742188 131.52<197.186 320.782 261.262 320.782 261.262 320.782> 671.273 20G<59.6621 207.502 207.502 207.502>
VStem: 59.6621 147.84<175.753 183.433 183.433 691.273>
LayerCount: 2
Fore
SplineSet
240.141601562 0.07421875 m 2
 154.229492188 0.07421875 59.662109375 29.41015625 59.662109375 175.752929688 c 2
 59.662109375 691.2734375 l 1
 207.501953125 691.2734375 l 1
 207.501953125 183.432617188 l 2
 207.501953125 160.690429688 212.534179688 147.881835938 218.162109375 142.25390625 c 0
 223.619140625 136.797851562 237.079101562 131.59375 261.26171875 131.59375 c 2
 320.782226562 131.59375 l 1
 320.782226562 0.07421875 l 1
 240.141601562 0.07421875 l 2
EndSplineSet
EndChar

StartChar: m
Encoding: 109 109 80
Width: 891
GlyphClass: 2
Flags: MW
HStem: 0.0742188 21G<59.6621 207.502 59.6621 59.6621 378.382 378.382 378.382 526.222> 399.434 134.399<306.77 321.741 605.411 633.534>
VStem: 59.6621 147.84<0.0742188 296.714 0.0742188 528.074> 378.382 147.84<0.0742188 298.634 0.0742188 306.314 0.0742188 341.116> 697.102 147.84<0.0732422 301.513 301.513 325.513 0.0732422 344.123>
CounterMasks: 1 38
LayerCount: 2
Fore
SplineSet
297.7421875 399.43359375 m 0
 255.741210938 399.43359375 207.501953125 381.072265625 207.501953125 296.713867188 c 2
 207.501953125 0.07421875 l 1
 59.662109375 0.07421875 l 1
 59.662109375 528.07421875 l 1
 204.622070312 528.07421875 l 1
 204.622070312 492.66015625 l 1
 237.084960938 517.356445312 282.197265625 533.833007812 331.341796875 533.833007812 c 0
 373.412109375 533.833007812 433.258789062 522.986328125 477.420898438 473.622070312 c 1
 520.54296875 513.654296875 574.19921875 533.833007812 636.622070312 533.833007812 c 0
 700.711914062 533.833007812 752.672851562 515.774414062 789.890625 478.205078125 c 0
 827.03515625 440.708984375 844.94140625 388.977539062 844.94140625 325.512695312 c 2
 844.94140625 0.0732421875 l 1
 697.1015625 0.0732421875 l 1
 697.1015625 301.512695312 l 2
 697.1015625 386.732421875 651.565429688 399.43359375 615.501953125 399.43359375 c 0
 581.212890625 399.43359375 526.221679688 385.83984375 526.221679688 298.633789062 c 2
 526.221679688 0.07421875 l 1
 378.381835938 0.07421875 l 1
 378.381835938 306.314453125 l 2
 378.381835938 375.91796875 345.739257812 399.43359375 297.7421875 399.43359375 c 0
EndSplineSet
EndChar

StartChar: n
Encoding: 110 110 81
Width: 577
GlyphClass: 2
Flags: MW
HStem: 0.0742188 21G<59.6621 207.502 59.6621 59.6621 386.062 386.062 386.062 533.901> 399.434 134.4<303.686 322.436>
VStem: 59.6621 147.84<0.0742188 296.714 0.0742188 528.074> 386.062 147.84<0.0742188 301.514 301.514 325.514 0.0742188 343.128>
LayerCount: 2
Fore
SplineSet
301.58203125 399.43359375 m 0
 251.509765625 399.43359375 207.501953125 376.685546875 207.501953125 296.713867188 c 2
 207.501953125 0.07421875 l 1
 59.662109375 0.07421875 l 1
 59.662109375 528.07421875 l 1
 204.622070312 528.07421875 l 1
 204.622070312 492.137695312 l 1
 226.587890625 508.630859375 270.270507812 533.833984375 337.1015625 533.833984375 c 0
 397.573242188 533.833984375 446.822265625 515.567382812 482.0234375 477.901367188 c 0
 517.1171875 440.350585938 533.901367188 388.80078125 533.901367188 325.513671875 c 2
 533.901367188 0.07421875 l 1
 386.061523438 0.07421875 l 1
 386.061523438 301.513671875 l 2
 386.061523438 384.7421875 343.2890625 399.43359375 301.58203125 399.43359375 c 0
EndSplineSet
EndChar

StartChar: o
Encoding: 111 111 82
Width: 568
GlyphClass: 2
Flags: MW
HStem: -8.56641 135.36<270.173 316.432 270.173 330.426> 402.314 134.399<270.17 330.225>
VStem: 51.9814 146.881<235.274 236.234 236.234 292.874 190.135 294.794 190.135 333.182> 387.021 146.88<236.234 292.874 292.874 294.794 196.593 323.843>
LayerCount: 2
Fore
SplineSet
51.9814453125 235.274414062 m 2
 51.9814453125 294.793945312 l 2
 51.9814453125 371.569335938 72.9892578125 432.4609375 116.891601562 474.620117188 c 0
 160.474609375 516.473632812 220.265625 536.713867188 293.901367188 536.713867188 c 0
 366.951171875 536.713867188 426.3125 516.264648438 469.556640625 474.05859375 c 0
 513.047851562 431.611328125 533.901367188 370.940429688 533.901367188 294.793945312 c 2
 533.901367188 235.274414062 l 2
 533.901367188 157.911132812 513.103515625 96.591796875 469.556640625 54.08984375 c 0
 426.3125 11.8837890625 366.951171875 -8.56640625 293.901367188 -8.56640625 c 0
 220.240234375 -8.56640625 160.423828125 11.857421875 116.848632812 54.0498046875 c 0
 72.9638671875 96.541015625 51.9814453125 157.88671875 51.9814453125 235.274414062 c 2
293.901367188 126.793945312 m 0
 338.961914062 126.793945312 387.021484375 142.732421875 387.021484375 236.234375 c 2
 387.021484375 292.874023438 l 2
 387.021484375 354.8125 366.548828125 402.314453125 293.901367188 402.314453125 c 0
 246.438476562 402.314453125 198.862304688 385.06640625 198.862304688 292.874023438 c 2
 198.862304688 236.234375 l 2
 198.862304688 144.03515625 246.4453125 126.793945312 293.901367188 126.793945312 c 0
EndSplineSet
EndChar

StartChar: p
Encoding: 112 112 83
Width: 576
GlyphClass: 2
Flags: MW
HStem: -8.56641 135.36<306.792 324.079 288.102 391.706> 402.314 134.399<307.729 323.528> 508.074 20G<59.6621 204.623 204.623 204.623>
VStem: 59.6621 147.84<-149.686 30.9297 -149.686 528.074> 393.743 147.84<241.034 292.874 292.874 298.634 158.551 339.942>
LayerCount: 2
Fore
SplineSet
541.583007812 236.234375 m 2xd8
 541.583007812 80.8681640625 452.069335938 -8.56640625 331.341796875 -8.56640625 c 0
 282.2421875 -8.56640625 240.443359375 4.5224609375 207.501953125 30.9296875 c 1
 207.501953125 -149.685546875 l 1
 59.662109375 -149.685546875 l 1
 59.662109375 528.07421875 l 1
 204.623046875 528.07421875 l 1xb8
 204.623046875 491.645507812 l 1
 240.172851562 521.516601562 283.15625 536.713867188 332.302734375 536.713867188 c 0
 395.0234375 536.713867188 446.823242188 516.084960938 484.999023438 474.439453125 c 0
 523.416992188 432.528320312 541.583007812 373.1875 541.583007812 298.633789062 c 2
 541.583007812 236.234375 l 2xd8
303.502929688 126.793945312 m 0
 344.654296875 126.793945312 393.743164062 143.178710938 393.743164062 241.034179688 c 2
 393.743164062 292.874023438 l 2
 393.743164062 387.009765625 345.47265625 402.314453125 301.583007812 402.314453125 c 0xd8
 237.02734375 402.314453125 207.502929688 358.681640625 207.502929688 294.793945312 c 2
 207.502929688 231.43359375 l 2
 207.502929688 197.560546875 216.541015625 172.583007812 233.432617188 154.329101562 c 0
 250.249023438 136.158203125 272.701171875 126.793945312 303.502929688 126.793945312 c 0
EndSplineSet
EndChar

StartChar: q
Encoding: 113 113 84
Width: 576
GlyphClass: 2
Flags: MW
HStem: -8.56738 135.36<254.452 286.209> 402.313 134.4<259.41 285.559 230.427 337.297> 508.074 20G<387.981 532.941 532.941 532.941>
VStem: 51.9814 147.84<233.354 238.153 238.153 289.993 206.678 295.754 206.678 332.76> 386.062 146.88<-149.686 32.4502 32.4502 32.4502>
LayerCount: 2
Fore
SplineSet
387.981445312 493.5234375 m 1xd8
 387.981445312 528.07421875 l 1
 532.94140625 528.07421875 l 1xb8
 532.94140625 -149.685546875 l 1
 386.061523438 -149.685546875 l 1
 386.061523438 32.4501953125 l 1
 353.319335938 5.037109375 311.15625 -8.5673828125 261.26171875 -8.5673828125 c 0
 199.068359375 -8.5673828125 147.431640625 12.4775390625 109.008789062 54.7080078125 c 0
 70.2880859375 97.2666015625 51.9814453125 157.54296875 51.9814453125 233.354492188 c 2
 51.9814453125 295.75390625 l 2
 51.9814453125 369.766601562 70.552734375 429.37109375 109.454101562 472.440429688 c 0
 148.122070312 515.251953125 199.591796875 536.713867188 261.26171875 536.713867188 c 0
 309.856445312 536.713867188 352.504882812 522.182617188 387.981445312 493.5234375 c 1xd8
199.821289062 238.153320312 m 2
 199.821289062 175.203125 220.763671875 126.79296875 288.140625 126.79296875 c 0
 319.708984375 126.79296875 342.72265625 136.116210938 359.8046875 154.01171875 c 0
 376.8515625 171.87109375 386.060546875 196.8984375 386.060546875 231.432617188 c 2
 386.060546875 294.79296875 l 2
 386.060546875 317.24609375 383.57421875 402.313476562 291.020507812 402.313476562 c 0xd8
 227.799804688 402.313476562 199.821289062 363.481445312 199.821289062 289.993164062 c 2
 199.821289062 238.153320312 l 2
EndSplineSet
EndChar

StartChar: r
Encoding: 114 114 85
Width: 404
GlyphClass: 2
Flags: MW
HStem: 0.0742188 21G<59.6621 207.502 59.6621 59.6621> 405.194 133.439<302.191 330.009> 508.074 20G<59.6621 204.623 204.623 204.623>
VStem: 59.6621 147.84<0.0742188 290.954 0.0742188 528.074>
LayerCount: 2
Fore
SplineSet
312.141601562 405.194335938 m 0xd0
 280.467773438 405.194335938 207.501953125 397.466796875 207.501953125 290.954101562 c 2
 207.501953125 0.07421875 l 1
 59.662109375 0.07421875 l 1
 59.662109375 528.07421875 l 1
 204.623046875 528.07421875 l 1xb0
 204.623046875 493.65234375 l 1
 225.71875 511.88671875 268.241210938 538.633789062 336.141601562 538.633789062 c 0
 354.551757812 538.633789062 365.421875 538.633789062 397.58203125 532.201171875 c 1
 397.58203125 386.188476562 l 1
 364.762695312 398.737304688 347.875976562 405.194335938 312.141601562 405.194335938 c 0xd0
EndSplineSet
EndChar

StartChar: s
Encoding: 115 115 86
Width: 532
GlyphClass: 2
Flags: MW
HStem: -5.68555 124.8<261.962 295.824 261.962 308.264> 411.914 121.92<257.082 289.407>
VStem: 51.0215 140.16<367.18 378.725 367.18 391.452> 368.783 142.079<154.697 166.663>
LayerCount: 2
Fore
SplineSet
43.3427734375 168.07421875 m 2
 43.3427734375 185.354492188 l 1
 183.502929688 185.354492188 l 1
 183.502929688 169.034179688 l 2
 183.502929688 154.288085938 189.390625 143.629882812 204.521484375 134.23828125 c 0
 219.526367188 124.923828125 244.421875 119.114257812 279.502929688 119.114257812 c 0
 312.145507812 119.114257812 335.647460938 123.989257812 349.90234375 131.764648438 c 0
 363.6953125 139.288085938 368.783203125 148.040039062 368.783203125 161.354492188 c 0
 368.783203125 171.971679688 368.783203125 192.243164062 301.81640625 199.8515625 c 2
 227.782226562 208.505859375 l 2
 133.395507812 220.303710938 51.021484375 255.673828125 51.021484375 364.874023438 c 0
 51.021484375 418.030273438 71.7626953125 461.163085938 112.668945312 490.78515625 c 0
 153.09375 520.057617188 207.177734375 533.833984375 273.7421875 533.833984375 c 0
 342.161132812 533.833984375 397.465820312 520.106445312 438.559570312 490.852539062 c 0
 479.935546875 461.3984375 501.26171875 419.283203125 501.26171875 367.75390625 c 2
 501.26171875 349.513671875 l 1
 362.061523438 349.513671875 l 1
 362.061523438 366.793945312 l 2
 362.061523438 381.104492188 356.708984375 390.560546875 343.215820312 398.556640625 c 0
 329.490234375 406.690429688 306.03125 411.9140625 272.782226562 411.9140625 c 0
 241.381835938 411.9140625 219.631835938 407.1015625 207.62109375 399.993164062 c 0
 195.69140625 392.931640625 191.181640625 384.895507812 191.181640625 372.553710938 c 0
 191.181640625 361.806640625 192.80078125 343.768554688 249.268554688 336.96484375 c 2
 329.107421875 327.345703125 l 2
 382.198242188 321.446289062 510.862304688 301.303710938 510.862304688 169.034179688 c 0
 510.862304688 113.194335938 488.522460938 68.333984375 444.609375 38.1220703125 c 0
 401.350585938 8.359375 343.745117188 -5.685546875 272.782226562 -5.685546875 c 0
 203.0625 -5.685546875 147.01171875 8.52734375 105.848632812 38.876953125 c 0
 64.349609375 69.4736328125 43.3427734375 113.6796875 43.3427734375 168.07421875 c 2
EndSplineSet
EndChar

StartChar: t
Encoding: 116 116 87
Width: 405
GlyphClass: 2
Flags: MW
HStem: 0.0742188 129.6<263.559 368.782 312.142 368.782 312.142 368.782> 415.754 112.32<31.8223 119.182 31.8223 119.182 266.062 379.342>
VStem: 119.182 146.879<168.074 215.755 165.734 415.754>
LayerCount: 2
Fore
SplineSet
266.061523438 528.07421875 m 1
 379.341796875 528.07421875 l 1
 379.341796875 415.75390625 l 1
 266.061523438 415.75390625 l 1
 266.061523438 335.75390625 266.060546875 255.754882812 266.060546875 175.754882812 c 0
 266.060546875 155.713867188 270.625 144.509765625 275.760742188 139.374023438 c 0
 280.896484375 134.23828125 292.1015625 129.673828125 312.141601562 129.673828125 c 2
 368.782226562 129.673828125 l 1
 368.782226562 0.07421875 l 1
 290.061523438 0.07421875 l 2
 237.055664062 0.07421875 194.104492188 14.1123046875 163.783203125 44.072265625 c 0
 133.4921875 74.0029296875 119.181640625 116.225585938 119.181640625 168.07421875 c 2
 119.181640625 415.75390625 l 1
 31.822265625 415.75390625 l 1
 31.822265625 528.07421875 l 1
 119.181640625 528.07421875 l 1
 119.181640625 621.817382812 l 1
 266.061523438 673.166015625 l 1
 266.061523438 528.07421875 l 1
EndSplineSet
EndChar

StartChar: u
Encoding: 117 117 88
Width: 577
GlyphClass: 2
Flags: MW
HStem: -8.56641 135.36<279.752 314.202 279.752 393.434> 508.074 20G<59.6611 207.501 207.501 207.501 386.062 533.901 533.901 533.901>
VStem: 59.6611 147.84<223.754 229.514 229.514 528.074> 386.062 147.84<229.514 528.074>
LayerCount: 2
Fore
SplineSet
296.782226562 -8.56640625 m 0
 190.129882812 -8.56640625 59.6611328125 30.8544921875 59.6611328125 223.75390625 c 2
 59.6611328125 528.07421875 l 1
 207.500976562 528.07421875 l 1
 207.500976562 229.513671875 l 2
 207.500976562 193.01171875 215.381835938 167.4921875 228.70703125 151.29296875 c 0
 241.353515625 135.91796875 262.72265625 126.793945312 296.78125 126.793945312 c 0
 331.622070312 126.793945312 353.107421875 135.89453125 365.3203125 150.79296875 c 0
 378.250976562 166.568359375 386.061523438 192.272460938 386.061523438 229.513671875 c 2
 386.061523438 528.07421875 l 1
 533.901367188 528.07421875 l 1
 533.901367188 223.75390625 l 2
 533.901367188 113.280273438 490.084960938 -8.56640625 296.782226562 -8.56640625 c 0
EndSplineSet
EndChar

StartChar: v
Encoding: 118 118 89
Width: 544
GlyphClass: 2
Flags: MW
HStem: 0.0742188 21G<221.768 339.139 221.768 221.768> 508.074 20G<9.55176 169.628 169.628 169.628 392.229 552.37 552.37 552.37>
LayerCount: 2
Fore
SplineSet
9.5517578125 528.07421875 m 1
 169.627929688 528.07421875 l 1
 281.368164062 217.487304688 l 1
 392.229492188 528.07421875 l 1
 552.370117188 528.07421875 l 1
 339.138671875 0.07421875 l 1
 221.767578125 0.07421875 l 1
 9.5517578125 528.07421875 l 1
EndSplineSet
EndChar

StartChar: w
Encoding: 119 119 90
Width: 823
GlyphClass: 2
Flags: MW
HStem: 0.0742188 21G<191.448 312.821 191.448 191.448 523.594 644.978 523.594 523.594> 508.074 20G<10.709 167.321 167.321 167.321 363.34 473.048 473.048 473.048 669.063 826.73 826.73 826.73>
LayerCount: 2
Fore
SplineSet
10.708984375 528.07421875 m 1
 167.321289062 528.07421875 l 1
 258.391601562 226.239257812 l 1
 363.33984375 528.07421875 l 1
 473.047851562 528.07421875 l 1
 579.728515625 226.245117188 l 1
 669.063476562 528.07421875 l 1
 826.73046875 528.07421875 l 1
 644.977539062 0.07421875 l 1
 523.59375 0.07421875 l 1
 418.645507812 307.923828125 l 1
 312.821289062 0.07421875 l 1
 191.448242188 0.07421875 l 1
 10.708984375 528.07421875 l 1
EndSplineSet
EndChar

StartChar: x
Encoding: 120 120 91
Width: 520
GlyphClass: 2
Flags: MW
HStem: 0.0742188 21G<3.84473 169.432 3.84473 3.84473 369.753 534.12 369.753 369.753> 508.074 20G<13.3789 178.7 178.7 178.7 359.852 524.96 524.96 524.96>
LayerCount: 2
Fore
SplineSet
369.752929688 0.07421875 m 1
 265.5859375 154.989257812 l 1
 169.431640625 0.07421875 l 1
 3.8447265625 0.07421875 l 1
 186.3046875 271.736328125 l 1
 13.37890625 528.07421875 l 1
 178.700195312 528.07421875 l 1
 272.369140625 388.455078125 l 1
 359.8515625 528.07421875 l 1
 524.959960938 528.07421875 l 1
 348.793945312 274.518554688 l 1
 534.120117188 0.07421875 l 1
 369.752929688 0.07421875 l 1
EndSplineSet
EndChar

StartChar: y
Encoding: 121 121 92
Width: 545
GlyphClass: 2
Flags: MW
HStem: -147.765 135.359<89.4219 149.901 89.4219 155.662> 508.074 20G<9.2627 169.364 169.364 169.364 397.983 553.079 553.079 553.079>
LayerCount: 2
Fore
SplineSet
149.901367188 -147.764648438 m 2
 89.421875 -147.764648438 l 1
 89.421875 -12.4052734375 l 1
 155.662109375 -12.4052734375 l 2
 177.563476562 -12.4052734375 192.102539062 -9.10546875 198.892578125 -5.1962890625 c 0
 203.73046875 -2.4111328125 212.551757812 5.0888671875 219.013671875 24.474609375 c 1
 9.2626953125 528.07421875 l 1
 169.364257812 528.07421875 l 1
 288.528320312 220.89453125 l 1
 397.983398438 528.07421875 l 1
 553.079101562 528.07421875 l 1
 333.26171875 -33.9033203125 l 2
 303.435546875 -111.17578125 245.432617188 -147.764648438 149.901367188 -147.764648438 c 2
EndSplineSet
EndChar

StartChar: z
Encoding: 122 122 93
Width: 508
GlyphClass: 2
Flags: MW
HStem: 0.0742188 128.64<234.051 474.382 234.051 474.382> 399.434 128.641<51.9814 474.382 51.9814 291.429>
LayerCount: 2
Fore
SplineSet
51.9814453125 399.43359375 m 1
 51.9814453125 528.07421875 l 1
 474.381835938 528.07421875 l 1
 474.381835938 408.501953125 l 1
 234.05078125 128.713867188 l 1
 474.381835938 128.713867188 l 1
 474.381835938 0.07421875 l 1
 51.9814453125 0.07421875 l 1
 51.9814453125 119.630859375 l 1
 291.428710938 399.43359375 l 1
 51.9814453125 399.43359375 l 1
EndSplineSet
EndChar

StartChar: braceleft
Encoding: 123 123 94
Width: 410
GlyphClass: 2
Flags: MW
HStem: -80.5664 124.801<268.944 377.422 324.622 377.422 324.622 377.422> 265.994 130.56<51.9824 66.3828 51.9824 66.3828> 614.474 124.801<314.365 324.622 324.622 377.422>
VStem: 138.382 141.12<76.875 203.594 203.594 209.354 76.875 216.39 458.954 581.834>
LayerCount: 2
Fore
SplineSet
287.181640625 -80.56640625 m 2
 250.70703125 -80.56640625 138.381835938 -76.4169921875 138.381835938 56.7138671875 c 2
 138.381835938 203.59375 l 2
 138.381835938 229.185546875 132.268554688 244.236328125 123.80859375 252.0625 c 0
 115.43359375 259.80859375 96.99609375 265.994140625 66.3828125 265.994140625 c 2
 51.982421875 265.994140625 l 1
 51.982421875 396.553710938 l 1
 66.3828125 396.553710938 l 2
 96.99609375 396.553710938 115.43359375 402.739257812 123.80859375 410.486328125 c 0
 132.268554688 418.311523438 138.381835938 433.362304688 138.381835938 458.954101562 c 2
 138.381835938 602.954101562 l 2
 138.381835938 666.845703125 165.267578125 739.274414062 287.181640625 739.274414062 c 2
 377.421875 739.274414062 l 1
 377.421875 614.473632812 l 1
 324.622070312 614.473632812 l 2
 304.107421875 614.473632812 292.0234375 610.595703125 287.427734375 606.985351562 c 0
 283.404296875 603.82421875 279.501953125 596.936523438 279.501953125 581.833984375 c 2
 279.501953125 453.194335938 l 2
 279.501953125 387.21875 263.84765625 353.334960938 230.137695312 331.274414062 c 1
 263.829101562 309.224609375 279.501953125 275.360351562 279.501953125 209.354492188 c 2
 279.501953125 76.875 l 2
 279.502929688 61.771484375 283.405273438 54.8837890625 287.427734375 51.72265625 c 0
 292.0234375 48.1123046875 304.107421875 44.234375 324.622070312 44.234375 c 2
 377.421875 44.234375 l 1
 377.421875 -80.56640625 l 1
 287.181640625 -80.56640625 l 2
EndSplineSet
Substitution2: "'rtla' Right to Left Alternates lookup 0 subtable" braceright
EndChar

StartChar: bar
Encoding: 124 124 95
Width: 309
GlyphClass: 2
Flags: MW
VStem: 95.1816 139.2<-80.5664 739.274 -80.5664 739.274>
LayerCount: 2
Fore
SplineSet
95.181640625 739.274414062 m 1
 234.381835938 739.274414062 l 1
 234.381835938 -80.56640625 l 1
 95.181640625 -80.56640625 l 1
 95.181640625 739.274414062 l 1
EndSplineSet
EndChar

StartChar: braceright
Encoding: 125 125 96
Width: 410
GlyphClass: 2
Flags: MW
HStem: -80.5664 124.801<51.9814 103.82 103.82 114.031 51.9814 142.222 51.9814 103.82> 265.994 130.56<347.387 377.422 363.021 377.422> 614.474 124.801<51.9814 103.822 51.9814 142.222>
VStem: 149.901 140.16<76.874 203.594 453.194 458.954 458.954 581.834 581.834 589.385>
LayerCount: 2
Fore
SplineSet
290.061523438 56.7138671875 m 2
 290.061523438 -7.6181640625 263.354492188 -80.56640625 142.221679688 -80.56640625 c 2
 51.9814453125 -80.56640625 l 1
 51.9814453125 44.234375 l 1
 103.8203125 44.234375 l 2
 124.2421875 44.234375 136.415039062 48.173828125 141.443359375 52.162109375 c 0
 146.145507812 55.8916015625 149.901367188 62.732421875 149.901367188 76.8740234375 c 2
 149.901367188 209.354492188 l 2
 149.901367188 275.329101562 165.5546875 309.212890625 199.264648438 331.274414062 c 1
 165.573242188 353.323242188 149.901367188 387.1875 149.901367188 453.194335938 c 2
 149.901367188 581.833984375 l 2
 149.901367188 596.936523438 145.998046875 603.82421875 141.974609375 606.985351562 c 0
 137.473632812 610.522460938 125.040039062 614.473632812 103.822265625 614.473632812 c 2
 51.9814453125 614.473632812 l 1
 51.9814453125 739.274414062 l 1
 142.221679688 739.274414062 l 2
 178.227539062 739.274414062 290.061523438 735.264648438 290.061523438 602.954101562 c 2
 290.061523438 458.954101562 l 2
 290.061523438 434.115234375 296.067382812 419.107421875 304.776367188 410.833984375 c 0
 313.104492188 402.921875 331.751953125 396.553710938 363.021484375 396.553710938 c 2
 377.421875 396.553710938 l 1
 377.421875 265.994140625 l 1
 363.021484375 265.994140625 l 2
 331.751953125 265.994140625 313.104492188 259.626953125 304.776367188 251.713867188 c 0
 296.067382812 243.440429688 290.061523438 228.432617188 290.061523438 203.59375 c 2
 290.061523438 56.7138671875 l 2
EndSplineSet
Substitution2: "'rtla' Right to Left Alternates lookup 0 subtable" braceleft
EndChar

StartChar: asciitilde
Encoding: 126 126 97
Width: 535
GlyphClass: 2
Flags: MW
HStem: 187.273 127.68<346.045 359.284 346.045 371.61> 241.994 126.719<187.772 207.143>
LayerCount: 2
Fore
SplineSet
196.940429688 368.712890625 m 0x40
 225.670898438 368.712890625 248.65234375 363.27734375 296.10546875 336.17578125 c 0
 332.80859375 316.165039062 340.58984375 314.953125 351.500976562 314.953125 c 0
 367.067382812 314.953125 383.073242188 319.099609375 403.892578125 360.739257812 c 2
 410.91796875 374.790039062 l 1
 511.7734375 313.016601562 l 1
 499.959960938 285.794921875 483.216796875 247.212890625 444.202148438 217.561523438 c 0
 417.87109375 197.549804688 387.87890625 187.2734375 355.340820312 187.2734375 c 0x80
 328.25390625 187.2734375 304.329101562 192.266601562 256.09765625 220.8125 c 0
 219.359375 240.700195312 212.543945312 241.994140625 201.7421875 241.994140625 c 0
 173.802734375 241.994140625 161.153320312 218.328125 141.975585938 182.37109375 c 1
 41.298828125 244.03515625 l 1
 53.708984375 271.439453125 71.0888671875 309.822265625 109.54296875 338.922851562 c 0
 135.532226562 358.58984375 165.028320312 368.712890625 196.940429688 368.712890625 c 0x40
EndSplineSet
EndChar

StartChar: exclamdown
Encoding: 161 161 99
Width: 264
GlyphClass: 2
Flags: MW
HStem: 373.514 154.561<63.502 219.981 63.502 219.981>
VStem: 63.502 156.479<373.514 528.074 373.514 528.074> 83.4551 116.573<307.274 307.274>
LayerCount: 2
Fore
SplineSet
63.501953125 528.07421875 m 1xc0
 219.981445312 528.07421875 l 1
 219.981445312 373.513671875 l 1
 63.501953125 373.513671875 l 1
 63.501953125 528.07421875 l 1xc0
83.455078125 307.274414062 m 1xa0
 200.028320312 307.274414062 l 1
 224.618164062 -149.685546875 l 1
 58.8662109375 -149.685546875 l 1
 83.455078125 307.274414062 l 1xa0
EndSplineSet
EndChar

StartChar: cent
Encoding: 162 162 100
Width: 564
GlyphClass: 2
Flags: MW
HStem: -95.9258 222.72<281.615 313.981 281.615 345.742 247.822 313.981> 402.313 219.841<261.142 311.738>
VStem: 51.9805 146.882<235.274 236.233 236.233 292.873 215.398 294.794 215.398 330.217> 247.822 97.9199<-95.9258 -6.07129 -6.07129 -6.07129> 384.142 144.96<189.194 207.434 161.734 207.434>
LayerCount: 2
Fore
SplineSet
247.822265625 -6.0712890625 m 1
 195.350585938 0.9296875 51.98046875 33.3564453125 51.98046875 235.274414062 c 2
 51.98046875 294.793945312 l 2
 51.98046875 365.639648438 69.939453125 422.990234375 107.515625 464.741210938 c 0
 142.2890625 503.377929688 189.666015625 526.37109375 247.821289062 534.205078125 c 1
 247.821289062 622.154296875 l 1
 345.741210938 622.154296875 l 1
 345.741210938 533.206054688 l 1
 400.25390625 525.809570312 444.576171875 506.551757812 477.258789062 474.516601562 c 0
 512.645507812 439.831054688 530.061523438 393.505859375 530.061523438 337.994140625 c 2
 530.061523438 317.833984375 l 1
 385.098632812 317.833984375 l 1
 385.098632812 336.073242188 l 2
 385.098632812 357.30078125 377.959960938 372.176757812 363.23046875 383.8046875 c 0
 348.33203125 395.567382812 326.693359375 402.313476562 296.783203125 402.313476562 c 0
 225.500976562 402.313476562 198.862304688 364.530273438 198.862304688 292.873046875 c 2
 198.862304688 236.233398438 l 2
 198.862304688 194.5625 208.256835938 167.29296875 223.526367188 151.76953125 c 0
 239.12109375 135.915039062 263.568359375 126.793945312 299.662109375 126.793945312 c 0
 328.299804688 126.793945312 349.009765625 133.224609375 363.283203125 144.384765625 c 0
 377.39453125 155.416992188 384.141601562 169.327148438 384.141601562 189.194335938 c 2
 384.141601562 207.43359375 l 1
 529.1015625 207.43359375 l 1
 529.1015625 189.194335938 l 2
 529.1015625 134.274414062 511.647460938 88.279296875 476.298828125 53.6318359375 c 0
 443.670898438 21.6494140625 399.674804688 2.3759765625 345.7421875 -5.0400390625 c 1
 345.7421875 -95.92578125 l 1
 247.822265625 -95.92578125 l 1
 247.822265625 -6.0712890625 l 1
EndSplineSet
EndChar

StartChar: sterling
Encoding: 163 163 101
Width: 524
GlyphClass: 2
Flags: MW
HStem: 0.0751953 137.279<237.583 512.781 237.583 512.781> 265.034 138.24<256.462 411.981 256.462 411.981> 565.514 135.361<291.239 337.685>
VStem: 101.901 154.561<207.435 219.914 219.914 265.034 199.732 265.035 199.732 265.035 403.275 496.395 496.395 510.794>
LayerCount: 2
Fore
SplineSet
313.1015625 565.513671875 m 0
 269.375976562 565.513671875 256.461914062 541.896484375 256.461914062 510.793945312 c 2
 256.461914062 403.274414062 l 1
 411.981445312 403.274414062 l 1
 411.981445312 265.034179688 l 1
 256.461914062 265.034179688 l 1
 256.461914062 219.9140625 l 2
 256.461914062 179.549804688 247.677734375 154.70703125 237.583007812 137.354492188 c 1
 512.78125 137.354492188 l 1
 512.78125 0.0751953125 l 1
 53.9013671875 0.0751953125 l 1
 53.9013671875 127.83984375 l 1
 81.9375 139.26171875 101.901367188 147.39453125 101.901367188 207.434570312 c 2
 101.901367188 265.03515625 l 1
 34.701171875 265.03515625 l 1
 34.701171875 403.275390625 l 1
 101.901367188 403.275390625 l 1
 101.901367188 496.39453125 l 2
 101.901367188 559.245117188 119.8359375 610.274414062 157.098632812 646.83203125 c 0
 194.379882812 683.411132812 246.577148438 700.875 311.180664062 700.875 c 0
 371.743164062 700.875 421.283203125 685.833984375 457.876953125 654.166992188 c 0
 494.7109375 622.291992188 512.782226562 577.315429688 512.782226562 522.315429688 c 2
 512.782226562 507.915039062 l 1
 366.862304688 507.915039062 l 1
 366.862304688 522.315429688 l 2
 366.862304688 539.2265625 362.268554688 565.513671875 313.1015625 565.513671875 c 0
EndSplineSet
EndChar

StartChar: currency
Encoding: 164 164 102
Width: 599
GlyphClass: 2
Flags: MW
HStem: 107.594 122.88<295.017 320.035 295.017 325.112> 404.234 122.88<294.982 320.068>
VStem: 98.0615 125.762<305.046 330.623 305.046 334.536> 391.822 125.76<305.046 330.623>
LayerCount: 2
Fore
SplineSet
307.341796875 107.59375 m 0
 271.80078125 107.59375 238.846679688 115.385742188 209.0234375 130.994140625 c 1
 144.141601562 66.11328125 l 1
 53.701171875 156.553710938 l 1
 119.59765625 222.450195312 l 1
 105.163085938 250.700195312 98.0615234375 282.674804688 98.0615234375 317.833984375 c 0
 98.0615234375 351.237304688 105.659179688 383.13671875 120.669921875 413.104492188 c 1
 53.701171875 480.07421875 l 1
 144.141601562 570.514648438 l 1
 210.157226562 504.499023438 l 1
 240.30859375 519.547851562 272.85546875 527.114257812 307.341796875 527.114257812 c 0
 341.856445312 527.114257812 374.4296875 519.53515625 404.6015625 504.461914062 c 1
 471.6484375 570.5078125 l 1
 560.836914062 480.080078125 l 1
 494.935546875 413.1796875 l 1
 509.971679688 383.189453125 517.58203125 351.264648438 517.58203125 317.833984375 c 0
 517.58203125 283.030273438 510.388671875 250.794921875 495.923828125 221.61328125 c 1
 561.942382812 155.59375 l 1
 471.501953125 65.1533203125 l 1
 405.661132812 130.994140625 l 1
 375.836914062 115.385742188 342.8828125 107.59375 307.341796875 107.59375 c 0
391.822265625 317.833984375 m 0
 391.822265625 343.411132812 383.916015625 363.393554688 368.029296875 379.829101562 c 0
 352.256835938 396.145507812 332.793945312 404.234375 307.341796875 404.234375 c 0
 282.623046875 404.234375 263.456054688 396.215820312 247.615234375 379.829101562 c 0
 231.728515625 363.393554688 223.823242188 343.411132812 223.823242188 317.833984375 c 0
 223.823242188 292.258789062 231.736328125 272.060546875 247.698242188 255.272460938 c 0
 263.561523438 238.588867188 282.69140625 230.473632812 307.341796875 230.473632812 c 0
 332.727539062 230.473632812 352.151367188 238.661132812 367.946289062 255.272460938 c 0
 383.908203125 272.060546875 391.822265625 292.258789062 391.822265625 317.833984375 c 0
EndSplineSet
EndChar

StartChar: yen
Encoding: 165 165 103
Width: 563
GlyphClass: 2
Flags: MW
HStem: 0.0742188 21G<213.262 366.862 213.262 213.262> 112.394 113.28<65.4219 213.262 65.4219 213.262 366.862 514.702> 249.674 113.28<65.4219 182.38 65.4219 213.262 65.4219 182.38 397.744 514.702> 671.274 20G<4.7793 174.323 174.323 174.323 405.621 575.344 575.344 575.344>
VStem: 213.262 153.601<0.0742188 112.394 0.0742188 112.394 225.674 249.674 0.0742188 249.674>
LayerCount: 2
Fore
SplineSet
366.862304688 112.393554688 m 1
 366.862304688 0.07421875 l 1
 213.26171875 0.07421875 l 1
 213.26171875 112.393554688 l 1
 65.421875 112.393554688 l 1
 65.421875 225.673828125 l 1
 213.26171875 225.673828125 l 1
 213.26171875 249.673828125 l 1
 65.421875 249.673828125 l 1
 65.421875 362.954101562 l 1
 182.379882812 362.954101562 l 1
 4.779296875 691.274414062 l 1
 174.323242188 691.274414062 l 1
 292.640625 444.853515625 l 1
 405.62109375 691.274414062 l 1
 575.34375 691.274414062 l 1
 397.744140625 362.954101562 l 1
 514.702148438 362.954101562 l 1
 514.702148438 249.673828125 l 1
 366.862304688 249.673828125 l 1
 366.862304688 225.673828125 l 1
 514.702148438 225.673828125 l 1
 514.702148438 112.393554688 l 1
 366.862304688 112.393554688 l 1
EndSplineSet
EndChar

StartChar: brokenbar
Encoding: 166 166 104
Width: 309
GlyphClass: 2
Flags: MW
VStem: 95.1816 139.2<-80.5664 288.074 -80.5664 288.074 372.554 739.274>
LayerCount: 2
Fore
SplineSet
95.181640625 739.274414062 m 1
 234.381835938 739.274414062 l 1
 234.381835938 372.553710938 l 1
 95.181640625 372.553710938 l 1
 95.181640625 739.274414062 l 1
95.181640625 288.07421875 m 1
 234.381835938 288.07421875 l 1
 234.381835938 -80.56640625 l 1
 95.181640625 -80.56640625 l 1
 95.181640625 288.07421875 l 1
EndSplineSet
EndChar

StartChar: section
Encoding: 167 167 105
Width: 565
GlyphClass: 2
Flags: MW
HStem: -161.206 126.721<255.382 304.056 254.329 317.754> 523.273 21G<362.062 498.382 362.062 362.062> 589.513 126.722<282.673 324.493>
VStem: 64.4619 144.001<259.858 287.193> 88.4619 143.04<537.366 553.752 537.366 594.597> 353.422 143.04<-8.1626 18.8848> 373.583 143.999<264.843 293.393>
LayerCount: 2
Fore
SplineSet
437.544921875 132.899414062 m 1xea
 456.788085938 119.58984375 496.461914062 88.1201171875 496.461914062 8.712890625 c 0
 496.461914062 -42.50390625 476.625976562 -85.0087890625 437.716796875 -115.85546875 c 0
 399.026367188 -146.529296875 348.327148438 -161.206054688 287.181640625 -161.206054688 c 0
 223.583007812 -161.206054688 172.311523438 -146.302734375 135.2578125 -114.54296875 c 0
 98.046875 -82.646484375 79.822265625 -37.3115234375 79.822265625 18.3154296875 c 2
 79.822265625 32.71484375 l 1
 217.1015625 32.71484375 l 1
 217.1015625 18.3154296875 l 2
 217.1015625 1.25 220.516601562 -34.4853515625 288.141601562 -34.4853515625 c 0
 319.969726562 -34.4853515625 353.421875 -26 353.421875 9.6748046875 c 0
 353.421875 28.0947265625 346.512695312 40.40625 330.551757812 50.1884765625 c 0
 307.127929688 64.544921875 275.266601562 72.8056640625 234.68359375 83.0732421875 c 0
 175.455078125 98.0595703125 64.4619140625 138.90234375 64.4619140625 276.5546875 c 0xf4
 64.4619140625 297.83203125 65.330078125 377.40234375 144.643554688 427.282226562 c 1
 107.516601562 455.244140625 88.4619140625 496.188476562 88.4619140625 547.275390625 c 0
 88.4619140625 641.918945312 165.987304688 716.234375 294.862304688 716.234375 c 0
 357.889648438 716.234375 408.534179688 700.954101562 444.66015625 668.369140625 c 0
 480.625 635.9296875 498.381835938 591.431640625 498.381835938 537.672851562 c 2
 498.381835938 523.2734375 l 1
 362.061523438 523.2734375 l 1
 362.061523438 537.672851562 l 2
 362.061523438 558.681640625 355.083984375 589.512695312 293.901367188 589.512695312 c 0
 271.444335938 589.512695312 255.817382812 584.833007812 245.801757812 577.44140625 c 0
 236.225585938 570.37109375 231.501953125 561.190429688 231.501953125 546.313476562 c 0
 231.501953125 528.41796875 237.989257812 517.065429688 252.752929688 508.306640625 c 0
 269.153320312 498.578125 301.465820312 487.192382812 348.33984375 475.7890625 c 0
 406.79296875 460.91015625 517.58203125 420.361328125 517.58203125 284.233398438 c 0
 517.58203125 245.453125 508.315429688 211.381835938 489.206054688 183.071289062 c 0
 475.426757812 162.658203125 458.09375 145.858398438 437.544921875 132.899414062 c 1xea
291.981445312 209.354492188 m 0
 337.92578125 209.354492188 373.583007812 226.4296875 373.583007812 279.434570312 c 0xf2
 373.583007812 307.350585938 365.244140625 349.514648438 291.982421875 349.514648438 c 0
 215.853515625 349.514648438 208.462890625 305.888671875 208.462890625 279.434570312 c 0
 208.462890625 240.282226562 228.541015625 209.354492188 291.981445312 209.354492188 c 0
EndSplineSet
EndChar

StartChar: dieresis
Encoding: 168 168 106
Width: 507
GlyphClass: 2
Flags: MW
HStem: 563.594 140.16<86.542 218.062 86.542 218.062 86.542 306.382 306.382 437.901>
VStem: 86.542 131.52<563.594 703.754 563.594 703.754> 306.382 131.52<563.594 703.754 563.594 703.754>
LayerCount: 2
Fore
SplineSet
86.5419921875 703.75390625 m 1
 218.061523438 703.75390625 l 1
 218.061523438 563.59375 l 1
 86.5419921875 563.59375 l 1
 86.5419921875 703.75390625 l 1
306.381835938 703.75390625 m 1
 437.901367188 703.75390625 l 1
 437.901367188 563.59375 l 1
 306.381835938 563.59375 l 1
 306.381835938 703.75390625 l 1
EndSplineSet
EndChar

StartChar: copyright
Encoding: 169 169 107
Width: 782
GlyphClass: 2
Flags: MW
HStem: -8.56641 102.721<365.768 440.917 365.768 507.409> 142.154 104.64<386.278 416.473 386.278 428.486> 437.834 105.599<385.79 415.636> 592.394 101.761<365.78 440.905>
VStem: 60.6221 106.562<303.463 382.124 303.463 448.819> 230.54 114.241<321.673 321.674 321.674 362.954 294.86 363.913 294.86 392.023> 460.941 112.32<288.074 305.354 265.892 305.354> 639.502 106.562<303.463 382.124>
LayerCount: 2
Fore
SplineSet
403.342773438 -8.56640625 m 0
 195.2109375 -8.56640625 60.6220703125 133.348632812 60.6220703125 342.793945312 c 0
 60.6220703125 554.844726562 195.651367188 694.154296875 403.342773438 694.154296875 c 0
 611.474609375 694.154296875 746.063476562 552.239257812 746.063476562 342.793945312 c 0
 746.063476562 133.348632812 611.474609375 -8.56640625 403.342773438 -8.56640625 c 0
639.501953125 342.793945312 m 0
 639.501953125 421.453125 618.158203125 481.7421875 576.684570312 525.900390625 c 0
 535.333984375 569.928710938 478.467773438 592.393554688 403.342773438 592.393554688 c 0
 328.217773438 592.393554688 271.3515625 569.928710938 230.000976562 525.900390625 c 0
 188.52734375 481.7421875 167.18359375 421.453125 167.18359375 342.793945312 c 0
 167.18359375 264.131835938 188.528320312 204.02734375 229.966796875 160.203125 c 0
 271.307617188 116.482421875 328.193359375 94.154296875 403.342773438 94.154296875 c 0
 478.4921875 94.154296875 535.377929688 116.482421875 576.71875 160.203125 c 0
 618.157226562 204.02734375 639.501953125 264.131835938 639.501953125 342.793945312 c 0
408.141601562 246.793945312 m 0
 424.8046875 246.793945312 460.94140625 251.060546875 460.94140625 288.07421875 c 2
 460.94140625 305.354492188 l 1
 573.26171875 305.354492188 l 1
 573.26171875 288.07421875 l 2
 573.26171875 243.708984375 557.685546875 206.852539062 526.349609375 180.55859375 c 0
 495.23046875 154.447265625 453.630859375 142.154296875 403.341796875 142.154296875 c 0
 351.897460938 142.154296875 309.155273438 157.294921875 277.540039062 188.555664062 c 0
 245.557617188 220.177734375 230.540039062 265.452148438 230.540039062 321.672851562 c 2
 230.540039062 363.913085938 l 2
 230.540039062 420.133789062 245.555664062 465.409179688 277.538085938 497.03125 c 0
 309.154296875 528.291992188 351.896484375 543.432617188 403.340820312 543.432617188 c 0
 453.665039062 543.432617188 495.307617188 530.951171875 526.422851562 504.485351562 c 0
 557.692382812 477.887695312 573.260742188 440.919921875 573.260742188 396.552734375 c 2
 573.260742188 377.353515625 l 1
 460.940429688 377.353515625 l 1
 460.940429688 394.6328125 l 2
 460.940429688 409.041992188 456.461914062 418.379882812 447.49609375 425.737304688 c 0
 438.244140625 433.328125 425.051757812 437.833984375 406.220703125 437.833984375 c 0
 365.358398438 437.833984375 344.78125 418.368164062 344.78125 362.954101562 c 2
 344.78125 321.673828125 l 2
 344.78125 268.046875 364.415039062 246.793945312 408.141601562 246.793945312 c 0
EndSplineSet
EndChar

StartChar: ordfeminine
Encoding: 170 170 108
Width: 388
GlyphClass: 2
Flags: MW
HStem: 409.034 96<182.673 189.218> 538.634 84.4805<182.482 189.263 189.263 241.839> 654.794 92.1602<191.331 214.846 175.561 216.986>
VStem: 244.942 111.359<412.874 426.911 426.911 426.911>
LayerCount: 2
Fore
SplineSet
197.901367188 746.954101562 m 0
 231.791015625 746.954101562 356.301757812 745.407226562 356.301757812 613.513671875 c 2
 356.301757812 412.874023438 l 1
 244.942382812 412.874023438 l 1
 244.942382812 426.911132812 l 1
 228.412109375 416.913085938 207.4140625 409.034179688 171.022460938 409.034179688 c 0
 132.361328125 409.034179688 100.396484375 418.1953125 77.0927734375 438.4921875 c 0
 53.8291015625 458.752929688 42.3828125 487.034179688 42.3828125 520.393554688 c 0
 42.3828125 553.793945312 55.9208984375 610.288085938 144.8203125 621.194335938 c 1
 51.9814453125 621.194335938 l 1
 51.9814453125 637.513671875 l 2
 51.9814453125 670.349609375 65.4296875 698.1640625 91.197265625 718.041992188 c 0
 117.204101562 738.104492188 153.220703125 746.954101562 197.901367188 746.954101562 c 0
241.967773438 623.114257812 m 1
 241.186523438 638.442382812 237.030273438 654.793945312 196.942382812 654.793945312 c 0
 185.71875 654.793945312 159.501953125 653.123046875 159.501953125 637.513671875 c 2
 159.501953125 622.538085938 l 1
 165.69140625 622.92578125 172.09375 623.114257812 178.703125 623.114257812 c 2
 241.967773438 623.114257812 l 1
189.262695312 538.633789062 m 2
 175.702148438 538.633789062 166.182617188 536.65234375 160.935546875 534.150390625 c 0
 155.008789062 531.323242188 153.743164062 529.094726562 153.743164062 523.274414062 c 0
 153.743164062 517.517578125 155.276367188 514.59765625 160.276367188 511.263671875 c 0
 165.357421875 507.875976562 175.123046875 505.034179688 190.22265625 505.034179688 c 0
 237.229492188 505.034179688 240.89453125 527.163085938 241.838867188 538.633789062 c 1
 189.262695312 538.633789062 l 2
EndSplineSet
EndChar

StartChar: guillemotleft
Encoding: 171 171 109
Width: 586
GlyphClass: 2
Flags: W
LayerCount: 2
Fore
SplineSet
298.702148438 517.928710938 m 1
 298.702148438 359.32421875 l 1
 194.745117188 267.9140625 l 1
 298.702148438 176.50390625 l 1
 298.702148438 17.8994140625 l 1
 17.8486328125 267.9140625 l 1
 298.702148438 517.928710938 l 1
543.501953125 517.928710938 m 1
 543.501953125 359.287109375 l 1
 438.69140625 267.9140625 l 1
 543.501953125 176.541015625 l 1
 543.501953125 17.8994140625 l 1
 262.6484375 267.9140625 l 1
 543.501953125 517.928710938 l 1
EndSplineSet
EndChar

StartChar: logicalnot
Encoding: 172 172 110
Width: 535
GlyphClass: 2
Flags: MW
HStem: 243.914 135.36<55.8223 348.622 55.8223 495.502>
VStem: 348.622 146.88<115.274 243.914 243.914 243.914>
LayerCount: 2
Fore
SplineSet
348.622070312 243.9140625 m 1
 55.822265625 243.9140625 l 1
 55.822265625 379.274414062 l 1
 495.501953125 379.274414062 l 1
 495.501953125 115.274414062 l 1
 348.622070312 115.274414062 l 1
 348.622070312 243.9140625 l 1
EndSplineSet
EndChar

StartChar: uni00AD
Encoding: 173 173 111
Width: 410
GlyphClass: 2
Flags: MW
HStem: 276.554 139.2<51.9814 377.422 51.9814 377.422>
VStem: 51.9814 325.44<276.554 415.754 276.554 415.754>
LayerCount: 2
Fore
SplineSet
51.9814453125 415.75390625 m 1
 377.421875 415.75390625 l 1
 377.421875 276.553710938 l 1
 51.9814453125 276.553710938 l 1
 51.9814453125 415.75390625 l 1
EndSplineSet
EndChar

StartChar: registered
Encoding: 174 174 112
Width: 502
GlyphClass: 2
Flags: MW
HStem: 295.754 67.1992<240.526 278.508 240.526 316.883> 540.553 71.04<249.741 267.021 249.741 249.741> 625.033 67.2002<240.503 278.178>
VStem: 64.4619 69.1191<474.544 514.403 474.544 551.542> 171.021 78.7207<379.273 454.153 379.273 525.193 525.193 540.553> 385.101 70.0811<474.523 514.403>
LayerCount: 2
Fore
SplineSet
259.341796875 295.75390625 m 0
 143.194335938 295.75390625 64.4619140625 385.206054688 64.4619140625 494.47265625 c 0
 64.4619140625 608.611328125 149.272460938 692.233398438 259.341796875 692.233398438 c 0
 376.090820312 692.233398438 455.181640625 602.598632812 455.181640625 494.473632812 c 0
 455.181640625 383.24609375 374.423828125 295.75390625 259.341796875 295.75390625 c 0
385.100585938 494.47265625 m 0
 385.100585938 534.333007812 373.20703125 565.1171875 349.837890625 589.056640625 c 0
 326.416015625 613.049804688 297.015625 625.033203125 259.340820312 625.033203125 c 0
 221.666015625 625.033203125 192.265625 613.049804688 168.84375 589.056640625 c 0
 145.474609375 565.1171875 133.581054688 534.333007812 133.581054688 494.47265625 c 0
 133.581054688 454.616210938 145.477539062 423.630859375 168.904296875 399.34765625 c 0
 192.340820312 375.053710938 221.711914062 362.953125 259.340820312 362.953125 c 0
 297.674804688 362.953125 327.147460938 375.096679688 350.196289062 399.283203125 c 0
 373.326171875 423.5546875 385.100585938 454.573242188 385.100585938 494.47265625 c 0
171.020507812 611.592773438 m 1
 269.901367188 611.592773438 l 2
 295.684570312 611.592773438 317.6484375 605.6953125 333.940429688 591.84765625 c 0
 350.483398438 577.782226562 358.220703125 557.348632812 358.220703125 533.833007812 c 0
 358.220703125 507.15234375 347.357421875 485.157226562 327.052734375 470.654296875 c 1
 371.680664062 379.2734375 l 1
 285.751953125 379.2734375 l 1
 250.231445312 454.153320312 l 1
 249.741210938 454.153320312 l 1
 249.741210938 379.2734375 l 1
 171.020507812 379.2734375 l 1
 171.020507812 611.592773438 l 1
267.020507812 525.193359375 m 2
 273.319335938 525.193359375 276.634765625 526.490234375 277.7109375 527.197265625 c 0
 278.49609375 527.712890625 279.500976562 527.994140625 279.500976562 532.873046875 c 0
 279.500976562 537.751953125 278.49609375 538.033203125 277.7109375 538.548828125 c 0
 276.634765625 539.255859375 273.319335938 540.552734375 267.020507812 540.552734375 c 2
 249.741210938 540.552734375 l 1
 249.741210938 525.193359375 l 1
 267.020507812 525.193359375 l 2
EndSplineSet
EndChar

StartChar: macron
Encoding: 175 175 113
Width: 507
GlyphClass: 2
Flags: MW
HStem: 566.474 134.4<95.1816 429.262 95.1816 429.262>
LayerCount: 2
Fore
SplineSet
95.181640625 700.874023438 m 1
 429.26171875 700.874023438 l 1
 429.26171875 566.473632812 l 1
 95.181640625 566.473632812 l 1
 95.181640625 700.874023438 l 1
EndSplineSet
EndChar

StartChar: degree
Encoding: 176 176 114
Width: 404
GlyphClass: 2
Flags: MW
HStem: 390.794 100.801<207.826 224.017 207.826 261.512> 601.034 100.8<207.826 224.017>
VStem: 60.6211 103.679<537.53 555.096 537.53 591.688> 267.98 103.681<537.961 554.669>
LayerCount: 2
Fore
SplineSet
371.661132812 546.315429688 m 0
 371.661132812 460.51953125 306.8828125 390.793945312 216.141601562 390.793945312 c 0
 172.469726562 390.793945312 134.768554688 405.7265625 105.161132812 435.333984375 c 0
 75.5537109375 464.94140625 60.62109375 502.642578125 60.62109375 546.315429688 c 0
 60.62109375 637.061523438 130.352539062 701.833984375 216.141601562 701.833984375 c 0
 303.633789062 701.833984375 371.661132812 633.803710938 371.661132812 546.315429688 c 0
267.98046875 546.314453125 m 0
 267.98046875 563.024414062 263.0390625 575.520507812 253.228515625 585.83203125 c 0
 243.48828125 596.072265625 231.892578125 601.034179688 216.140625 601.034179688 c 0
 199.510742188 601.034179688 187.822265625 596.048828125 178.580078125 586.319335938 c 0
 169.245117188 576.4921875 164.299804688 563.876953125 164.299804688 546.314453125 c 0
 164.299804688 528.74609375 169.247070312 516.130859375 178.579101562 506.309570312 c 0
 187.822265625 496.581054688 199.510742188 491.594726562 216.140625 491.594726562 c 0
 231.892578125 491.594726562 243.487304688 496.555664062 253.227539062 506.795898438 c 0
 263.041015625 517.114257812 267.98046875 529.608398438 267.98046875 546.314453125 c 0
EndSplineSet
EndChar

StartChar: plusminus
Encoding: 177 177 115
Width: 535
GlyphClass: 2
Flags: MW
HStem: -34.4863 138.24<53.9014 498.382 53.9014 498.382> 269.834 138.24<53.9014 207.502 53.9014 207.502 345.742 498.382>
VStem: 207.502 138.24<116.234 269.834 116.234 269.834 408.074 561.674>
LayerCount: 2
Fore
SplineSet
345.7421875 269.833984375 m 1
 345.7421875 116.234375 l 1
 207.501953125 116.234375 l 1
 207.501953125 269.833984375 l 1
 53.9013671875 269.833984375 l 1
 53.9013671875 408.07421875 l 1
 207.501953125 408.07421875 l 1
 207.501953125 561.673828125 l 1
 345.7421875 561.673828125 l 1
 345.7421875 408.07421875 l 1
 498.381835938 408.07421875 l 1
 498.381835938 269.833984375 l 1
 345.7421875 269.833984375 l 1
53.9013671875 103.75390625 m 1
 498.381835938 103.75390625 l 1
 498.381835938 -34.486328125 l 1
 53.9013671875 -34.486328125 l 1
 53.9013671875 103.75390625 l 1
EndSplineSet
EndChar

StartChar: uni00B2
Encoding: 178 178 116
Width: 400
GlyphClass: 2
Flags: MW
HStem: 412.874 114.24<243.298 366.862 243.298 366.862> 739.274 111.359<192.033 220.88>
VStem: 55.8223 311.04<412.874 510.008 510.008 510.008> 237.261 129.601<708.554 711.434 711.434 714.314 714.314 719.114 686.562 720.12>
LayerCount: 2
Fore
SplineSet
206.541015625 739.274414062 m 0xd0
 177.525390625 739.274414062 175.821289062 724.137695312 175.821289062 715.274414062 c 2
 175.821289062 695.114257812 l 1
 51.98046875 695.114257812 l 1
 51.98046875 718.154296875 l 2
 51.98046875 758.0703125 66.13671875 791.52734375 94.52734375 815.55078125 c 0
 122.931640625 839.584960938 161.83984375 850.633789062 209.420898438 850.633789062 c 0
 255.901367188 850.633789062 294.501953125 839.115234375 323.37890625 814.569335938 c 0
 352.099609375 790.157226562 366.861328125 757.47265625 366.861328125 719.114257812 c 2
 366.861328125 711.43359375 l 2xd0
 366.861328125 661.689453125 344.091796875 631.688476562 296.219726562 582.020507812 c 2
 243.297851562 527.114257812 l 1
 366.862304688 527.114257812 l 1
 366.862304688 412.874023438 l 1
 55.822265625 412.874023438 l 1
 55.822265625 510.0078125 l 1xe0
 106.708984375 561.202148438 157.548828125 612.442382812 208.465820312 663.607421875 c 0
 232.913085938 685.481445312 237.260742188 697.984375 237.260742188 708.553710938 c 2
 237.260742188 714.314453125 l 2
 237.260742188 725.92578125 235.21875 739.274414062 206.541015625 739.274414062 c 0xd0
EndSplineSet
EndChar

StartChar: uni00B3
Encoding: 179 179 117
Width: 394
GlyphClass: 2
Flags: MW
HStem: 406.154 109.44<185.423 220.47 185.423 253.245> 577.994 110.399<157.583 194.062 194.062 195.022 157.583 194.062> 741.194 109.439<184.463 215.861>
VStem: 49.1025 118.08<535.755 537.675 537.675 557.835 534.036 557.835> 238.223 124.799<541.514 542.474 542.474 548.234 548.234 550.154 501.68 553.011>
LayerCount: 2
Fore
SplineSet
363.021484375 542.473632812 m 2
 363.021484375 460.885742188 300.907226562 406.154296875 205.58203125 406.154296875 c 0
 157.002929688 406.154296875 118.0859375 416.161132812 90.4248046875 438.658203125 c 0
 62.5126953125 461.360351562 49.1025390625 494.904296875 49.1025390625 535.754882812 c 2
 49.1025390625 557.834960938 l 1
 167.182617188 557.834960938 l 1
 167.182617188 537.674804688 l 2
 167.182617188 530.397460938 167.182617188 515.594726562 203.663085938 515.594726562 c 0
 237.276367188 515.594726562 238.22265625 533.345703125 238.22265625 541.513671875 c 2
 238.22265625 548.234375 l 2
 238.22265625 557.788085938 238.22265625 577.994140625 195.022460938 577.994140625 c 2
 157.583007812 577.994140625 l 1
 157.583007812 688.393554688 l 1
 194.0625 688.393554688 l 2
 231.502929688 688.393554688 231.502929688 703.873046875 231.502929688 711.43359375 c 2
 231.502929688 718.154296875 l 2
 231.502929688 727.19921875 230.938476562 741.194335938 200.783203125 741.194335938 c 0
 168.142578125 741.194335938 168.142578125 727.431640625 168.142578125 720.07421875 c 2
 168.142578125 698.954101562 l 1
 51.0224609375 698.954101562 l 1
 51.0224609375 719.114257812 l 2
 51.0224609375 798.624023438 100.627929688 850.633789062 204.623046875 850.633789062 c 0
 249.05859375 850.633789062 285.927734375 840.17578125 313.555664062 817.63671875 c 0
 341.305664062 794.998046875 355.342773438 763.399414062 355.342773438 725.833984375 c 2
 355.342773438 719.114257812 l 2
 355.342773438 703.665039062 351.263671875 668.931640625 317.905273438 643.19140625 c 1
 344.1328125 626.370117188 363.021484375 594.513671875 363.021484375 550.154296875 c 2
 363.021484375 542.473632812 l 2
EndSplineSet
EndChar

StartChar: acute
Encoding: 180 180 118
Width: 507
GlyphClass: 2
Flags: MW
HStem: 564.554 156.48<240.968 252.667 113.901 415.03>
VStem: 113.901 301.129<564.554 721.034>
LayerCount: 2
Fore
SplineSet
240.967773438 721.034179688 m 1
 415.030273438 721.034179688 l 1
 252.666992188 564.553710938 l 1
 113.901367188 564.553710938 l 1
 240.967773438 721.034179688 l 1
EndSplineSet
EndChar

StartChar: uni00B5
Encoding: 181 181 119
Width: 577
GlyphClass: 2
Flags: MW
HStem: -5.68555 134.399<264.07 303.607> 508.074 20G<59.6621 207.502 207.502 207.502 386.062 533.901 533.901 533.901>
VStem: 59.6621 147.84<-149.686 5.69238 193.028 226.634 226.634 528.074> 386.062 147.84<231.434 528.074 0.0742188 528.074>
LayerCount: 2
Fore
SplineSet
388.94140625 31.1923828125 m 1
 368.435546875 14.53515625 330.592773438 -5.685546875 276.622070312 -5.685546875 c 0
 251.518554688 -5.685546875 228.399414062 -1.95703125 207.501953125 5.6923828125 c 1
 207.501953125 -149.685546875 l 1
 59.662109375 -149.685546875 l 1
 59.662109375 528.07421875 l 1
 207.501953125 528.07421875 l 1
 207.501953125 226.633789062 l 2
 207.501953125 159.422851562 235.733398438 128.713867188 291.981445312 128.713867188 c 0
 330.666992188 128.713867188 386.061523438 143.982421875 386.061523438 231.43359375 c 2
 386.061523438 528.07421875 l 1
 533.901367188 528.07421875 l 1
 533.901367188 0.07421875 l 1
 388.94140625 0.07421875 l 1
 388.94140625 31.1923828125 l 1
EndSplineSet
EndChar

StartChar: paragraph
Encoding: 182 182 120
Width: 699
GlyphClass: 2
Flags: MW
HStem: 566.474 124.801<434.062 434.062 434.062 487.822>
VStem: 64.4629 369.599<438.235 506.55> 299.662 134.399<-149.686 252.722 252.722 252.722> 487.822 133.439<-149.686 566.474 566.474 566.474>
LayerCount: 2
Fore
SplineSet
434.061523438 566.473632812 m 1xb0
 434.061523438 -149.685546875 l 1
 299.662109375 -149.685546875 l 1
 299.662109375 252.721679688 l 1xb0
 228.979492188 254.649414062 171.958007812 273.177734375 130.3046875 309.911132812 c 0
 86.0986328125 348.896484375 64.462890625 404.077148438 64.462890625 472.393554688 c 0xd0
 64.462890625 540.70703125 86.1005859375 595.760742188 130.353515625 634.439453125 c 0
 174.353515625 672.896484375 234.647460938 691.274414062 309.26171875 691.274414062 c 2
 621.26171875 691.274414062 l 1
 621.26171875 -149.685546875 l 1
 487.822265625 -149.685546875 l 1
 487.822265625 566.473632812 l 1
 434.061523438 566.473632812 l 1xb0
EndSplineSet
EndChar

StartChar: periodcentered
Encoding: 183 183 121
Width: 230
GlyphClass: 2
Flags: MW
HStem: 199.754 165.12<44.3018 206.542 44.3018 206.542>
VStem: 44.3018 162.24<199.754 364.874 199.754 364.874>
LayerCount: 2
Fore
SplineSet
44.3017578125 364.874023438 m 1
 206.541992188 364.874023438 l 1
 206.541992188 199.75390625 l 1
 44.3017578125 199.75390625 l 1
 44.3017578125 364.874023438 l 1
EndSplineSet
EndChar

StartChar: cedilla
Encoding: 184 184 122
Width: 507
GlyphClass: 2
Flags: MW
HStem: -149.686 191.04<234.237 283.419 135.892 361.418>
VStem: 135.892 225.526<-149.686 41.3545>
LayerCount: 2
Fore
SplineSet
361.41796875 41.3544921875 m 1
 283.418945312 -149.685546875 l 1
 135.891601562 -149.685546875 l 1
 234.237304688 41.3544921875 l 1
 361.41796875 41.3544921875 l 1
EndSplineSet
EndChar

StartChar: uni00B9
Encoding: 185 185 123
Width: 298
GlyphClass: 2
Flags: MW
VStem: 123.021 127.681<412.874 702.427 702.427 702.427>
LayerCount: 2
Fore
SplineSet
37.58203125 655.38671875 m 1
 37.58203125 789.94140625 l 1
 133.653320312 843.9140625 l 1
 250.702148438 843.9140625 l 1
 250.702148438 412.874023438 l 1
 123.021484375 412.874023438 l 1
 123.021484375 702.426757812 l 1
 37.58203125 655.38671875 l 1
EndSplineSet
EndChar

StartChar: ordmasculine
Encoding: 186 186 124
Width: 389
GlyphClass: 2
Flags: MW
HStem: 409.034 105.599<186.394 216.086 186.394 227.359> 641.354 105.599<182.838 224.506>
VStem: 44.3018 114.24<564.553 565.513 565.513 595.273 551.502 645.248> 248.782 114.239<565.514 595.273 540.478 595.274 540.478 603.462>
LayerCount: 2
Fore
SplineSet
44.3017578125 595.2734375 m 2
 44.3017578125 695.22265625 108.303710938 746.953125 203.662109375 746.953125 c 0
 251.559570312 746.953125 291.077148438 734.354492188 319.995117188 707.604492188 c 0
 349.161132812 680.626953125 363.021484375 642.19921875 363.021484375 595.2734375 c 2
 363.021484375 564.552734375 l 2
 363.021484375 516.403320312 349.053710938 477.056640625 319.590820312 449.412109375 c 0
 290.446289062 422.067382812 251.055664062 409.034179688 203.662109375 409.034179688 c 0
 155.140625 409.034179688 115.37109375 421.78125 86.7109375 448.991210938 c 0
 57.8203125 476.418945312 44.3017578125 515.907226562 44.3017578125 564.552734375 c 2
 44.3017578125 595.2734375 l 2
203.662109375 514.6328125 m 0
 228.509765625 514.6328125 248.782226562 526.56640625 248.782226562 565.513671875 c 2
 248.782226562 595.274414062 l 2
 248.782226562 611.649414062 245.349609375 641.354492188 203.662109375 641.354492188 c 0
 162.014648438 641.354492188 158.541992188 611.7109375 158.541992188 595.2734375 c 2
 158.541992188 565.512695312 l 2
 158.541992188 537.4921875 169.125976562 514.6328125 203.662109375 514.6328125 c 0
EndSplineSet
EndChar

StartChar: guillemotright
Encoding: 187 187 125
Width: 586
GlyphClass: 2
Flags: W
LayerCount: 2
Fore
SplineSet
59.662109375 17.8994140625 m 1
 59.662109375 176.541015625 l 1
 164.47265625 267.9140625 l 1
 59.662109375 359.287109375 l 1
 59.662109375 517.928710938 l 1
 340.514648438 267.9140625 l 1
 59.662109375 17.8994140625 l 1
304.461914062 359.32421875 m 1
 304.461914062 517.928710938 l 1
 585.315429688 267.9140625 l 1
 304.461914062 17.8994140625 l 1
 304.461914062 176.50390625 l 1
 408.418945312 267.9140625 l 1
 304.461914062 359.32421875 l 1
EndSplineSet
EndChar

StartChar: onequarter
Encoding: 188 188 126
Width: 854
GlyphClass: 3
Flags: MW
HStem: 0.0742188 21G<114.047 114.047 114.047 245.149 676.941 676.941 676.941 804.622> 54.7939 114.24<628.053 676.941 628.053 676.941 804.622 833.422> 676.074 20G<557.685 689.788 689.788 689.788>
VStem: 123.021 127.681<260.234 549.787 549.787 549.787> 676.941 127.681<0.0742188 54.7939 0.0742188 54.7939 169.034 253.514>
LayerCount: 2
Fore
SplineSet
114.046875 0.07421875 m 1
 557.684570312 696.07421875 l 1
 689.788085938 696.07421875 l 1
 245.149414062 0.07421875 l 1
 114.046875 0.07421875 l 1
37.58203125 502.747070312 m 1
 37.58203125 637.301757812 l 1
 133.653320312 691.274414062 l 1
 250.702148438 691.274414062 l 1
 250.702148438 260.234375 l 1
 123.021484375 260.234375 l 1
 123.021484375 549.787109375 l 1
 37.58203125 502.747070312 l 1
804.622070312 169.034179688 m 1
 833.421875 169.034179688 l 1
 833.421875 54.7939453125 l 1
 804.622070312 54.7939453125 l 1
 804.622070312 0.07421875 l 1
 676.94140625 0.07421875 l 1
 676.94140625 54.7939453125 l 1
 489.7421875 54.7939453125 l 1
 489.7421875 157.98046875 l 1
 623.807617188 431.114257812 l 1
 756.692382812 431.114257812 l 1
 628.052734375 169.034179688 l 1
 676.94140625 169.034179688 l 1
 676.94140625 253.513671875 l 1
 804.622070312 253.513671875 l 1
 804.622070312 169.034179688 l 1
EndSplineSet
Ligature2: "'frac' Diagonal Fractions lookup 2 subtable" one slash four
EndChar

StartChar: onehalf
Encoding: 189 189 127
Width: 877
GlyphClass: 3
Flags: MW
HStem: 0.0742188 114.24<715.617 839.182 715.617 839.182> 326.474 111.36<664.354 693.201> 676.074 20G<557.685 689.788 689.788 689.788>
VStem: 123.021 127.681<260.234 549.787 549.787 549.787> 528.142 311.04<0.0742188 97.207 97.207 97.207> 709.582 129.6<295.754 298.634 298.634 301.514 301.514 306.314>
LayerCount: 2
Fore
SplineSet
689.788085938 696.07421875 m 1xf0
 245.149414062 0.07421875 l 1
 114.046875 0.07421875 l 1
 557.684570312 696.07421875 l 1
 689.788085938 696.07421875 l 1xf0
37.58203125 502.747070312 m 1
 37.58203125 637.301757812 l 1
 133.653320312 691.274414062 l 1
 250.702148438 691.274414062 l 1
 250.702148438 260.234375 l 1
 123.021484375 260.234375 l 1
 123.021484375 549.787109375 l 1
 37.58203125 502.747070312 l 1
678.862304688 326.473632812 m 0
 649.845703125 326.473632812 648.141601562 311.337890625 648.141601562 302.473632812 c 2
 648.141601562 282.314453125 l 1
 524.301757812 282.314453125 l 1
 524.301757812 305.354492188 l 2
 524.301757812 345.270507812 538.458007812 378.727539062 566.848632812 402.750976562 c 0
 595.252929688 426.78515625 634.16015625 437.833984375 681.7421875 437.833984375 c 0
 728.22265625 437.833984375 766.823242188 426.314453125 795.700195312 401.76953125 c 0
 824.419921875 377.357421875 839.181640625 344.671875 839.181640625 306.314453125 c 2
 839.181640625 298.633789062 l 2xf8
 839.181640625 248.895507812 816.421875 218.899414062 768.540039062 169.220703125 c 2
 715.6171875 114.314453125 l 1
 839.181640625 114.314453125 l 1xf4
 839.181640625 0.07421875 l 1
 528.141601562 0.07421875 l 1
 528.141601562 97.20703125 l 1xf8
 579.029296875 148.401367188 629.870117188 199.642578125 680.786132812 250.807617188 c 0
 705.234375 272.680664062 709.58203125 285.184570312 709.58203125 295.75390625 c 2
 709.58203125 301.513671875 l 2xf4
 709.58203125 313.125976562 707.540039062 326.473632812 678.862304688 326.473632812 c 0
EndSplineSet
Ligature2: "'frac' Diagonal Fractions lookup 2 subtable" one slash two
EndChar

StartChar: threequarters
Encoding: 190 190 128
Width: 945
GlyphClass: 3
Flags: MW
HStem: 0.0742188 21G<203.328 203.328 203.328 334.431 766.223 766.223 766.223 893.902> 54.7939 114.24<717.334 766.223 717.334 766.223 893.902 922.703> 253.514 109.44<185.423 220.46 185.423 253.245> 425.354 110.399<157.583 194.062 194.062 195.022 157.583 194.062> 588.554 109.44<184.463 215.861>
VStem: 49.1025 118.08<383.114 385.034 385.034 405.194 381.398 405.194> 238.223 124.799<388.874 389.834 389.834 395.594 395.594 397.514 349.04 400.371> 766.223 127.68<0.0742188 54.7939 0.0742188 54.7939 169.034 253.514>
LayerCount: 2
Fore
SplineSet
363.021484375 389.833984375 m 2
 363.021484375 308.24609375 300.907226562 253.513671875 205.583007812 253.513671875 c 0
 157.00390625 253.513671875 118.086914062 263.521484375 90.42578125 286.017578125 c 0
 62.5146484375 308.719726562 49.1025390625 342.262695312 49.1025390625 383.114257812 c 2
 49.1025390625 405.194335938 l 1
 167.182617188 405.194335938 l 1
 167.182617188 385.034179688 l 2
 167.182617188 377.76171875 167.182617188 362.954101562 203.663085938 362.954101562 c 0
 237.256835938 362.954101562 238.22265625 380.680664062 238.22265625 388.874023438 c 2
 238.22265625 395.59375 l 2
 238.22265625 405.1484375 238.22265625 425.354492188 195.022460938 425.354492188 c 2
 157.583007812 425.354492188 l 1
 157.583007812 535.75390625 l 1
 194.0625 535.75390625 l 2
 231.502929688 535.75390625 231.502929688 551.233398438 231.502929688 558.793945312 c 2
 231.502929688 565.513671875 l 2
 231.502929688 574.559570312 230.938476562 588.553710938 200.783203125 588.553710938 c 0
 168.142578125 588.553710938 168.142578125 574.791015625 168.142578125 567.43359375 c 2
 168.142578125 546.314453125 l 1
 51.0224609375 546.314453125 l 1
 51.0224609375 566.473632812 l 2
 51.0224609375 645.984375 100.627929688 697.994140625 204.623046875 697.994140625 c 0
 249.05859375 697.994140625 285.927734375 687.536132812 313.555664062 664.997070312 c 0
 341.305664062 642.358398438 355.342773438 610.758789062 355.342773438 573.194335938 c 2
 355.342773438 566.473632812 l 2
 355.342773438 553.576171875 352.203125 516.350585938 318.31640625 490.286132812 c 1
 332.858398438 480.84765625 363.021484375 454.411132812 363.021484375 397.513671875 c 2
 363.021484375 389.833984375 l 2
203.328125 0.07421875 m 1
 646.965820312 696.07421875 l 1
 779.069335938 696.07421875 l 1
 334.430664062 0.07421875 l 1
 203.328125 0.07421875 l 1
893.90234375 169.034179688 m 1
 922.703125 169.034179688 l 1
 922.703125 54.7939453125 l 1
 893.90234375 54.7939453125 l 1
 893.90234375 0.07421875 l 1
 766.22265625 0.07421875 l 1
 766.22265625 54.7939453125 l 1
 579.022460938 54.7939453125 l 1
 579.022460938 157.98046875 l 1
 713.087890625 431.114257812 l 1
 845.973632812 431.114257812 l 1
 717.333984375 169.034179688 l 1
 766.22265625 169.034179688 l 1
 766.22265625 253.513671875 l 1
 893.90234375 253.513671875 l 1
 893.90234375 169.034179688 l 1
EndSplineSet
Ligature2: "'frac' Diagonal Fractions lookup 2 subtable" three slash four
EndChar

StartChar: questiondown
Encoding: 191 191 129
Width: 507
GlyphClass: 2
Flags: MW
HStem: -159.286 136.32<233.641 297.832 231.626 377.272> 376.394 151.681<193.102 347.662 193.102 347.662>
VStem: 40.4619 151.68<26.4067 44.9863 26.4067 68.7368> 193.102 154.561<376.394 528.074 376.394 528.074>
LayerCount: 2
Fore
SplineSet
193.1015625 528.07421875 m 1
 347.662109375 528.07421875 l 1
 347.662109375 376.393554688 l 1
 193.1015625 376.393554688 l 1
 193.1015625 528.07421875 l 1
192.141601562 33.673828125 m 0
 192.141601562 19.1396484375 193.350585938 -22.9658203125 269.901367188 -22.9658203125 c 0
 325.762695312 -22.9658203125 344.72265625 -1.1044921875 345.745117188 39.7998046875 c 2
 346.096679688 53.833984375 l 1
 491.00390625 53.833984375 l 1
 489.7578125 -5.962890625 486.563476562 -159.286132812 267.98046875 -159.286132812 c 0
 199.30078125 -159.286132812 143.595703125 -143.609375 102.481445312 -110.5078125 c 0
 61.1953125 -77.2685546875 40.4619140625 -30.728515625 40.4619140625 25.9951171875 c 0
 40.4619140625 111.478515625 86.4384765625 157.563476562 110.283203125 179.525390625 c 0
 110.391601562 179.625976562 158.36328125 224.719726562 158.36328125 224.719726562 c 2
 174.823242188 239.9609375 184.987304688 253.311523438 189.509765625 263.610351562 c 0
 194.108398438 274.084960938 196.94140625 289.645507812 196.94140625 310.154296875 c 2
 196.94140625 340.874023438 l 1
 344.782226562 340.874023438 l 1
 344.782226562 295.75390625 l 2
 344.782226562 226.725585938 330.240234375 194.524414062 281.666015625 149.888671875 c 0
 281.559570312 149.790039062 235.5859375 106.688476562 235.5859375 106.688476562 c 2
 235.500976562 106.607421875 235.4140625 106.528320312 235.326171875 106.450195312 c 0
 200.42578125 75.2890625 192.141601562 56.298828125 192.141601562 33.673828125 c 0
EndSplineSet
EndChar

StartChar: Agrave
Encoding: 192 192 130
Width: 682
GlyphClass: 2
Flags: MW
HStem: 0.0742188 21G<4.58887 4.58887 4.58887 170.461 527.742 527.742 527.742 693.614> 128.714 133.44<268.578 429.557 268.578 479.742 218.461 429.557> 671.274 20G<288.081 410.122 410.122 410.122>
LayerCount: 2
Fore
SplineSet
4.5888671875 0.07421875 m 1
 288.081054688 691.274414062 l 1
 410.122070312 691.274414062 l 1
 693.614257812 0.07421875 l 1
 527.7421875 0.07421875 l 1
 479.7421875 128.713867188 l 1
 218.4609375 128.713867188 l 1
 170.4609375 0.07421875 l 1
 4.5888671875 0.07421875 l 1
268.578125 262.154296875 m 1
 429.556640625 262.154296875 l 1
 348.685546875 476.538085938 l 1
 268.578125 262.154296875 l 1
136.548828125 884.234375 m 1
 325.260742188 884.234375 l 1
 466.4453125 727.75390625 l 1
 321.266601562 727.75390625 l 1
 136.548828125 884.234375 l 1
EndSplineSet
EndChar

StartChar: Aacute
Encoding: 193 193 131
Width: 682
GlyphClass: 2
Flags: MW
HStem: 0.0742188 21G<4.58887 4.58887 4.58887 170.461 527.742 527.742 527.742 693.614> 128.714 133.44<268.578 429.557 268.578 479.742 218.461 429.557> 671.274 20G<288.081 410.122 410.122 410.122>
LayerCount: 2
Fore
SplineSet
4.5888671875 0.07421875 m 1
 288.081054688 691.274414062 l 1
 410.122070312 691.274414062 l 1
 693.614257812 0.07421875 l 1
 527.7421875 0.07421875 l 1
 479.7421875 128.713867188 l 1
 218.4609375 128.713867188 l 1
 170.4609375 0.07421875 l 1
 4.5888671875 0.07421875 l 1
268.578125 262.154296875 m 1
 429.556640625 262.154296875 l 1
 348.685546875 476.538085938 l 1
 268.578125 262.154296875 l 1
529.014648438 884.234375 m 1
 344.297851562 727.75390625 l 1
 199.118164062 727.75390625 l 1
 340.302734375 884.234375 l 1
 529.014648438 884.234375 l 1
EndSplineSet
EndChar

StartChar: Acircumflex
Encoding: 194 194 132
Width: 682
GlyphClass: 2
Flags: MW
HStem: 0.0742188 21G<4.58887 4.58887 4.58887 170.461 527.742 527.742 527.742 693.614> 128.714 133.44<268.578 429.557 268.578 479.742 218.461 429.557> 671.274 20G<288.081 410.122 410.122 410.122>
LayerCount: 2
Fore
SplineSet
4.5888671875 0.07421875 m 1
 288.081054688 691.274414062 l 1
 410.122070312 691.274414062 l 1
 693.614257812 0.07421875 l 1
 527.7421875 0.07421875 l 1
 479.7421875 128.713867188 l 1
 218.4609375 128.713867188 l 1
 170.4609375 0.07421875 l 1
 4.5888671875 0.07421875 l 1
268.578125 262.154296875 m 1
 429.556640625 262.154296875 l 1
 348.685546875 476.538085938 l 1
 268.578125 262.154296875 l 1
399.219726562 890.954101562 m 1
 554.568359375 717.194335938 l 1
 416.36328125 717.194335938 l 1
 349.513671875 787.5625 l 1
 281.784179688 717.194335938 l 1
 143.635742188 717.194335938 l 1
 298.983398438 890.954101562 l 1
 399.219726562 890.954101562 l 1
EndSplineSet
EndChar

StartChar: Atilde
Encoding: 195 195 133
Width: 682
GlyphClass: 2
Flags: MW
HStem: 0.0742188 21G<4.58887 4.58887 4.58887 170.461 527.742 527.742 527.742 693.614> 128.714 133.44<268.578 429.557 268.578 479.742 218.461 429.557> 671.274 20G<288.081 410.122 410.122 410.122> 722.954 119.039<400.574 435.188 398.156 438.908> 759.435 119.038<264.358 286.695>
LayerCount: 2
Fore
SplineSet
4.5888671875 0.07421875 m 1xe0
 288.081054688 691.274414062 l 1
 410.122070312 691.274414062 l 1
 693.614257812 0.07421875 l 1
 527.7421875 0.07421875 l 1
 479.7421875 128.713867188 l 1
 218.4609375 128.713867188 l 1
 170.4609375 0.07421875 l 1
 4.5888671875 0.07421875 l 1xe0
268.578125 262.154296875 m 1
 429.556640625 262.154296875 l 1
 348.685546875 476.538085938 l 1
 268.578125 262.154296875 l 1
284.302734375 878.47265625 m 0xe8
 350.421875 878.47265625 374.729492188 841.993164062 421.583007812 841.993164062 c 0
 448.79296875 841.993164062 460.977539062 851.657226562 516.622070312 895.791015625 c 1
 516.622070312 771.533203125 l 1
 489.538085938 745.569335938 462.954101562 722.954101562 414.862304688 722.954101562 c 0xf0
 386.286132812 722.954101562 373.4375 727.212890625 318.032226562 750.499023438 c 0
 308.905273438 754.384765625 294.848632812 759.434570312 278.541992188 759.434570312 c 0
 250.174804688 759.434570312 235.322265625 748.166992188 181.58203125 707.396484375 c 1
 181.58203125 829.895507812 l 1
 210.100585938 857.224609375 235.951171875 878.47265625 284.302734375 878.47265625 c 0xe8
EndSplineSet
EndChar

StartChar: Adieresis
Encoding: 196 196 134
Width: 682
GlyphClass: 2
Flags: MW
HStem: 0.0742188 21G<4.58887 4.58887 4.58887 170.461 527.742 527.742 527.742 693.614> 128.714 133.44<268.578 429.557 268.578 479.742 218.461 429.557> 671.274 20G<288.081 410.122 410.122 410.122> 726.794 140.16<172.941 304.462 172.941 304.462 172.941 393.742 393.742 525.262>
VStem: 172.941 131.521<726.794 866.954 726.794 866.954> 393.742 131.52<726.794 866.954 726.794 866.954>
LayerCount: 2
Fore
SplineSet
4.5888671875 0.07421875 m 1
 288.081054688 691.274414062 l 1
 410.122070312 691.274414062 l 1
 693.614257812 0.07421875 l 1
 527.7421875 0.07421875 l 1
 479.7421875 128.713867188 l 1
 218.4609375 128.713867188 l 1
 170.4609375 0.07421875 l 1
 4.5888671875 0.07421875 l 1
268.578125 262.154296875 m 1
 429.556640625 262.154296875 l 1
 348.685546875 476.538085938 l 1
 268.578125 262.154296875 l 1
172.94140625 866.954101562 m 1
 304.461914062 866.954101562 l 1
 304.461914062 726.793945312 l 1
 172.94140625 726.793945312 l 1
 172.94140625 866.954101562 l 1
393.7421875 866.954101562 m 1
 525.26171875 866.954101562 l 1
 525.26171875 726.793945312 l 1
 393.7421875 726.793945312 l 1
 393.7421875 866.954101562 l 1
EndSplineSet
EndChar

StartChar: Aring
Encoding: 197 197 135
Width: 682
GlyphClass: 2
Flags: MW
HStem: 0.0771484 21G<4.57715 170.461 4.57715 4.57715> 128.717 133.44<218.461 429.557> 793.997 81.5977<344.957 354.206>
VStem: 236.302 83.5205<756.658 766.539 756.658 777.397> 380.302 82.5605<756.66 766.47>
LayerCount: 2
Fore
SplineSet
462.862304688 761.354492188 m 0
 462.862304688 743.607421875 458.463867188 699.87890625 418.319335938 670.345703125 c 1
 693.625976562 0.07421875 l 1
 527.7421875 0.07421875 l 1
 479.7421875 128.713867188 l 1
 392.6484375 128.713867188 305.5546875 128.716796875 218.4609375 128.716796875 c 1
 170.4609375 0.0771484375 l 1
 4.5771484375 0.0771484375 l 1
 279.999023438 670.626953125 l 1
 263.248046875 683.444335938 236.301757812 711.771484375 236.301757812 761.354492188 c 0
 236.301757812 793.439453125 247.18359375 821.396484375 268.841796875 843.055664062 c 0
 290.432617188 864.646484375 318.046875 875.594726562 349.58203125 875.594726562 c 0
 381.1171875 875.594726562 408.731445312 864.646484375 430.322265625 843.055664062 c 0
 451.98046875 821.396484375 462.862304688 793.439453125 462.862304688 761.354492188 c 0
319.822265625 761.356445312 m 0
 319.822265625 751.958984375 322.63671875 745.044921875 328.745117188 738.711914062 c 0
 334.892578125 732.336914062 341.189453125 729.677734375 349.58203125 729.677734375 c 0
 358.830078125 729.677734375 365.381835938 732.493164062 371.376953125 738.709960938 c 0
 377.487304688 745.046875 380.301757812 751.962890625 380.301757812 761.356445312 c 0
 380.301757812 771.583007812 377.348632812 778.772460938 371.376953125 784.96484375 c 0
 365.381835938 791.181640625 358.830078125 793.997070312 349.58203125 793.997070312 c 0
 340.331054688 793.997070312 334.0703125 791.209960938 328.454101562 785.163085938 c 0
 322.736328125 779.005859375 319.822265625 771.720703125 319.822265625 761.356445312 c 0
268.578125 262.157226562 m 1
 429.556640625 262.157226562 l 1
 348.685546875 476.541015625 l 1
 268.578125 262.157226562 l 1
EndSplineSet
EndChar

StartChar: AE
Encoding: 198 198 136
Width: 987
GlyphClass: 2
Flags: MW
HStem: 0.0742188 138.24<615.502 958.222 615.502 958.222> 135.434 133.44<323.154 459.981 323.154 459.981 249.593 459.981> 279.434 138.24<615.502 909.262 615.502 909.262> 553.034 138.24<615.502 958.222 615.502 615.502>
VStem: 459.981 155.521<0.0742188 279.434 135.434 279.434 268.874 279.434 417.674 515.613 515.613 515.613>
LayerCount: 2
Fore
SplineSet
1.1005859375 0.07421875 m 1xb8
 400.793945312 691.274414062 l 1
 958.221679688 691.274414062 l 1
 958.221679688 553.034179688 l 1
 615.501953125 553.034179688 l 1
 615.501953125 417.673828125 l 1
 909.26171875 417.673828125 l 1
 909.26171875 279.43359375 l 1
 615.501953125 279.43359375 l 1
 615.501953125 138.314453125 l 1
 958.221679688 138.314453125 l 1
 958.221679688 0.07421875 l 1
 459.981445312 0.07421875 l 1xb8
 459.981445312 135.43359375 l 1
 249.592773438 135.43359375 l 1x78
 174.712890625 0.07421875 l 1
 1.1005859375 0.07421875 l 1xb8
459.981445312 268.874023438 m 1x78
 459.981445312 515.61328125 l 1
 323.154296875 268.874023438 l 1
 459.981445312 268.874023438 l 1x78
EndSplineSet
EndChar

StartChar: Ccedilla
Encoding: 199 199 137
Width: 675
GlyphClass: 2
Flags: MW
HStem: 564.554 139.2<317.39 379.169>
VStem: 60.6221 155.521<294.793 296.714 296.714 391.754 236.295 398.473 236.295 447.972> 484.942 153.601<234.314 253.514 201.547 253.514>
LayerCount: 2
Fore
SplineSet
216.142578125 296.713867188 m 2
 216.142578125 175.876953125 269.072265625 131.59375 359.182617188 131.59375 c 0
 401.159179688 131.59375 431.858398438 141.467773438 453.102539062 159.401367188 c 0
 474.251953125 177.255859375 484.942382812 201.211914062 484.942382812 234.314453125 c 2
 484.942382812 253.513671875 l 1
 638.54296875 253.513671875 l 1
 638.54296875 234.314453125 l 2
 638.54296875 168.779296875 619.416015625 113.944335938 580.467773438 71.8935546875 c 0
 543.3359375 31.8037109375 492.9609375 6.5986328125 430.91796875 -4.201171875 c 1
 371.754882812 -149.685546875 l 1
 224.30859375 -149.685546875 l 1
 297.510742188 -6.2099609375 l 1
 227.125 3.427734375 170.204101562 31.4462890625 128.569335938 78.3623046875 c 0
 82.599609375 130.163085938 60.6220703125 202.9921875 60.6220703125 294.79296875 c 2
 60.6220703125 398.47265625 l 2
 60.6220703125 497.470703125 86.2685546875 574.494140625 139.85546875 626.70703125 c 0
 193.060546875 678.547851562 266.662109375 703.75390625 358.221679688 703.75390625 c 0
 441.833007812 703.75390625 510.267578125 683.106445312 561.794921875 640.451171875 c 0
 613.674804688 597.502929688 639.501953125 537.239257812 639.501953125 462.793945312 c 2
 639.501953125 440.713867188 l 1
 484.938476562 440.713867188 l 1
 484.938476562 458.954101562 l 2
 484.938476562 492.711914062 474.06640625 517.366210938 452.52734375 535.8671875 c 0
 430.91796875 554.4296875 400.115234375 564.553710938 358.22265625 564.553710938 c 0
 276.557617188 564.553710938 216.142578125 527.133789062 216.142578125 391.75390625 c 2
 216.142578125 296.713867188 l 2
EndSplineSet
EndChar

StartChar: Egrave
Encoding: 200 200 138
Width: 591
GlyphClass: 2
Flags: MW
HStem: 0.0742188 138.24<219.021 566.542 219.021 566.542> 279.434 138.24<219.021 517.582 219.021 517.582> 553.034 138.24<219.021 566.542 219.021 219.021>
VStem: 64.4619 154.56<138.314 138.314 138.314 279.434 417.674 553.034>
LayerCount: 2
Fore
SplineSet
219.021484375 138.314453125 m 1
 566.541992188 138.314453125 l 1
 566.541992188 0.07421875 l 1
 64.4619140625 0.07421875 l 1
 64.4619140625 691.274414062 l 1
 566.541992188 691.274414062 l 1
 566.541992188 553.034179688 l 1
 219.021484375 553.034179688 l 1
 219.021484375 417.673828125 l 1
 517.58203125 417.673828125 l 1
 517.58203125 279.43359375 l 1
 219.021484375 279.43359375 l 1
 219.021484375 138.314453125 l 1
98.1494140625 884.234375 m 1
 286.860351562 884.234375 l 1
 428.045898438 727.75390625 l 1
 282.866210938 727.75390625 l 1
 98.1494140625 884.234375 l 1
EndSplineSet
EndChar

StartChar: Eacute
Encoding: 201 201 139
Width: 591
GlyphClass: 2
Flags: MW
HStem: 0.0742188 138.24<219.021 566.542 219.021 566.542> 279.434 138.24<219.021 517.582 219.021 517.582> 553.034 138.24<219.021 566.542 219.021 219.021>
VStem: 64.4619 154.56<138.314 138.314 138.314 279.434 417.674 553.034>
LayerCount: 2
Fore
SplineSet
219.021484375 138.314453125 m 1
 566.541992188 138.314453125 l 1
 566.541992188 0.07421875 l 1
 64.4619140625 0.07421875 l 1
 64.4619140625 691.274414062 l 1
 566.541992188 691.274414062 l 1
 566.541992188 553.034179688 l 1
 219.021484375 553.034179688 l 1
 219.021484375 417.673828125 l 1
 517.58203125 417.673828125 l 1
 517.58203125 279.43359375 l 1
 219.021484375 279.43359375 l 1
 219.021484375 138.314453125 l 1
527.094726562 884.234375 m 1
 342.377929688 727.75390625 l 1
 197.198242188 727.75390625 l 1
 338.3828125 884.234375 l 1
 527.094726562 884.234375 l 1
EndSplineSet
EndChar

StartChar: Ecircumflex
Encoding: 202 202 140
Width: 591
GlyphClass: 2
Flags: MW
HStem: 0.0742188 138.24<219.021 566.542 219.021 566.542> 279.434 138.24<219.021 517.582 219.021 517.582> 553.034 138.24<219.021 566.542 219.021 219.021>
VStem: 64.4619 154.56<138.314 138.314 138.314 279.434 417.674 553.034>
LayerCount: 2
Fore
SplineSet
219.021484375 138.314453125 m 1
 566.541992188 138.314453125 l 1
 566.541992188 0.07421875 l 1
 64.4619140625 0.07421875 l 1
 64.4619140625 691.274414062 l 1
 566.541992188 691.274414062 l 1
 566.541992188 553.034179688 l 1
 219.021484375 553.034179688 l 1
 219.021484375 417.673828125 l 1
 517.58203125 417.673828125 l 1
 517.58203125 279.43359375 l 1
 219.021484375 279.43359375 l 1
 219.021484375 138.314453125 l 1
260.583984375 890.954101562 m 1
 360.8203125 890.954101562 l 1
 516.16796875 717.194335938 l 1
 377.963867188 717.194335938 l 1
 311.114257812 787.5625 l 1
 243.384765625 717.194335938 l 1
 105.235351562 717.194335938 l 1
 260.583984375 890.954101562 l 1
EndSplineSet
EndChar

StartChar: Edieresis
Encoding: 203 203 141
Width: 591
GlyphClass: 2
Flags: MW
HStem: 0.0742188 138.24<219.021 566.542 219.021 566.542> 279.434 138.24<219.021 517.582 219.021 517.582> 553.034 138.24<219.021 566.542 219.021 219.021> 726.794 140.16<134.542 266.062 134.542 266.062 134.542 355.342 355.342 486.862>
VStem: 64.4619 154.56<138.314 138.314 138.314 279.434 417.674 553.034> 134.542 131.52<726.794 866.954 726.794 866.954> 355.342 131.521<726.794 866.954 726.794 866.954>
LayerCount: 2
Fore
SplineSet
219.021484375 138.314453125 m 1xfa
 566.541992188 138.314453125 l 1
 566.541992188 0.07421875 l 1
 64.4619140625 0.07421875 l 1
 64.4619140625 691.274414062 l 1
 566.541992188 691.274414062 l 1
 566.541992188 553.034179688 l 1
 219.021484375 553.034179688 l 1
 219.021484375 417.673828125 l 1
 517.58203125 417.673828125 l 1
 517.58203125 279.43359375 l 1
 219.021484375 279.43359375 l 1
 219.021484375 138.314453125 l 1xfa
134.541992188 866.954101562 m 1xf6
 266.061523438 866.954101562 l 1
 266.061523438 726.793945312 l 1
 134.541992188 726.793945312 l 1
 134.541992188 866.954101562 l 1xf6
355.341796875 866.954101562 m 1
 486.862304688 866.954101562 l 1
 486.862304688 726.793945312 l 1
 355.341796875 726.793945312 l 1
 355.341796875 866.954101562 l 1
EndSplineSet
EndChar

StartChar: Igrave
Encoding: 204 204 142
Width: 275
GlyphClass: 2
Flags: MW
HStem: 0.0742188 21G<70.2217 224.782 70.2217 70.2217> 671.274 20G<70.2217 224.782 224.782 224.782>
VStem: 70.2217 154.561<0.0742188 691.274 0.0742188 691.274>
LayerCount: 2
Fore
SplineSet
70.2216796875 691.274414062 m 1
 224.782226562 691.274414062 l 1
 224.782226562 0.07421875 l 1
 70.2216796875 0.07421875 l 1
 70.2216796875 691.274414062 l 1
-66.0107421875 884.234375 m 1
 122.701171875 884.234375 l 1
 263.885742188 727.75390625 l 1
 118.706054688 727.75390625 l 1
 -66.0107421875 884.234375 l 1
EndSplineSet
EndChar

StartChar: Iacute
Encoding: 205 205 143
Width: 275
GlyphClass: 2
Flags: MW
HStem: 0.0742188 21G<70.2217 224.782 70.2217 70.2217> 671.274 20G<70.2217 224.782 224.782 224.782>
VStem: 70.2217 154.561<0.0742188 691.274 0.0742188 691.274>
LayerCount: 2
Fore
SplineSet
70.2216796875 691.274414062 m 1
 224.782226562 691.274414062 l 1
 224.782226562 0.07421875 l 1
 70.2216796875 0.07421875 l 1
 70.2216796875 691.274414062 l 1
174.22265625 884.234375 m 1
 362.934570312 884.234375 l 1
 178.217773438 727.75390625 l 1
 33.0380859375 727.75390625 l 1
 174.22265625 884.234375 l 1
EndSplineSet
EndChar

StartChar: Icircumflex
Encoding: 206 206 144
Width: 275
GlyphClass: 2
Flags: MW
HStem: 0.0742188 21G<70.2217 224.782 70.2217 70.2217> 671.274 20G<70.2217 224.782 224.782 224.782>
VStem: 70.2217 154.561<0.0742188 691.274 0.0742188 691.274>
LayerCount: 2
Fore
SplineSet
70.2216796875 691.274414062 m 1
 224.782226562 691.274414062 l 1
 224.782226562 0.07421875 l 1
 70.2216796875 0.07421875 l 1
 70.2216796875 691.274414062 l 1
96.423828125 890.954101562 m 1
 196.66015625 890.954101562 l 1
 352.008789062 717.194335938 l 1
 213.803710938 717.194335938 l 1
 146.954101562 787.5625 l 1
 79.224609375 717.194335938 l 1
 -58.9248046875 717.194335938 l 1
 96.423828125 890.954101562 l 1
EndSplineSet
EndChar

StartChar: Idieresis
Encoding: 207 207 145
Width: 275
GlyphClass: 2
Flags: MW
HStem: 0.0742188 21G<70.2217 224.782 70.2217 70.2217> 671.274 20G<70.2217 224.782 224.782 224.782> 726.794 140.16<-29.6182 101.901 -29.6182 101.901 -29.6182 191.182 191.182 322.702>
VStem: -29.6182 131.52<726.794 866.954 726.794 866.954> 70.2217 154.561<0.0742188 691.274 0.0742188 691.274> 191.182 131.521<726.794 866.954 726.794 866.954>
LayerCount: 2
Fore
SplineSet
70.2216796875 691.274414062 m 1xe8
 224.782226562 691.274414062 l 1
 224.782226562 0.07421875 l 1
 70.2216796875 0.07421875 l 1
 70.2216796875 691.274414062 l 1xe8
-29.6181640625 866.954101562 m 1xf0
 101.901367188 866.954101562 l 1
 101.901367188 726.793945312 l 1
 -29.6181640625 726.793945312 l 1
 -29.6181640625 866.954101562 l 1xf0
191.181640625 866.954101562 m 1xe4
 322.702148438 866.954101562 l 1
 322.702148438 726.793945312 l 1
 191.181640625 726.793945312 l 1
 191.181640625 866.954101562 l 1xe4
EndSplineSet
EndChar

StartChar: Eth
Encoding: 208 208 146
Width: 695
GlyphClass: 2
Flags: MW
HStem: 0.0742188 138.241<249.741 363.021> 282.315 139.2<249.741 400.461 249.741 400.461> 553.036 138.238<249.741 366.861 249.741 249.741>
VStem: 95.1816 154.56<138.315 282.314 282.314 282.314 421.516 553.036> 505.101 154.561<305.354 380.235 380.235 386.955 254.958 412.081>
LayerCount: 2
Fore
SplineSet
659.661132812 386.955078125 m 2
 659.661132812 305.354492188 l 2
 659.661132812 204.561523438 634.446289062 127.018554688 581.350585938 75.6455078125 c 0
 528.715820312 24.7197265625 455.126953125 0.07421875 363.021484375 0.07421875 c 2
 95.181640625 0.07421875 l 1
 95.181640625 282.314453125 l 1
 33.7421875 282.314453125 l 1
 33.7421875 421.513671875 l 1
 95.181640625 421.513671875 l 1
 95.181640625 691.274414062 l 1
 367.822265625 691.274414062 l 2
 458.666992188 691.274414062 531.180664062 666.768554688 582.858398438 616.1171875 c 0
 634.984375 565.02734375 659.661132812 487.689453125 659.661132812 386.955078125 c 2
505.100585938 380.235351562 m 2
 505.100585938 443.926757812 492.598632812 487.827148438 471.0234375 513.55078125 c 0
 449.537109375 539.169921875 416.036132812 553.036132812 366.861328125 553.036132812 c 2
 249.741210938 553.036132812 l 1
 249.741210938 421.515625 l 1
 400.4609375 421.515625 l 1
 400.4609375 282.315429688 l 1
 249.741210938 282.315429688 l 1
 249.741210938 138.315429688 l 1
 366.861328125 138.315429688 l 2
 416.111328125 138.315429688 449.6796875 151.94140625 471.124023438 176.959960938 c 0
 492.6796875 202.107421875 505.100585938 244.311523438 505.100585938 305.354492188 c 2
 505.100585938 380.235351562 l 2
EndSplineSet
EndChar

StartChar: Ntilde
Encoding: 209 209 147
Width: 700
GlyphClass: 2
Flags: MW
HStem: 0.0742188 21G<64.4619 219.021 64.4619 64.4619 503.354 651.021 503.354 503.354> 671.274 20G<64.4619 212.14 212.14 212.14 496.462 651.021 651.021 651.021> 722.954 119.039<409.213 443.827 406.795 447.547> 759.435 119.038<272.998 295.335>
VStem: 64.4619 154.56<0.0742188 407.408 0.0742188 691.274> 496.462 154.56<283.062 691.274 0.0742188 691.274>
LayerCount: 2
Fore
SplineSet
651.021484375 691.274414062 m 1xcc
 651.021484375 0.07421875 l 1
 503.353515625 0.07421875 l 1
 219.021484375 407.408203125 l 1
 219.021484375 0.07421875 l 1
 64.4619140625 0.07421875 l 1
 64.4619140625 691.274414062 l 1
 212.139648438 691.274414062 l 1
 496.461914062 283.061523438 l 1
 496.461914062 691.274414062 l 1
 651.021484375 691.274414062 l 1xcc
292.94140625 878.47265625 m 0xdc
 359.060546875 878.47265625 383.369140625 841.993164062 430.221679688 841.993164062 c 0
 457.431640625 841.993164062 469.616210938 851.657226562 525.260742188 895.791015625 c 1
 525.260742188 771.533203125 l 1
 498.176757812 745.569335938 471.592773438 722.954101562 423.500976562 722.954101562 c 0xec
 394.924804688 722.954101562 382.076171875 727.212890625 326.670898438 750.499023438 c 0
 317.544921875 754.384765625 303.489257812 759.434570312 287.181640625 759.434570312 c 0
 258.814453125 759.434570312 243.961914062 748.166992188 190.221679688 707.396484375 c 1
 190.221679688 829.895507812 l 1
 218.740234375 857.224609375 244.588867188 878.47265625 292.94140625 878.47265625 c 0xdc
EndSplineSet
EndChar

StartChar: Ograve
Encoding: 210 210 148
Width: 675
GlyphClass: 2
Flags: MW
HStem: -10.4863 142.079<313.306 382.077 313.306 391.918> 564.553 139.202<315.22 380.479>
VStem: 60.6211 155.519<294.794 296.713 296.713 391.753 230.863 398.474 230.863 447.945> 484.94 154.562<296.713 391.753 391.753 398.474 245.61 467.885>
LayerCount: 2
Fore
SplineSet
60.62109375 294.793945312 m 2
 60.62109375 398.473632812 l 2
 60.62109375 497.416992188 85.734375 574.373046875 138.314453125 626.608398438 c 0
 190.5078125 678.461914062 262.404296875 703.754882812 351.500976562 703.754882812 c 0
 439.37109375 703.754882812 510.481445312 678.416015625 562.322265625 626.575195312 c 0
 614.565429688 574.33203125 639.501953125 497.3984375 639.501953125 398.473632812 c 2
 639.501953125 294.793945312 l 2
 639.501953125 196.42578125 614.0078125 119.61328125 560.815429688 67.107421875 c 0
 508.038085938 15.01171875 436.173828125 -10.486328125 347.662109375 -10.486328125 c 0
 259.1875 -10.486328125 188.0234375 14.828125 136.7734375 66.76171875 c 0
 85.2041015625 119.01953125 60.62109375 195.90625 60.62109375 294.793945312 c 2
351.500976562 131.592773438 m 0
 412.65234375 131.592773438 484.940429688 153.946289062 484.940429688 296.712890625 c 2
 484.940429688 391.752929688 l 2
 484.940429688 544.016601562 409.456054688 564.552734375 351.500976562 564.552734375 c 0
 278.939453125 564.552734375 216.139648438 533.36328125 216.139648438 391.752929688 c 2
 216.139648438 296.712890625 l 2
 216.139648438 165.012695312 275.111328125 131.592773438 351.500976562 131.592773438 c 0
326.219726562 884.233398438 m 1
 467.404296875 727.752929688 l 1
 322.225585938 727.752929688 l 1
 137.5078125 884.233398438 l 1
 326.219726562 884.233398438 l 1
EndSplineSet
EndChar

StartChar: Oacute
Encoding: 211 211 149
Width: 675
GlyphClass: 2
Flags: MW
HStem: -10.4863 142.079<313.306 382.077 313.306 391.918> 564.553 139.202<315.22 380.479>
VStem: 60.6211 155.519<294.794 296.713 296.713 391.753 230.863 398.474 230.863 447.945> 484.94 154.562<296.713 391.753 391.753 398.474 245.61 467.885>
LayerCount: 2
Fore
SplineSet
60.62109375 294.793945312 m 2
 60.62109375 398.473632812 l 2
 60.62109375 497.416992188 85.734375 574.373046875 138.314453125 626.608398438 c 0
 190.5078125 678.461914062 262.404296875 703.754882812 351.500976562 703.754882812 c 0
 439.37109375 703.754882812 510.481445312 678.416015625 562.322265625 626.575195312 c 0
 614.565429688 574.33203125 639.501953125 497.3984375 639.501953125 398.473632812 c 2
 639.501953125 294.793945312 l 2
 639.501953125 196.42578125 614.0078125 119.61328125 560.815429688 67.107421875 c 0
 508.038085938 15.01171875 436.173828125 -10.486328125 347.662109375 -10.486328125 c 0
 259.1875 -10.486328125 188.0234375 14.828125 136.7734375 66.76171875 c 0
 85.2041015625 119.01953125 60.62109375 195.90625 60.62109375 294.793945312 c 2
351.500976562 131.592773438 m 0
 412.65234375 131.592773438 484.940429688 153.946289062 484.940429688 296.712890625 c 2
 484.940429688 391.752929688 l 2
 484.940429688 544.016601562 409.456054688 564.552734375 351.500976562 564.552734375 c 0
 278.939453125 564.552734375 216.139648438 533.36328125 216.139648438 391.752929688 c 2
 216.139648438 296.712890625 l 2
 216.139648438 165.012695312 275.111328125 131.592773438 351.500976562 131.592773438 c 0
337.421875 884.233398438 m 1
 526.133789062 884.233398438 l 1
 341.416992188 727.752929688 l 1
 196.237304688 727.752929688 l 1
 337.421875 884.233398438 l 1
EndSplineSet
EndChar

StartChar: Ocircumflex
Encoding: 212 212 150
Width: 675
GlyphClass: 2
Flags: MW
HStem: -10.4863 142.079<313.306 382.077 313.306 391.918> 564.553 139.202<315.22 380.479>
VStem: 60.6211 155.519<294.794 296.713 296.713 391.753 230.863 398.474 230.863 447.945> 484.94 154.562<296.713 391.753 391.753 398.474 245.61 467.885>
LayerCount: 2
Fore
SplineSet
60.62109375 294.793945312 m 2
 60.62109375 398.473632812 l 2
 60.62109375 497.416992188 85.734375 574.373046875 138.314453125 626.608398438 c 0
 190.5078125 678.461914062 262.404296875 703.754882812 351.500976562 703.754882812 c 0
 439.37109375 703.754882812 510.481445312 678.416015625 562.322265625 626.575195312 c 0
 614.565429688 574.33203125 639.501953125 497.3984375 639.501953125 398.473632812 c 2
 639.501953125 294.793945312 l 2
 639.501953125 196.42578125 614.0078125 119.61328125 560.815429688 67.107421875 c 0
 508.038085938 15.01171875 436.173828125 -10.486328125 347.662109375 -10.486328125 c 0
 259.1875 -10.486328125 188.0234375 14.828125 136.7734375 66.76171875 c 0
 85.2041015625 119.01953125 60.62109375 195.90625 60.62109375 294.793945312 c 2
351.500976562 131.592773438 m 0
 412.65234375 131.592773438 484.940429688 153.946289062 484.940429688 296.712890625 c 2
 484.940429688 391.752929688 l 2
 484.940429688 544.016601562 409.456054688 564.552734375 351.500976562 564.552734375 c 0
 278.939453125 564.552734375 216.139648438 533.36328125 216.139648438 391.752929688 c 2
 216.139648438 296.712890625 l 2
 216.139648438 165.012695312 275.111328125 131.592773438 351.500976562 131.592773438 c 0
400.178710938 890.953125 m 1
 555.52734375 717.193359375 l 1
 417.322265625 717.193359375 l 1
 350.47265625 787.561523438 l 1
 282.743164062 717.193359375 l 1
 144.594726562 717.193359375 l 1
 299.942382812 890.953125 l 1
 400.178710938 890.953125 l 1
EndSplineSet
EndChar

StartChar: Otilde
Encoding: 213 213 151
Width: 675
GlyphClass: 2
Flags: MW
HStem: -10.4863 142.079<313.306 382.077 313.306 391.918> 564.553 139.202<315.22 380.479> 722.953 119.039<401.532 436.146 399.115 439.866> 759.434 119.038<265.317 287.655>
VStem: 60.6211 155.519<294.794 296.713 296.713 391.753 230.863 398.474 230.863 447.945> 484.94 154.562<296.713 391.753 391.753 398.474 245.61 467.885>
LayerCount: 2
Fore
SplineSet
60.62109375 294.793945312 m 2xcc
 60.62109375 398.473632812 l 2
 60.62109375 497.416992188 85.734375 574.373046875 138.314453125 626.608398438 c 0
 190.5078125 678.461914062 262.404296875 703.754882812 351.500976562 703.754882812 c 0
 439.37109375 703.754882812 510.481445312 678.416015625 562.322265625 626.575195312 c 0
 614.565429688 574.33203125 639.501953125 497.3984375 639.501953125 398.473632812 c 2
 639.501953125 294.793945312 l 2
 639.501953125 196.42578125 614.0078125 119.61328125 560.815429688 67.107421875 c 0
 508.038085938 15.01171875 436.173828125 -10.486328125 347.662109375 -10.486328125 c 0
 259.1875 -10.486328125 188.0234375 14.828125 136.7734375 66.76171875 c 0
 85.2041015625 119.01953125 60.62109375 195.90625 60.62109375 294.793945312 c 2xcc
351.500976562 131.592773438 m 0
 412.65234375 131.592773438 484.940429688 153.946289062 484.940429688 296.712890625 c 2
 484.940429688 391.752929688 l 2
 484.940429688 544.016601562 409.456054688 564.552734375 351.500976562 564.552734375 c 0
 278.939453125 564.552734375 216.139648438 533.36328125 216.139648438 391.752929688 c 2
 216.139648438 296.712890625 l 2
 216.139648438 165.012695312 275.111328125 131.592773438 351.500976562 131.592773438 c 0
285.260742188 878.471679688 m 0xdc
 351.379882812 878.471679688 375.688476562 841.9921875 422.541015625 841.9921875 c 0
 449.750976562 841.9921875 461.935546875 851.65625 517.580078125 895.790039062 c 1
 517.580078125 771.532226562 l 1
 490.49609375 745.568359375 463.912109375 722.953125 415.8203125 722.953125 c 0xec
 387.244140625 722.953125 374.395507812 727.211914062 318.990234375 750.498046875 c 0
 309.864257812 754.383789062 295.80859375 759.43359375 279.500976562 759.43359375 c 0
 251.133789062 759.43359375 236.28125 748.166015625 182.541015625 707.395507812 c 1
 182.541015625 829.89453125 l 1
 211.05859375 857.223632812 236.907226562 878.471679688 285.260742188 878.471679688 c 0xdc
EndSplineSet
EndChar

StartChar: Odieresis
Encoding: 214 214 152
Width: 675
GlyphClass: 2
Flags: MW
HStem: -10.4863 142.079<313.306 382.077 313.306 391.918> 564.553 139.202<315.22 380.479> 726.793 140.16<173.901 305.421 173.901 305.421 173.901 394.701 394.701 526.221>
VStem: 60.6211 155.519<294.794 296.713 296.713 391.753 230.863 398.474 230.863 447.945> 173.901 131.52<726.793 866.953 726.793 866.953> 394.701 131.52<726.793 866.953 726.793 866.953> 484.94 154.562<296.713 391.753 391.753 398.474 245.61 467.885>
LayerCount: 2
Fore
SplineSet
60.62109375 294.793945312 m 2xf2
 60.62109375 398.473632812 l 2
 60.62109375 497.416992188 85.734375 574.373046875 138.314453125 626.608398438 c 0
 190.5078125 678.461914062 262.404296875 703.754882812 351.500976562 703.754882812 c 0
 439.37109375 703.754882812 510.481445312 678.416015625 562.322265625 626.575195312 c 0
 614.565429688 574.33203125 639.501953125 497.3984375 639.501953125 398.473632812 c 2
 639.501953125 294.793945312 l 2
 639.501953125 196.42578125 614.0078125 119.61328125 560.815429688 67.107421875 c 0
 508.038085938 15.01171875 436.173828125 -10.486328125 347.662109375 -10.486328125 c 0
 259.1875 -10.486328125 188.0234375 14.828125 136.7734375 66.76171875 c 0
 85.2041015625 119.01953125 60.62109375 195.90625 60.62109375 294.793945312 c 2xf2
351.500976562 131.592773438 m 0
 412.65234375 131.592773438 484.940429688 153.946289062 484.940429688 296.712890625 c 2
 484.940429688 391.752929688 l 2
 484.940429688 544.016601562 409.456054688 564.552734375 351.500976562 564.552734375 c 0
 278.939453125 564.552734375 216.139648438 533.36328125 216.139648438 391.752929688 c 2
 216.139648438 296.712890625 l 2
 216.139648438 165.012695312 275.111328125 131.592773438 351.500976562 131.592773438 c 0
173.901367188 866.953125 m 1xe8
 305.420898438 866.953125 l 1
 305.420898438 726.79296875 l 1
 173.901367188 726.79296875 l 1
 173.901367188 866.953125 l 1xe8
394.701171875 866.953125 m 1xe4
 526.220703125 866.953125 l 1
 526.220703125 726.79296875 l 1
 394.701171875 726.79296875 l 1
 394.701171875 866.953125 l 1xe4
EndSplineSet
EndChar

StartChar: multiply
Encoding: 215 215 153
Width: 535
GlyphClass: 2
Flags: W
LayerCount: 2
Fore
SplineSet
276.579101562 186.0703125 m 1
 161.35546875 70.8466796875 l 1
 68.1669921875 165.260742188 l 1
 182.383789062 279.4765625 l 1
 68.1435546875 394.676757812 l 1
 161.37890625 487.912109375 l 1
 276.579101562 373.671875 l 1
 390.928710938 488.021484375 l 1
 484.116210938 393.607421875 l 1
 369.942382812 279.43359375 l 1
 484.116210938 165.260742188 l 1
 390.885742188 70.8037109375 l 1
 276.579101562 186.0703125 l 1
EndSplineSet
EndChar

StartChar: Oslash
Encoding: 216 216 154
Width: 675
GlyphClass: 2
Flags: MW
HStem: -10.4873 142.079<335.894 383.038 335.894 392.877> 564.552 139.202<316.181 367.453>
VStem: 61.5811 155.52<294.793 296.712 296.712 391.752 286.448 398.473 286.448 447.944> 485.901 154.561<296.712 391.752 391.752 398.474 245.609 404.771>
LayerCount: 2
Fore
SplineSet
348.62109375 -10.4873046875 m 0
 287.694335938 -10.4873046875 235.140625 1.37890625 191.651367188 25.810546875 c 1
 161.405273438 -19.126953125 l 1
 48.19140625 -19.126953125 l 1
 119.677734375 88.65234375 l 1
 80.4794921875 140.981445312 61.5810546875 210.176757812 61.5810546875 294.79296875 c 2
 61.5810546875 398.47265625 l 2
 61.5810546875 497.416015625 86.6943359375 574.372070312 139.274414062 626.607421875 c 0
 191.467773438 678.4609375 263.364257812 703.75390625 352.4609375 703.75390625 c 0
 411.045898438 703.75390625 462.204101562 692.692382812 505.365234375 670.000976562 c 1
 535.836914062 715.274414062 l 1
 647.12890625 715.274414062 l 1
 577.783203125 610.704101562 l 1
 620.098632812 558.078125 640.461914062 486.756835938 640.461914062 398.473632812 c 2
 640.461914062 294.79296875 l 2
 640.461914062 196.424804688 614.966796875 119.612304688 561.774414062 67.1064453125 c 0
 508.997070312 15.0107421875 437.1328125 -10.4873046875 348.62109375 -10.4873046875 c 0
352.461914062 564.551757812 m 0
 279.900390625 564.551757812 217.100585938 533.362304688 217.100585938 391.751953125 c 2
 217.100585938 296.711914062 l 2
 217.100585938 276.18359375 218.52734375 257.805664062 221.270507812 241.603515625 c 1
 424.849609375 547.395507812 l 1
 406.263671875 558.578125 382.444335938 564.551757812 352.461914062 564.551757812 c 0
352.461914062 131.591796875 m 0
 413.61328125 131.591796875 485.901367188 153.9453125 485.901367188 296.711914062 c 2
 485.901367188 391.751953125 l 2
 485.901367188 417.7890625 483.54296875 441.079101562 478.971679688 461.638671875 c 1
 274.104492188 150.479492188 l 1
 293.561523438 138.219726562 319.325195312 131.591796875 352.461914062 131.591796875 c 0
EndSplineSet
EndChar

StartChar: Ugrave
Encoding: 217 217 155
Width: 678
GlyphClass: 2
Flags: MW
HStem: -5.68555 138.237<287.048 374.791 287.048 431.244> 671.273 20G<64.4629 219.022 219.022 219.022 474.382 628.941 628.941 628.941>
VStem: 64.4629 154.56<252.553 256.394 256.394 691.273> 474.382 154.56<256.394 691.273>
LayerCount: 2
Fore
SplineSet
345.7421875 -5.685546875 m 0
 176.747070312 -5.685546875 64.462890625 94.984375 64.462890625 252.552734375 c 2
 64.462890625 691.2734375 l 1
 219.022460938 691.2734375 l 1
 219.022460938 256.393554688 l 2
 219.022460938 216.407226562 228.353515625 132.551757812 345.7421875 132.551757812 c 0
 403.83984375 132.551757812 474.381835938 153.698242188 474.381835938 256.393554688 c 2
 474.381835938 691.2734375 l 1
 628.94140625 691.2734375 l 1
 628.94140625 252.552734375 l 2
 628.94140625 94.8271484375 516.745117188 -5.685546875 345.7421875 -5.685546875 c 0
133.669921875 884.234375 m 1
 322.381835938 884.234375 l 1
 463.56640625 727.75390625 l 1
 318.38671875 727.75390625 l 1
 133.669921875 884.234375 l 1
EndSplineSet
EndChar

StartChar: Uacute
Encoding: 218 218 156
Width: 678
GlyphClass: 2
Flags: MW
HStem: -5.68555 138.237<287.048 374.791 287.048 431.244> 671.273 20G<64.4629 219.022 219.022 219.022 474.382 628.941 628.941 628.941>
VStem: 64.4629 154.56<252.553 256.394 256.394 691.273> 474.382 154.56<256.394 691.273>
LayerCount: 2
Fore
SplineSet
345.7421875 -5.685546875 m 0
 176.747070312 -5.685546875 64.462890625 94.984375 64.462890625 252.552734375 c 2
 64.462890625 691.2734375 l 1
 219.022460938 691.2734375 l 1
 219.022460938 256.393554688 l 2
 219.022460938 216.407226562 228.353515625 132.551757812 345.7421875 132.551757812 c 0
 403.83984375 132.551757812 474.381835938 153.698242188 474.381835938 256.393554688 c 2
 474.381835938 691.2734375 l 1
 628.94140625 691.2734375 l 1
 628.94140625 252.552734375 l 2
 628.94140625 94.8271484375 516.745117188 -5.685546875 345.7421875 -5.685546875 c 0
373.904296875 884.234375 m 1
 562.615234375 884.234375 l 1
 377.8984375 727.75390625 l 1
 232.71875 727.75390625 l 1
 373.904296875 884.234375 l 1
EndSplineSet
EndChar

StartChar: Ucircumflex
Encoding: 219 219 157
Width: 678
GlyphClass: 2
Flags: MW
HStem: -5.68555 138.237<287.048 374.791 287.048 431.244> 671.273 20G<64.4629 219.022 219.022 219.022 474.382 628.941 628.941 628.941>
VStem: 64.4629 154.56<252.553 256.394 256.394 691.273> 474.382 154.56<256.394 691.273>
LayerCount: 2
Fore
SplineSet
345.7421875 -5.685546875 m 0
 176.747070312 -5.685546875 64.462890625 94.984375 64.462890625 252.552734375 c 2
 64.462890625 691.2734375 l 1
 219.022460938 691.2734375 l 1
 219.022460938 256.393554688 l 2
 219.022460938 216.407226562 228.353515625 132.551757812 345.7421875 132.551757812 c 0
 403.83984375 132.551757812 474.381835938 153.698242188 474.381835938 256.393554688 c 2
 474.381835938 691.2734375 l 1
 628.94140625 691.2734375 l 1
 628.94140625 252.552734375 l 2
 628.94140625 94.8271484375 516.745117188 -5.685546875 345.7421875 -5.685546875 c 0
396.340820312 890.954101562 m 1
 551.689453125 717.194335938 l 1
 413.484375 717.194335938 l 1
 346.634765625 787.5625 l 1
 278.905273438 717.194335938 l 1
 140.755859375 717.194335938 l 1
 296.104492188 890.954101562 l 1
 396.340820312 890.954101562 l 1
EndSplineSet
EndChar

StartChar: Udieresis
Encoding: 220 220 158
Width: 678
GlyphClass: 2
Flags: MW
HStem: -5.68555 138.237<287.048 374.791 287.048 431.244> 671.273 20G<64.4629 219.022 219.022 219.022 474.382 628.941 628.941 628.941> 726.794 140.16<170.062 301.583 170.062 301.583 170.062 390.862 390.862 522.383>
VStem: 64.4629 154.56<252.553 256.394 256.394 691.273> 170.062 131.521<726.794 866.954 726.794 866.954> 390.862 131.521<726.794 866.954 726.794 866.954> 474.382 154.56<256.394 691.273>
LayerCount: 2
Fore
SplineSet
345.7421875 -5.685546875 m 0xf2
 176.747070312 -5.685546875 64.462890625 94.984375 64.462890625 252.552734375 c 2
 64.462890625 691.2734375 l 1
 219.022460938 691.2734375 l 1
 219.022460938 256.393554688 l 2
 219.022460938 216.407226562 228.353515625 132.551757812 345.7421875 132.551757812 c 0
 403.83984375 132.551757812 474.381835938 153.698242188 474.381835938 256.393554688 c 2
 474.381835938 691.2734375 l 1
 628.94140625 691.2734375 l 1
 628.94140625 252.552734375 l 2
 628.94140625 94.8271484375 516.745117188 -5.685546875 345.7421875 -5.685546875 c 0xf2
170.0625 866.954101562 m 1xe8
 301.583007812 866.954101562 l 1
 301.583007812 726.793945312 l 1
 170.0625 726.793945312 l 1
 170.0625 866.954101562 l 1xe8
390.862304688 866.954101562 m 1xe4
 522.3828125 866.954101562 l 1
 522.3828125 726.793945312 l 1
 390.862304688 726.793945312 l 1
 390.862304688 866.954101562 l 1xe4
EndSplineSet
EndChar

StartChar: Yacute
Encoding: 221 221 159
Width: 611
GlyphClass: 2
Flags: MW
HStem: 0.0742188 21G<237.262 391.822 237.262 237.262> 671.274 20G<1.08789 176.84 176.84 176.84 451.284 627.013 627.013 627.013>
VStem: 237.262 154.561<0.0742188 283.247 283.247 283.247>
LayerCount: 2
Fore
SplineSet
451.284179688 691.274414062 m 1
 627.012695312 691.274414062 l 1
 391.822265625 284.212890625 l 1
 391.822265625 0.07421875 l 1
 237.26171875 0.07421875 l 1
 237.26171875 283.247070312 l 1
 1.087890625 691.274414062 l 1
 176.83984375 691.274414062 l 1
 314.061523438 430.37109375 l 1
 451.284179688 691.274414062 l 1
341.262695312 884.234375 m 1
 529.974609375 884.234375 l 1
 345.2578125 727.75390625 l 1
 200.078125 727.75390625 l 1
 341.262695312 884.234375 l 1
EndSplineSet
EndChar

StartChar: Thorn
Encoding: 222 222 160
Width: 631
GlyphClass: 2
Flags: MW
HStem: 0.0742188 21G<64.4619 219.021 64.4619 64.4619> 143.114 138.24<219.021 360.142 219.021 369.742> 443.594 138.24<219.021 364.941 364.941 369.742 219.021 364.941> 671.274 20G<64.4619 219.021 219.021 219.021>
VStem: 64.4619 154.56<0.0742188 143.114 0.0742188 281.354 281.354 443.594 581.834 691.274> 461.901 154.561<341.3 373.365>
LayerCount: 2
Fore
SplineSet
616.461914062 360.07421875 m 0
 616.461914062 292.83203125 593.989257812 238.362304688 548.482421875 199.803710938 c 0
 503.073242188 161.327148438 439.681640625 143.114257812 360.141601562 143.114257812 c 2
 219.021484375 143.114257812 l 1
 219.021484375 0.07421875 l 1
 64.4619140625 0.07421875 l 1
 64.4619140625 691.274414062 l 1
 219.021484375 691.274414062 l 1
 219.021484375 581.833984375 l 1
 364.94140625 581.833984375 l 2
 441.411132812 581.833984375 503.204101562 563.509765625 548.482421875 525.14453125 c 0
 594.171875 486.430664062 616.461914062 430.301757812 616.461914062 360.07421875 c 0
369.7421875 281.354492188 m 2
 448.12890625 281.354492188 461.901367188 321.56640625 461.901367188 361.034179688 c 0
 461.901367188 385.6953125 458.5390625 443.59375 369.7421875 443.59375 c 2
 219.021484375 443.59375 l 1
 219.021484375 281.354492188 l 1
 369.7421875 281.354492188 l 2
EndSplineSet
EndChar

StartChar: germandbls
Encoding: 223 223 161
Width: 582
GlyphClass: 2
Flags: MW
HStem: -3.76562 128.64<275.662 324.622 324.622 334.222 275.662 324.622> 347.594 127.681<275.662 315.021 275.662 323.662> 570.315 130.56<284.714 338.924 248.349 347.122>
VStem: 59.6621 147.84<0.0751953 482.955 482.955 493.515 0.0751953 577.35> 390.862 146.88<513.948 528.851> 400.462 146.88<219.642 274.656>
LayerCount: 2
Fore
SplineSet
547.341796875 235.275390625 m 0xf4
 547.341796875 64.7119140625 491.013671875 -3.765625 334.221679688 -3.765625 c 2
 275.662109375 -3.765625 l 1
 275.662109375 124.874023438 l 1
 324.622070312 124.874023438 l 2
 373.907226562 124.874023438 387.30859375 140.983398438 393.767578125 164.666992188 c 0
 398.005859375 180.208984375 400.461914062 204.009765625 400.461914062 235.2734375 c 0xf4
 400.461914062 314.0390625 383.9453125 328.8359375 369.752929688 337.036132812 c 0
 358.681640625 343.43359375 340.499023438 347.59375 315.021484375 347.59375 c 2
 275.662109375 347.59375 l 1
 275.662109375 475.274414062 l 1
 323.662109375 475.274414062 l 2
 389.436523438 475.274414062 390.862304688 506.541992188 390.862304688 521.354492188 c 0
 390.862304688 536.34765625 390.7421875 570.315429688 303.501953125 570.315429688 c 0
 265.926757812 570.315429688 241.25390625 563.138671875 228.108398438 552.426757812 c 0
 215.458007812 542.119140625 207.501953125 523.853515625 207.501953125 493.514648438 c 2
 207.501953125 0.0751953125 l 1
 59.662109375 0.0751953125 l 1
 59.662109375 482.955078125 l 2
 59.662109375 671.744140625 194.15625 700.875 302.541992188 700.875 c 0
 375.306640625 700.875 432.994140625 687.103515625 474.578125 657.400390625 c 0
 516.5625 627.411132812 537.7421875 583.084960938 537.7421875 528.075195312 c 0xf8
 537.7421875 465.401367188 511.048828125 434.219726562 485.201171875 415.807617188 c 1
 526.928710938 386.12109375 547.341796875 341.720703125 547.341796875 235.275390625 c 0xf4
EndSplineSet
EndChar

StartChar: agrave
Encoding: 224 224 162
Width: 559
GlyphClass: 2
Flags: MW
HStem: -5.68555 123.839<242.378 273.192> 213.193 110.4<249.742 271.821 271.821 368.781> 413.834 120<269.303 317.008 247.779 317.75>
VStem: 43.3418 143.999<149.076 173.893 149.076 191.897> 368.781 146.88<196.873 213.193 213.193 213.193>
LayerCount: 2
Fore
SplineSet
277.58203125 413.833984375 m 0
 261.024414062 413.833984375 200.782226562 413.421875 200.782226562 366.793945312 c 2
 200.782226562 349.513671875 l 1
 58.7021484375 349.513671875 l 1
 58.7021484375 366.793945312 l 2
 58.7021484375 418.27734375 79.806640625 460.501953125 120.810546875 490.291992188 c 0
 161.47265625 519.83203125 215.095703125 533.833984375 280.461914062 533.833984375 c 0
 353.553710938 533.833984375 411.794921875 517.421875 453.397460938 482.462890625 c 0
 495.235351562 447.305664062 515.661132812 396.44140625 515.661132812 333.193359375 c 2
 515.661132812 0.0732421875 l 1
 371.661132812 0.0732421875 l 1
 371.661132812 30.2529296875 l 1
 342.056640625 9.4248046875 305.283203125 -5.685546875 241.1015625 -5.685546875 c 0
 178.936523438 -5.685546875 129.553710938 8.1201171875 94.8828125 38.1455078125 c 0
 60.2236328125 68.1591796875 43.341796875 110.915039062 43.341796875 163.274414062 c 0
 43.341796875 220.520507812 68.505859375 323.59375 249.7421875 323.59375 c 2
 368.782226562 323.59375 l 1
 368.782226562 338.954101562 l 2
 368.782226562 373.048828125 357.916992188 413.833984375 277.58203125 413.833984375 c 0
267.020507812 118.153320312 m 0
 359.1640625 118.153320312 368.78125 164.131835938 368.78125 196.873046875 c 2
 368.78125 213.193359375 l 1
 271.821289062 213.193359375 l 2
 188.030273438 213.193359375 187.340820312 181.631835938 187.340820312 166.153320312 c 0
 187.340820312 131.999023438 217.735351562 118.153320312 267.020507812 118.153320312 c 0
66.4677734375 721.033203125 m 1
 255.1796875 721.033203125 l 1
 396.364257812 564.552734375 l 1
 251.185546875 564.552734375 l 1
 66.4677734375 721.033203125 l 1
EndSplineSet
EndChar

StartChar: aacute
Encoding: 225 225 163
Width: 559
GlyphClass: 2
Flags: MW
HStem: -5.68555 123.839<242.378 273.192> 213.193 110.4<249.742 271.821 271.821 368.781> 413.834 120<269.303 317.008 247.779 317.75>
VStem: 43.3418 143.999<149.076 173.893 149.076 191.897> 368.781 146.88<196.873 213.193 213.193 213.193>
LayerCount: 2
Fore
SplineSet
277.58203125 413.833984375 m 0
 261.024414062 413.833984375 200.782226562 413.421875 200.782226562 366.793945312 c 2
 200.782226562 349.513671875 l 1
 58.7021484375 349.513671875 l 1
 58.7021484375 366.793945312 l 2
 58.7021484375 418.27734375 79.806640625 460.501953125 120.810546875 490.291992188 c 0
 161.47265625 519.83203125 215.095703125 533.833984375 280.461914062 533.833984375 c 0
 353.553710938 533.833984375 411.794921875 517.421875 453.397460938 482.462890625 c 0
 495.235351562 447.305664062 515.661132812 396.44140625 515.661132812 333.193359375 c 2
 515.661132812 0.0732421875 l 1
 371.661132812 0.0732421875 l 1
 371.661132812 30.2529296875 l 1
 342.056640625 9.4248046875 305.283203125 -5.685546875 241.1015625 -5.685546875 c 0
 178.936523438 -5.685546875 129.553710938 8.1201171875 94.8828125 38.1455078125 c 0
 60.2236328125 68.1591796875 43.341796875 110.915039062 43.341796875 163.274414062 c 0
 43.341796875 220.520507812 68.505859375 323.59375 249.7421875 323.59375 c 2
 368.782226562 323.59375 l 1
 368.782226562 338.954101562 l 2
 368.782226562 373.048828125 357.916992188 413.833984375 277.58203125 413.833984375 c 0
267.020507812 118.153320312 m 0
 359.1640625 118.153320312 368.78125 164.131835938 368.78125 196.873046875 c 2
 368.78125 213.193359375 l 1
 271.821289062 213.193359375 l 2
 188.030273438 213.193359375 187.340820312 181.631835938 187.340820312 166.153320312 c 0
 187.340820312 131.999023438 217.735351562 118.153320312 267.020507812 118.153320312 c 0
281.7421875 721.033203125 m 1
 470.453125 721.033203125 l 1
 285.736328125 564.552734375 l 1
 140.556640625 564.552734375 l 1
 281.7421875 721.033203125 l 1
EndSplineSet
EndChar

StartChar: acircumflex
Encoding: 226 226 164
Width: 559
GlyphClass: 2
Flags: MW
HStem: -5.68555 123.839<242.378 273.192> 213.193 110.4<249.742 271.821 271.821 368.781> 413.834 120<269.303 317.008 247.779 317.75>
VStem: 43.3418 143.999<149.076 173.893 149.076 191.897> 368.781 146.88<196.873 213.193 213.193 213.193>
LayerCount: 2
Fore
SplineSet
277.58203125 413.833984375 m 0
 261.024414062 413.833984375 200.782226562 413.421875 200.782226562 366.793945312 c 2
 200.782226562 349.513671875 l 1
 58.7021484375 349.513671875 l 1
 58.7021484375 366.793945312 l 2
 58.7021484375 418.27734375 79.806640625 460.501953125 120.810546875 490.291992188 c 0
 161.47265625 519.83203125 215.095703125 533.833984375 280.461914062 533.833984375 c 0
 353.553710938 533.833984375 411.794921875 517.421875 453.397460938 482.462890625 c 0
 495.235351562 447.305664062 515.661132812 396.44140625 515.661132812 333.193359375 c 2
 515.661132812 0.0732421875 l 1
 371.661132812 0.0732421875 l 1
 371.661132812 30.2529296875 l 1
 342.056640625 9.4248046875 305.283203125 -5.685546875 241.1015625 -5.685546875 c 0
 178.936523438 -5.685546875 129.553710938 8.1201171875 94.8828125 38.1455078125 c 0
 60.2236328125 68.1591796875 43.341796875 110.915039062 43.341796875 163.274414062 c 0
 43.341796875 220.520507812 68.505859375 323.59375 249.7421875 323.59375 c 2
 368.782226562 323.59375 l 1
 368.782226562 338.954101562 l 2
 368.782226562 373.048828125 357.916992188 413.833984375 277.58203125 413.833984375 c 0
267.020507812 118.153320312 m 0
 359.1640625 118.153320312 368.78125 164.131835938 368.78125 196.873046875 c 2
 368.78125 213.193359375 l 1
 271.821289062 213.193359375 l 2
 188.030273438 213.193359375 187.340820312 181.631835938 187.340820312 166.153320312 c 0
 187.340820312 131.999023438 217.735351562 118.153320312 267.020507812 118.153320312 c 0
228.90234375 727.752929688 m 1
 329.138671875 727.752929688 l 1
 484.487304688 553.993164062 l 1
 346.282226562 553.993164062 l 1
 279.432617188 624.361328125 l 1
 211.703125 553.993164062 l 1
 73.5546875 553.993164062 l 1
 228.90234375 727.752929688 l 1
EndSplineSet
EndChar

